; NON-PLATED HOLES START AT T1
; THROUGH (PLATED) HOLES START AT T100
M48
INCH
T1C0.125984
T100C0.045708
T101C0.025000
T102C0.038000
T103C0.048014
T104C0.018542
T105C0.048028
T106C0.040000
T107C0.046111
T108C0.031497
T109C0.018528
T110C0.036111
T111C0.035000
%
T1
X055134Y017796
X002134Y001796
X002134Y017796
X055134Y001796
T100
X053134Y006796
X043414Y006298
T101
X007134Y006584
X007134Y007370
X007134Y008158
X007134Y005796
T102
X005134Y001796
X005134Y004796
T103
X053134Y008796
T104
X037134Y013796
X035134Y013796
T105
X043414Y008298
X052296Y011871
X043414Y012298
X053134Y009796
X043414Y009298
X053134Y010796
X043414Y010298
X052296Y012871
X053134Y007796
X043414Y007298
X043414Y011298
X052296Y013871
T106
X034134Y004796
X033134Y004796
X032134Y004796
X039134Y004796
X038134Y004796
X037134Y004796
X036134Y004796
X035134Y004796
T107
X005134Y011796
X005134Y014796
X005134Y012796
X005134Y013796
T108
X025134Y001796
X026118Y001796
T109
X036134Y013796
X034134Y013796
T110
X014134Y006796
X014134Y010796
X023134Y006796
X023134Y010796
X014134Y007796
X023134Y007796
X014134Y008796
X023134Y008796
X014134Y009796
X014134Y003796
X023134Y009796
X023134Y003796
X014134Y004796
X023134Y004796
X014134Y005796
X023134Y005796
T111
X008575Y003567
X013134Y007796
X008575Y001796
X028134Y009796
X009134Y005796
X024134Y011796
X009134Y006796
X029134Y005796
X024134Y009796
X009134Y007796
X011134Y003567
X013134Y005796
X011134Y001796
X027134Y011796
X013134Y006796
X029134Y001796
T00
M30
