G04 MADE WITH FRITZING*
G04 WWW.FRITZING.ORG*
G04 DOUBLE SIDED*
G04 HOLES PLATED*
G04 CONTOUR ON CENTER OF CONTOUR VECTOR*
%ASAXBY*%
%FSLAX23Y23*%
%MOIN*%
%OFA0B0*%
%SFA1.0B1.0*%
%ADD10C,0.087778*%
%ADD11C,0.083889*%
%ADD12C,0.075000*%
%ADD13C,0.085000*%
%ADD14C,0.088000*%
%ADD15C,0.135984*%
%ADD16C,0.084000*%
%ADD17C,0.072992*%
%ADD18R,0.084000X0.084000*%
%ADD19R,0.072992X0.072992*%
%ADD20R,0.001000X0.001000*%
%LNMASK0*%
G90*
G70*
G54D10*
X1413Y1080D03*
X1413Y980D03*
X1413Y880D03*
X1413Y780D03*
X1413Y680D03*
X1413Y580D03*
X1413Y480D03*
X1413Y380D03*
X2313Y380D03*
X2313Y480D03*
X2313Y580D03*
X2313Y680D03*
X2313Y780D03*
X2313Y880D03*
X2313Y980D03*
X2313Y1080D03*
G54D11*
X513Y1180D03*
X513Y1280D03*
X513Y1380D03*
X513Y1480D03*
G54D12*
X713Y580D03*
X713Y658D03*
X713Y737D03*
X713Y816D03*
G54D13*
X2413Y1180D03*
X2713Y1180D03*
X1113Y180D03*
X858Y180D03*
X1113Y357D03*
X858Y357D03*
G54D14*
X513Y480D03*
G54D13*
X913Y580D03*
X1313Y580D03*
X913Y680D03*
X1313Y680D03*
X913Y780D03*
X1313Y780D03*
X2413Y980D03*
X2813Y980D03*
G54D15*
X5513Y180D03*
X5513Y1780D03*
X213Y1780D03*
X213Y180D03*
G54D14*
X513Y180D03*
G54D16*
X3213Y480D03*
X3313Y480D03*
X3413Y480D03*
X3513Y480D03*
X3613Y480D03*
X3713Y480D03*
X3813Y480D03*
X3913Y480D03*
G54D17*
X2612Y180D03*
X2513Y180D03*
G54D13*
X2913Y580D03*
X2913Y180D03*
G54D18*
X3213Y480D03*
G54D19*
X2612Y180D03*
G54D20*
X5225Y1424D02*
X5232Y1424D01*
X5220Y1423D02*
X5237Y1423D01*
X5217Y1422D02*
X5240Y1422D01*
X5214Y1421D02*
X5243Y1421D01*
X5212Y1420D02*
X5245Y1420D01*
X5211Y1419D02*
X5247Y1419D01*
X5209Y1418D02*
X5248Y1418D01*
X5208Y1417D02*
X5250Y1417D01*
X5206Y1416D02*
X5251Y1416D01*
X3406Y1415D02*
X3419Y1415D01*
X3506Y1415D02*
X3519Y1415D01*
X3606Y1415D02*
X3619Y1415D01*
X3706Y1415D02*
X3719Y1415D01*
X5205Y1415D02*
X5252Y1415D01*
X3402Y1414D02*
X3423Y1414D01*
X3502Y1414D02*
X3523Y1414D01*
X3602Y1414D02*
X3623Y1414D01*
X3702Y1414D02*
X3723Y1414D01*
X5204Y1414D02*
X5253Y1414D01*
X3399Y1413D02*
X3426Y1413D01*
X3499Y1413D02*
X3526Y1413D01*
X3599Y1413D02*
X3626Y1413D01*
X3699Y1413D02*
X3726Y1413D01*
X5203Y1413D02*
X5254Y1413D01*
X3397Y1412D02*
X3428Y1412D01*
X3497Y1412D02*
X3528Y1412D01*
X3597Y1412D02*
X3628Y1412D01*
X3697Y1412D02*
X3728Y1412D01*
X5202Y1412D02*
X5255Y1412D01*
X3395Y1411D02*
X3430Y1411D01*
X3495Y1411D02*
X3530Y1411D01*
X3595Y1411D02*
X3630Y1411D01*
X3695Y1411D02*
X3730Y1411D01*
X5201Y1411D02*
X5256Y1411D01*
X3394Y1410D02*
X3431Y1410D01*
X3494Y1410D02*
X3531Y1410D01*
X3594Y1410D02*
X3631Y1410D01*
X3694Y1410D02*
X3731Y1410D01*
X5201Y1410D02*
X5257Y1410D01*
X3392Y1409D02*
X3433Y1409D01*
X3492Y1409D02*
X3533Y1409D01*
X3592Y1409D02*
X3633Y1409D01*
X3692Y1409D02*
X3733Y1409D01*
X5200Y1409D02*
X5257Y1409D01*
X3391Y1408D02*
X3434Y1408D01*
X3491Y1408D02*
X3534Y1408D01*
X3591Y1408D02*
X3634Y1408D01*
X3691Y1408D02*
X3734Y1408D01*
X5199Y1408D02*
X5258Y1408D01*
X3390Y1407D02*
X3435Y1407D01*
X3490Y1407D02*
X3535Y1407D01*
X3590Y1407D02*
X3635Y1407D01*
X3690Y1407D02*
X3735Y1407D01*
X5199Y1407D02*
X5259Y1407D01*
X3389Y1406D02*
X3436Y1406D01*
X3489Y1406D02*
X3536Y1406D01*
X3589Y1406D02*
X3636Y1406D01*
X3689Y1406D02*
X3736Y1406D01*
X5198Y1406D02*
X5259Y1406D01*
X3388Y1405D02*
X3437Y1405D01*
X3488Y1405D02*
X3537Y1405D01*
X3588Y1405D02*
X3637Y1405D01*
X3688Y1405D02*
X3737Y1405D01*
X5197Y1405D02*
X5260Y1405D01*
X3387Y1404D02*
X3438Y1404D01*
X3487Y1404D02*
X3538Y1404D01*
X3587Y1404D02*
X3638Y1404D01*
X3687Y1404D02*
X3738Y1404D01*
X5197Y1404D02*
X5260Y1404D01*
X3386Y1403D02*
X3439Y1403D01*
X3486Y1403D02*
X3539Y1403D01*
X3586Y1403D02*
X3639Y1403D01*
X3686Y1403D02*
X3739Y1403D01*
X5196Y1403D02*
X5261Y1403D01*
X3385Y1402D02*
X3440Y1402D01*
X3485Y1402D02*
X3540Y1402D01*
X3585Y1402D02*
X3640Y1402D01*
X3685Y1402D02*
X3740Y1402D01*
X5196Y1402D02*
X5261Y1402D01*
X3384Y1401D02*
X3441Y1401D01*
X3484Y1401D02*
X3541Y1401D01*
X3584Y1401D02*
X3641Y1401D01*
X3684Y1401D02*
X3741Y1401D01*
X5196Y1401D02*
X5223Y1401D01*
X5234Y1401D02*
X5262Y1401D01*
X3384Y1400D02*
X3441Y1400D01*
X3484Y1400D02*
X3541Y1400D01*
X3584Y1400D02*
X3641Y1400D01*
X3684Y1400D02*
X3741Y1400D01*
X5195Y1400D02*
X5221Y1400D01*
X5236Y1400D02*
X5262Y1400D01*
X3383Y1399D02*
X3442Y1399D01*
X3483Y1399D02*
X3542Y1399D01*
X3583Y1399D02*
X3642Y1399D01*
X3683Y1399D02*
X3742Y1399D01*
X5195Y1399D02*
X5220Y1399D01*
X5237Y1399D02*
X5262Y1399D01*
X3383Y1398D02*
X3443Y1398D01*
X3483Y1398D02*
X3542Y1398D01*
X3583Y1398D02*
X3642Y1398D01*
X3682Y1398D02*
X3742Y1398D01*
X5195Y1398D02*
X5219Y1398D01*
X5238Y1398D02*
X5263Y1398D01*
X3382Y1397D02*
X3443Y1397D01*
X3482Y1397D02*
X3543Y1397D01*
X3582Y1397D02*
X3643Y1397D01*
X3682Y1397D02*
X3743Y1397D01*
X5194Y1397D02*
X5218Y1397D01*
X5239Y1397D02*
X5263Y1397D01*
X3381Y1396D02*
X3444Y1396D01*
X3481Y1396D02*
X3544Y1396D01*
X3581Y1396D02*
X3644Y1396D01*
X3681Y1396D02*
X3744Y1396D01*
X5194Y1396D02*
X5217Y1396D01*
X5240Y1396D02*
X5263Y1396D01*
X3381Y1395D02*
X3444Y1395D01*
X3481Y1395D02*
X3544Y1395D01*
X3581Y1395D02*
X3644Y1395D01*
X3681Y1395D02*
X3744Y1395D01*
X5194Y1395D02*
X5216Y1395D01*
X5241Y1395D02*
X5263Y1395D01*
X3381Y1394D02*
X3445Y1394D01*
X3481Y1394D02*
X3545Y1394D01*
X3581Y1394D02*
X3644Y1394D01*
X3680Y1394D02*
X3745Y1394D01*
X5194Y1394D02*
X5216Y1394D01*
X5241Y1394D02*
X5264Y1394D01*
X3380Y1393D02*
X3445Y1393D01*
X3480Y1393D02*
X3545Y1393D01*
X3580Y1393D02*
X3645Y1393D01*
X3680Y1393D02*
X3745Y1393D01*
X5193Y1393D02*
X5215Y1393D01*
X5242Y1393D02*
X5264Y1393D01*
X3380Y1392D02*
X3445Y1392D01*
X3480Y1392D02*
X3545Y1392D01*
X3580Y1392D02*
X3645Y1392D01*
X3680Y1392D02*
X3745Y1392D01*
X5193Y1392D02*
X5215Y1392D01*
X5242Y1392D02*
X5264Y1392D01*
X3380Y1391D02*
X3446Y1391D01*
X3479Y1391D02*
X3546Y1391D01*
X3580Y1391D02*
X3646Y1391D01*
X3679Y1391D02*
X3746Y1391D01*
X5193Y1391D02*
X5215Y1391D01*
X5242Y1391D02*
X5264Y1391D01*
X3379Y1390D02*
X3446Y1390D01*
X3479Y1390D02*
X3546Y1390D01*
X3579Y1390D02*
X3646Y1390D01*
X3679Y1390D02*
X3746Y1390D01*
X5193Y1390D02*
X5215Y1390D01*
X5242Y1390D02*
X5264Y1390D01*
X3379Y1389D02*
X3446Y1389D01*
X3479Y1389D02*
X3546Y1389D01*
X3579Y1389D02*
X3646Y1389D01*
X3679Y1389D02*
X3746Y1389D01*
X5193Y1389D02*
X5215Y1389D01*
X5243Y1389D02*
X5264Y1389D01*
X3379Y1388D02*
X3446Y1388D01*
X3479Y1388D02*
X3546Y1388D01*
X3579Y1388D02*
X3646Y1388D01*
X3679Y1388D02*
X3746Y1388D01*
X5193Y1388D02*
X5215Y1388D01*
X5243Y1388D02*
X5264Y1388D01*
X3379Y1387D02*
X3446Y1387D01*
X3479Y1387D02*
X3546Y1387D01*
X3579Y1387D02*
X3646Y1387D01*
X3679Y1387D02*
X3746Y1387D01*
X5193Y1387D02*
X5215Y1387D01*
X5242Y1387D02*
X5264Y1387D01*
X3378Y1386D02*
X3447Y1386D01*
X3478Y1386D02*
X3547Y1386D01*
X3578Y1386D02*
X3647Y1386D01*
X3678Y1386D02*
X3747Y1386D01*
X5193Y1386D02*
X5215Y1386D01*
X5242Y1386D02*
X5264Y1386D01*
X3378Y1385D02*
X3447Y1385D01*
X3478Y1385D02*
X3547Y1385D01*
X3578Y1385D02*
X3647Y1385D01*
X3678Y1385D02*
X3747Y1385D01*
X5193Y1385D02*
X5215Y1385D01*
X5242Y1385D02*
X5264Y1385D01*
X3378Y1384D02*
X3447Y1384D01*
X3478Y1384D02*
X3547Y1384D01*
X3578Y1384D02*
X3647Y1384D01*
X3678Y1384D02*
X3747Y1384D01*
X5193Y1384D02*
X5215Y1384D01*
X5242Y1384D02*
X5264Y1384D01*
X3378Y1383D02*
X3447Y1383D01*
X3478Y1383D02*
X3547Y1383D01*
X3578Y1383D02*
X3647Y1383D01*
X3678Y1383D02*
X3747Y1383D01*
X5194Y1383D02*
X5216Y1383D01*
X5242Y1383D02*
X5264Y1383D01*
X3378Y1382D02*
X3447Y1382D01*
X3478Y1382D02*
X3547Y1382D01*
X3578Y1382D02*
X3647Y1382D01*
X3678Y1382D02*
X3747Y1382D01*
X5194Y1382D02*
X5216Y1382D01*
X5241Y1382D02*
X5263Y1382D01*
X3378Y1381D02*
X3447Y1381D01*
X3478Y1381D02*
X3547Y1381D01*
X3578Y1381D02*
X3647Y1381D01*
X3678Y1381D02*
X3747Y1381D01*
X5194Y1381D02*
X5217Y1381D01*
X5240Y1381D02*
X5263Y1381D01*
X3378Y1380D02*
X3447Y1380D01*
X3478Y1380D02*
X3547Y1380D01*
X3578Y1380D02*
X3647Y1380D01*
X3678Y1380D02*
X3747Y1380D01*
X5194Y1380D02*
X5217Y1380D01*
X5240Y1380D02*
X5263Y1380D01*
X3378Y1379D02*
X3447Y1379D01*
X3478Y1379D02*
X3547Y1379D01*
X3578Y1379D02*
X3647Y1379D01*
X3678Y1379D02*
X3747Y1379D01*
X5194Y1379D02*
X5218Y1379D01*
X5239Y1379D02*
X5263Y1379D01*
X3378Y1378D02*
X3447Y1378D01*
X3478Y1378D02*
X3547Y1378D01*
X3578Y1378D02*
X3647Y1378D01*
X3678Y1378D02*
X3747Y1378D01*
X5195Y1378D02*
X5219Y1378D01*
X5238Y1378D02*
X5262Y1378D01*
X3378Y1377D02*
X3447Y1377D01*
X3478Y1377D02*
X3547Y1377D01*
X3578Y1377D02*
X3647Y1377D01*
X3678Y1377D02*
X3747Y1377D01*
X5195Y1377D02*
X5221Y1377D01*
X5237Y1377D02*
X5262Y1377D01*
X3378Y1376D02*
X3447Y1376D01*
X3478Y1376D02*
X3547Y1376D01*
X3578Y1376D02*
X3647Y1376D01*
X3678Y1376D02*
X3747Y1376D01*
X5195Y1376D02*
X5222Y1376D01*
X5235Y1376D02*
X5262Y1376D01*
X3379Y1375D02*
X3447Y1375D01*
X3478Y1375D02*
X3547Y1375D01*
X3578Y1375D02*
X3647Y1375D01*
X3678Y1375D02*
X3747Y1375D01*
X5196Y1375D02*
X5226Y1375D01*
X5232Y1375D02*
X5261Y1375D01*
X3379Y1374D02*
X3446Y1374D01*
X3479Y1374D02*
X3546Y1374D01*
X3579Y1374D02*
X3646Y1374D01*
X3679Y1374D02*
X3746Y1374D01*
X5196Y1374D02*
X5261Y1374D01*
X3379Y1373D02*
X3446Y1373D01*
X3479Y1373D02*
X3546Y1373D01*
X3579Y1373D02*
X3646Y1373D01*
X3679Y1373D02*
X3746Y1373D01*
X5197Y1373D02*
X5260Y1373D01*
X3379Y1372D02*
X3446Y1372D01*
X3479Y1372D02*
X3546Y1372D01*
X3579Y1372D02*
X3646Y1372D01*
X3679Y1372D02*
X3746Y1372D01*
X5197Y1372D02*
X5260Y1372D01*
X3379Y1371D02*
X3446Y1371D01*
X3479Y1371D02*
X3546Y1371D01*
X3579Y1371D02*
X3646Y1371D01*
X3679Y1371D02*
X3746Y1371D01*
X5198Y1371D02*
X5260Y1371D01*
X3380Y1370D02*
X3445Y1370D01*
X3480Y1370D02*
X3545Y1370D01*
X3580Y1370D02*
X3645Y1370D01*
X3680Y1370D02*
X3745Y1370D01*
X5198Y1370D02*
X5259Y1370D01*
X3380Y1369D02*
X3445Y1369D01*
X3480Y1369D02*
X3545Y1369D01*
X3580Y1369D02*
X3645Y1369D01*
X3680Y1369D02*
X3745Y1369D01*
X5199Y1369D02*
X5258Y1369D01*
X3380Y1368D02*
X3445Y1368D01*
X3480Y1368D02*
X3545Y1368D01*
X3580Y1368D02*
X3645Y1368D01*
X3680Y1368D02*
X3745Y1368D01*
X5199Y1368D02*
X5258Y1368D01*
X3381Y1367D02*
X3444Y1367D01*
X3481Y1367D02*
X3544Y1367D01*
X3581Y1367D02*
X3644Y1367D01*
X3681Y1367D02*
X3744Y1367D01*
X5200Y1367D02*
X5257Y1367D01*
X3381Y1366D02*
X3444Y1366D01*
X3481Y1366D02*
X3544Y1366D01*
X3581Y1366D02*
X3644Y1366D01*
X3681Y1366D02*
X3744Y1366D01*
X5201Y1366D02*
X5256Y1366D01*
X3382Y1365D02*
X3443Y1365D01*
X3482Y1365D02*
X3543Y1365D01*
X3582Y1365D02*
X3643Y1365D01*
X3682Y1365D02*
X3743Y1365D01*
X5202Y1365D02*
X5255Y1365D01*
X3382Y1364D02*
X3443Y1364D01*
X3482Y1364D02*
X3543Y1364D01*
X3582Y1364D02*
X3643Y1364D01*
X3682Y1364D02*
X3743Y1364D01*
X5203Y1364D02*
X5255Y1364D01*
X3383Y1363D02*
X3442Y1363D01*
X3483Y1363D02*
X3542Y1363D01*
X3583Y1363D02*
X3642Y1363D01*
X3683Y1363D02*
X3742Y1363D01*
X5204Y1363D02*
X5254Y1363D01*
X3383Y1362D02*
X3442Y1362D01*
X3483Y1362D02*
X3542Y1362D01*
X3583Y1362D02*
X3642Y1362D01*
X3683Y1362D02*
X3742Y1362D01*
X5205Y1362D02*
X5253Y1362D01*
X3384Y1361D02*
X3441Y1361D01*
X3484Y1361D02*
X3541Y1361D01*
X3584Y1361D02*
X3641Y1361D01*
X3684Y1361D02*
X3741Y1361D01*
X5206Y1361D02*
X5251Y1361D01*
X3385Y1360D02*
X3440Y1360D01*
X3485Y1360D02*
X3540Y1360D01*
X3585Y1360D02*
X3640Y1360D01*
X3685Y1360D02*
X3740Y1360D01*
X5207Y1360D02*
X5250Y1360D01*
X3386Y1359D02*
X3439Y1359D01*
X3486Y1359D02*
X3539Y1359D01*
X3586Y1359D02*
X3639Y1359D01*
X3686Y1359D02*
X3739Y1359D01*
X5208Y1359D02*
X5249Y1359D01*
X3386Y1358D02*
X3439Y1358D01*
X3486Y1358D02*
X3539Y1358D01*
X3586Y1358D02*
X3639Y1358D01*
X3686Y1358D02*
X3739Y1358D01*
X5210Y1358D02*
X5247Y1358D01*
X3387Y1357D02*
X3438Y1357D01*
X3487Y1357D02*
X3538Y1357D01*
X3587Y1357D02*
X3638Y1357D01*
X3687Y1357D02*
X3738Y1357D01*
X5212Y1357D02*
X5246Y1357D01*
X3388Y1356D02*
X3437Y1356D01*
X3488Y1356D02*
X3537Y1356D01*
X3588Y1356D02*
X3637Y1356D01*
X3688Y1356D02*
X3737Y1356D01*
X5214Y1356D02*
X5244Y1356D01*
X3389Y1355D02*
X3436Y1355D01*
X3489Y1355D02*
X3536Y1355D01*
X3589Y1355D02*
X3636Y1355D01*
X3689Y1355D02*
X3736Y1355D01*
X5216Y1355D02*
X5241Y1355D01*
X3390Y1354D02*
X3435Y1354D01*
X3490Y1354D02*
X3535Y1354D01*
X3590Y1354D02*
X3635Y1354D01*
X3690Y1354D02*
X3735Y1354D01*
X5219Y1354D02*
X5239Y1354D01*
X3392Y1353D02*
X3433Y1353D01*
X3492Y1353D02*
X3533Y1353D01*
X3592Y1353D02*
X3633Y1353D01*
X3692Y1353D02*
X3733Y1353D01*
X5223Y1353D02*
X5235Y1353D01*
X3393Y1352D02*
X3432Y1352D01*
X3493Y1352D02*
X3532Y1352D01*
X3593Y1352D02*
X3632Y1352D01*
X3693Y1352D02*
X3732Y1352D01*
X3395Y1351D02*
X3430Y1351D01*
X3495Y1351D02*
X3530Y1351D01*
X3595Y1351D02*
X3630Y1351D01*
X3695Y1351D02*
X3730Y1351D01*
X3396Y1350D02*
X3429Y1350D01*
X3496Y1350D02*
X3529Y1350D01*
X3596Y1350D02*
X3629Y1350D01*
X3696Y1350D02*
X3729Y1350D01*
X3398Y1349D02*
X3427Y1349D01*
X3498Y1349D02*
X3527Y1349D01*
X3598Y1349D02*
X3627Y1349D01*
X3698Y1349D02*
X3727Y1349D01*
X3401Y1348D02*
X3424Y1348D01*
X3501Y1348D02*
X3524Y1348D01*
X3601Y1348D02*
X3624Y1348D01*
X3701Y1348D02*
X3724Y1348D01*
X3404Y1347D02*
X3421Y1347D01*
X3504Y1347D02*
X3521Y1347D01*
X3604Y1347D02*
X3621Y1347D01*
X3704Y1347D02*
X3721Y1347D01*
X3409Y1346D02*
X3416Y1346D01*
X3509Y1346D02*
X3516Y1346D01*
X3609Y1346D02*
X3616Y1346D01*
X3709Y1346D02*
X3716Y1346D01*
X5225Y1324D02*
X5232Y1324D01*
X5220Y1323D02*
X5237Y1323D01*
X5217Y1322D02*
X5240Y1322D01*
X5214Y1321D02*
X5243Y1321D01*
X5212Y1320D02*
X5245Y1320D01*
X5211Y1319D02*
X5247Y1319D01*
X5209Y1318D02*
X5248Y1318D01*
X5208Y1317D02*
X5250Y1317D01*
X5206Y1316D02*
X5251Y1316D01*
X5205Y1315D02*
X5252Y1315D01*
X5204Y1314D02*
X5253Y1314D01*
X5203Y1313D02*
X5254Y1313D01*
X5202Y1312D02*
X5255Y1312D01*
X5201Y1311D02*
X5256Y1311D01*
X5201Y1310D02*
X5257Y1310D01*
X5200Y1309D02*
X5257Y1309D01*
X5199Y1308D02*
X5258Y1308D01*
X5199Y1307D02*
X5259Y1307D01*
X5198Y1306D02*
X5259Y1306D01*
X5197Y1305D02*
X5260Y1305D01*
X5197Y1304D02*
X5260Y1304D01*
X5196Y1303D02*
X5261Y1303D01*
X5196Y1302D02*
X5261Y1302D01*
X5196Y1301D02*
X5223Y1301D01*
X5234Y1301D02*
X5262Y1301D01*
X5195Y1300D02*
X5221Y1300D01*
X5236Y1300D02*
X5262Y1300D01*
X5195Y1299D02*
X5220Y1299D01*
X5237Y1299D02*
X5262Y1299D01*
X5195Y1298D02*
X5219Y1298D01*
X5238Y1298D02*
X5263Y1298D01*
X5194Y1297D02*
X5218Y1297D01*
X5239Y1297D02*
X5263Y1297D01*
X5194Y1296D02*
X5217Y1296D01*
X5240Y1296D02*
X5263Y1296D01*
X5194Y1295D02*
X5216Y1295D01*
X5241Y1295D02*
X5263Y1295D01*
X5194Y1294D02*
X5216Y1294D01*
X5241Y1294D02*
X5263Y1294D01*
X5193Y1293D02*
X5215Y1293D01*
X5242Y1293D02*
X5264Y1293D01*
X5193Y1292D02*
X5215Y1292D01*
X5242Y1292D02*
X5264Y1292D01*
X5193Y1291D02*
X5215Y1291D01*
X5242Y1291D02*
X5264Y1291D01*
X5193Y1290D02*
X5215Y1290D01*
X5242Y1290D02*
X5264Y1290D01*
X5193Y1289D02*
X5215Y1289D01*
X5243Y1289D02*
X5264Y1289D01*
X5193Y1288D02*
X5215Y1288D01*
X5243Y1288D02*
X5264Y1288D01*
X5193Y1287D02*
X5215Y1287D01*
X5242Y1287D02*
X5264Y1287D01*
X5193Y1286D02*
X5215Y1286D01*
X5242Y1286D02*
X5264Y1286D01*
X5193Y1285D02*
X5215Y1285D01*
X5242Y1285D02*
X5264Y1285D01*
X5193Y1284D02*
X5215Y1284D01*
X5242Y1284D02*
X5264Y1284D01*
X5194Y1283D02*
X5216Y1283D01*
X5242Y1283D02*
X5264Y1283D01*
X5194Y1282D02*
X5216Y1282D01*
X5241Y1282D02*
X5263Y1282D01*
X5194Y1281D02*
X5217Y1281D01*
X5240Y1281D02*
X5263Y1281D01*
X5194Y1280D02*
X5217Y1280D01*
X5240Y1280D02*
X5263Y1280D01*
X5194Y1279D02*
X5218Y1279D01*
X5239Y1279D02*
X5263Y1279D01*
X5195Y1278D02*
X5219Y1278D01*
X5238Y1278D02*
X5262Y1278D01*
X5195Y1277D02*
X5221Y1277D01*
X5237Y1277D02*
X5262Y1277D01*
X5195Y1276D02*
X5222Y1276D01*
X5235Y1276D02*
X5262Y1276D01*
X5196Y1275D02*
X5226Y1275D01*
X5231Y1275D02*
X5261Y1275D01*
X5196Y1274D02*
X5261Y1274D01*
X5197Y1273D02*
X5260Y1273D01*
X5197Y1272D02*
X5260Y1272D01*
X5198Y1271D02*
X5259Y1271D01*
X5198Y1270D02*
X5259Y1270D01*
X5199Y1269D02*
X5258Y1269D01*
X5199Y1268D02*
X5258Y1268D01*
X5200Y1267D02*
X5257Y1267D01*
X4333Y1266D02*
X4348Y1266D01*
X5201Y1266D02*
X5256Y1266D01*
X4330Y1265D02*
X4351Y1265D01*
X5202Y1265D02*
X5255Y1265D01*
X4327Y1264D02*
X4354Y1264D01*
X5203Y1264D02*
X5255Y1264D01*
X4325Y1263D02*
X4356Y1263D01*
X5204Y1263D02*
X5254Y1263D01*
X4323Y1262D02*
X4358Y1262D01*
X5205Y1262D02*
X5253Y1262D01*
X4321Y1261D02*
X4360Y1261D01*
X5206Y1261D02*
X5251Y1261D01*
X4320Y1260D02*
X4361Y1260D01*
X5207Y1260D02*
X5250Y1260D01*
X4318Y1259D02*
X4362Y1259D01*
X5208Y1259D02*
X5249Y1259D01*
X4317Y1258D02*
X4364Y1258D01*
X5210Y1258D02*
X5247Y1258D01*
X4316Y1257D02*
X4365Y1257D01*
X5212Y1257D02*
X5246Y1257D01*
X4315Y1256D02*
X4366Y1256D01*
X5214Y1256D02*
X5244Y1256D01*
X4314Y1255D02*
X4367Y1255D01*
X5216Y1255D02*
X5241Y1255D01*
X4313Y1254D02*
X4368Y1254D01*
X5219Y1254D02*
X5239Y1254D01*
X4313Y1253D02*
X4368Y1253D01*
X5223Y1253D02*
X5234Y1253D01*
X4312Y1252D02*
X4369Y1252D01*
X4311Y1251D02*
X4370Y1251D01*
X4311Y1250D02*
X4370Y1250D01*
X4310Y1249D02*
X4371Y1249D01*
X4309Y1248D02*
X4372Y1248D01*
X4309Y1247D02*
X4372Y1247D01*
X4308Y1246D02*
X4372Y1246D01*
X4308Y1245D02*
X4373Y1245D01*
X4308Y1244D02*
X4336Y1244D01*
X4345Y1244D02*
X4373Y1244D01*
X4307Y1243D02*
X4334Y1243D01*
X4347Y1243D02*
X4374Y1243D01*
X4307Y1242D02*
X4332Y1242D01*
X4349Y1242D02*
X4374Y1242D01*
X4306Y1241D02*
X4331Y1241D01*
X4350Y1241D02*
X4374Y1241D01*
X4306Y1240D02*
X4330Y1240D01*
X4351Y1240D02*
X4375Y1240D01*
X4306Y1239D02*
X4329Y1239D01*
X4352Y1239D02*
X4375Y1239D01*
X4306Y1238D02*
X4328Y1238D01*
X4353Y1238D02*
X4375Y1238D01*
X4306Y1237D02*
X4328Y1237D01*
X4353Y1237D02*
X4375Y1237D01*
X4305Y1236D02*
X4327Y1236D01*
X4354Y1236D02*
X4375Y1236D01*
X4305Y1235D02*
X4327Y1235D01*
X4354Y1235D02*
X4376Y1235D01*
X4305Y1234D02*
X4327Y1234D01*
X4354Y1234D02*
X4376Y1234D01*
X4305Y1233D02*
X4327Y1233D01*
X4354Y1233D02*
X4376Y1233D01*
X4305Y1232D02*
X4327Y1232D01*
X4354Y1232D02*
X4376Y1232D01*
X4305Y1231D02*
X4326Y1231D01*
X4354Y1231D02*
X4376Y1231D01*
X4305Y1230D02*
X4327Y1230D01*
X4354Y1230D02*
X4376Y1230D01*
X4305Y1229D02*
X4327Y1229D01*
X4354Y1229D02*
X4376Y1229D01*
X4305Y1228D02*
X4327Y1228D01*
X4354Y1228D02*
X4376Y1228D01*
X4305Y1227D02*
X4327Y1227D01*
X4354Y1227D02*
X4376Y1227D01*
X4305Y1226D02*
X4327Y1226D01*
X4354Y1226D02*
X4375Y1226D01*
X4306Y1225D02*
X4328Y1225D01*
X4353Y1225D02*
X4375Y1225D01*
X4306Y1224D02*
X4328Y1224D01*
X4353Y1224D02*
X4375Y1224D01*
X5225Y1224D02*
X5232Y1224D01*
X4306Y1223D02*
X4329Y1223D01*
X4352Y1223D02*
X4375Y1223D01*
X5220Y1223D02*
X5237Y1223D01*
X4306Y1222D02*
X4330Y1222D01*
X4351Y1222D02*
X4375Y1222D01*
X5217Y1222D02*
X5240Y1222D01*
X4306Y1221D02*
X4331Y1221D01*
X4350Y1221D02*
X4374Y1221D01*
X5214Y1221D02*
X5243Y1221D01*
X4307Y1220D02*
X4332Y1220D01*
X4349Y1220D02*
X4374Y1220D01*
X5212Y1220D02*
X5245Y1220D01*
X4307Y1219D02*
X4334Y1219D01*
X4347Y1219D02*
X4374Y1219D01*
X5211Y1219D02*
X5247Y1219D01*
X4308Y1218D02*
X4336Y1218D01*
X4345Y1218D02*
X4373Y1218D01*
X5209Y1218D02*
X5248Y1218D01*
X4308Y1217D02*
X4373Y1217D01*
X5207Y1217D02*
X5250Y1217D01*
X4308Y1216D02*
X4372Y1216D01*
X5206Y1216D02*
X5251Y1216D01*
X4309Y1215D02*
X4372Y1215D01*
X5205Y1215D02*
X5252Y1215D01*
X4309Y1214D02*
X4372Y1214D01*
X5204Y1214D02*
X5253Y1214D01*
X4310Y1213D02*
X4371Y1213D01*
X5203Y1213D02*
X5254Y1213D01*
X4311Y1212D02*
X4370Y1212D01*
X5202Y1212D02*
X5255Y1212D01*
X4311Y1211D02*
X4370Y1211D01*
X5201Y1211D02*
X5256Y1211D01*
X4312Y1210D02*
X4369Y1210D01*
X5200Y1210D02*
X5257Y1210D01*
X4313Y1209D02*
X4368Y1209D01*
X5200Y1209D02*
X5257Y1209D01*
X4313Y1208D02*
X4368Y1208D01*
X5199Y1208D02*
X5258Y1208D01*
X4314Y1207D02*
X4367Y1207D01*
X5198Y1207D02*
X5259Y1207D01*
X4315Y1206D02*
X4366Y1206D01*
X5198Y1206D02*
X5259Y1206D01*
X4316Y1205D02*
X4365Y1205D01*
X5197Y1205D02*
X5260Y1205D01*
X4317Y1204D02*
X4364Y1204D01*
X5197Y1204D02*
X5260Y1204D01*
X4318Y1203D02*
X4362Y1203D01*
X5196Y1203D02*
X5261Y1203D01*
X4320Y1202D02*
X4361Y1202D01*
X5196Y1202D02*
X5261Y1202D01*
X4321Y1201D02*
X4360Y1201D01*
X5196Y1201D02*
X5223Y1201D01*
X5234Y1201D02*
X5262Y1201D01*
X4323Y1200D02*
X4358Y1200D01*
X5195Y1200D02*
X5221Y1200D01*
X5236Y1200D02*
X5262Y1200D01*
X4325Y1199D02*
X4356Y1199D01*
X5195Y1199D02*
X5220Y1199D01*
X5237Y1199D02*
X5262Y1199D01*
X4327Y1198D02*
X4354Y1198D01*
X5195Y1198D02*
X5219Y1198D01*
X5238Y1198D02*
X5263Y1198D01*
X4330Y1197D02*
X4351Y1197D01*
X5194Y1197D02*
X5218Y1197D01*
X5239Y1197D02*
X5263Y1197D01*
X4333Y1196D02*
X4348Y1196D01*
X5194Y1196D02*
X5217Y1196D01*
X5240Y1196D02*
X5263Y1196D01*
X5194Y1195D02*
X5216Y1195D01*
X5241Y1195D02*
X5263Y1195D01*
X5194Y1194D02*
X5216Y1194D01*
X5241Y1194D02*
X5263Y1194D01*
X5193Y1193D02*
X5215Y1193D01*
X5242Y1193D02*
X5264Y1193D01*
X5193Y1192D02*
X5215Y1192D01*
X5242Y1192D02*
X5264Y1192D01*
X5193Y1191D02*
X5215Y1191D01*
X5242Y1191D02*
X5264Y1191D01*
X5193Y1190D02*
X5215Y1190D01*
X5242Y1190D02*
X5264Y1190D01*
X5193Y1189D02*
X5215Y1189D01*
X5243Y1189D02*
X5264Y1189D01*
X5193Y1188D02*
X5215Y1188D01*
X5243Y1188D02*
X5264Y1188D01*
X5193Y1187D02*
X5215Y1187D01*
X5242Y1187D02*
X5264Y1187D01*
X5193Y1186D02*
X5215Y1186D01*
X5242Y1186D02*
X5264Y1186D01*
X5193Y1185D02*
X5215Y1185D01*
X5242Y1185D02*
X5264Y1185D01*
X5193Y1184D02*
X5215Y1184D01*
X5242Y1184D02*
X5264Y1184D01*
X5194Y1183D02*
X5216Y1183D01*
X5242Y1183D02*
X5264Y1183D01*
X5194Y1182D02*
X5216Y1182D01*
X5241Y1182D02*
X5263Y1182D01*
X5194Y1181D02*
X5217Y1181D01*
X5240Y1181D02*
X5263Y1181D01*
X5194Y1180D02*
X5217Y1180D01*
X5240Y1180D02*
X5263Y1180D01*
X5194Y1179D02*
X5218Y1179D01*
X5239Y1179D02*
X5263Y1179D01*
X5195Y1178D02*
X5219Y1178D01*
X5238Y1178D02*
X5262Y1178D01*
X5195Y1177D02*
X5221Y1177D01*
X5236Y1177D02*
X5262Y1177D01*
X5195Y1176D02*
X5222Y1176D01*
X5235Y1176D02*
X5262Y1176D01*
X5196Y1175D02*
X5226Y1175D01*
X5231Y1175D02*
X5261Y1175D01*
X5196Y1174D02*
X5261Y1174D01*
X5197Y1173D02*
X5260Y1173D01*
X5197Y1172D02*
X5260Y1172D01*
X5198Y1171D02*
X5259Y1171D01*
X5198Y1170D02*
X5259Y1170D01*
X5199Y1169D02*
X5258Y1169D01*
X5200Y1168D02*
X5258Y1168D01*
X5200Y1167D02*
X5257Y1167D01*
X4333Y1166D02*
X4348Y1166D01*
X5201Y1166D02*
X5256Y1166D01*
X4329Y1165D02*
X4351Y1165D01*
X5202Y1165D02*
X5255Y1165D01*
X4327Y1164D02*
X4354Y1164D01*
X5203Y1164D02*
X5254Y1164D01*
X4325Y1163D02*
X4356Y1163D01*
X5204Y1163D02*
X5254Y1163D01*
X4323Y1162D02*
X4358Y1162D01*
X5205Y1162D02*
X5252Y1162D01*
X4321Y1161D02*
X4360Y1161D01*
X5206Y1161D02*
X5251Y1161D01*
X4320Y1160D02*
X4361Y1160D01*
X5207Y1160D02*
X5250Y1160D01*
X4318Y1159D02*
X4362Y1159D01*
X5208Y1159D02*
X5249Y1159D01*
X4317Y1158D02*
X4364Y1158D01*
X5210Y1158D02*
X5247Y1158D01*
X4316Y1157D02*
X4365Y1157D01*
X5212Y1157D02*
X5246Y1157D01*
X4315Y1156D02*
X4366Y1156D01*
X5214Y1156D02*
X5244Y1156D01*
X4314Y1155D02*
X4367Y1155D01*
X5216Y1155D02*
X5241Y1155D01*
X4313Y1154D02*
X4368Y1154D01*
X5219Y1154D02*
X5238Y1154D01*
X4313Y1153D02*
X4368Y1153D01*
X5223Y1153D02*
X5234Y1153D01*
X4312Y1152D02*
X4369Y1152D01*
X4311Y1151D02*
X4370Y1151D01*
X4310Y1150D02*
X4370Y1150D01*
X4310Y1149D02*
X4371Y1149D01*
X4309Y1148D02*
X4372Y1148D01*
X4309Y1147D02*
X4372Y1147D01*
X4308Y1146D02*
X4372Y1146D01*
X4308Y1145D02*
X4373Y1145D01*
X4308Y1144D02*
X4336Y1144D01*
X4345Y1144D02*
X4373Y1144D01*
X4307Y1143D02*
X4334Y1143D01*
X4347Y1143D02*
X4374Y1143D01*
X4307Y1142D02*
X4332Y1142D01*
X4349Y1142D02*
X4374Y1142D01*
X4306Y1141D02*
X4331Y1141D01*
X4350Y1141D02*
X4374Y1141D01*
X4306Y1140D02*
X4330Y1140D01*
X4351Y1140D02*
X4375Y1140D01*
X4306Y1139D02*
X4329Y1139D01*
X4352Y1139D02*
X4375Y1139D01*
X4306Y1138D02*
X4328Y1138D01*
X4353Y1138D02*
X4375Y1138D01*
X4306Y1137D02*
X4328Y1137D01*
X4353Y1137D02*
X4375Y1137D01*
X4305Y1136D02*
X4327Y1136D01*
X4354Y1136D02*
X4375Y1136D01*
X4305Y1135D02*
X4327Y1135D01*
X4354Y1135D02*
X4376Y1135D01*
X4305Y1134D02*
X4327Y1134D01*
X4354Y1134D02*
X4376Y1134D01*
X4305Y1133D02*
X4327Y1133D01*
X4354Y1133D02*
X4376Y1133D01*
X4305Y1132D02*
X4327Y1132D01*
X4354Y1132D02*
X4376Y1132D01*
X4305Y1131D02*
X4326Y1131D01*
X4354Y1131D02*
X4376Y1131D01*
X4305Y1130D02*
X4327Y1130D01*
X4354Y1130D02*
X4376Y1130D01*
X4305Y1129D02*
X4327Y1129D01*
X4354Y1129D02*
X4376Y1129D01*
X4305Y1128D02*
X4327Y1128D01*
X4354Y1128D02*
X4376Y1128D01*
X4305Y1127D02*
X4327Y1127D01*
X4354Y1127D02*
X4376Y1127D01*
X4305Y1126D02*
X4327Y1126D01*
X4354Y1126D02*
X4375Y1126D01*
X4306Y1125D02*
X4328Y1125D01*
X4353Y1125D02*
X4375Y1125D01*
X4306Y1124D02*
X4328Y1124D01*
X4352Y1124D02*
X4375Y1124D01*
X4306Y1123D02*
X4329Y1123D01*
X4352Y1123D02*
X4375Y1123D01*
X4306Y1122D02*
X4330Y1122D01*
X4351Y1122D02*
X4375Y1122D01*
X4306Y1121D02*
X4331Y1121D01*
X4350Y1121D02*
X4374Y1121D01*
X4307Y1120D02*
X4332Y1120D01*
X4349Y1120D02*
X4374Y1120D01*
X4307Y1119D02*
X4334Y1119D01*
X4347Y1119D02*
X4374Y1119D01*
X4308Y1118D02*
X4336Y1118D01*
X4345Y1118D02*
X4373Y1118D01*
X4308Y1117D02*
X4373Y1117D01*
X4308Y1116D02*
X4372Y1116D01*
X5306Y1116D02*
X5319Y1116D01*
X4309Y1115D02*
X4372Y1115D01*
X5302Y1115D02*
X5323Y1115D01*
X4309Y1114D02*
X4371Y1114D01*
X5299Y1114D02*
X5325Y1114D01*
X4310Y1113D02*
X4371Y1113D01*
X5297Y1113D02*
X5328Y1113D01*
X4311Y1112D02*
X4370Y1112D01*
X5295Y1112D02*
X5330Y1112D01*
X4311Y1111D02*
X4370Y1111D01*
X5293Y1111D02*
X5331Y1111D01*
X4312Y1110D02*
X4369Y1110D01*
X5292Y1110D02*
X5333Y1110D01*
X4313Y1109D02*
X4368Y1109D01*
X5291Y1109D02*
X5334Y1109D01*
X4313Y1108D02*
X4367Y1108D01*
X5289Y1108D02*
X5335Y1108D01*
X4314Y1107D02*
X4367Y1107D01*
X5288Y1107D02*
X5336Y1107D01*
X4315Y1106D02*
X4366Y1106D01*
X5287Y1106D02*
X5337Y1106D01*
X4316Y1105D02*
X4365Y1105D01*
X5286Y1105D02*
X5338Y1105D01*
X4317Y1104D02*
X4364Y1104D01*
X5285Y1104D02*
X5339Y1104D01*
X4319Y1103D02*
X4362Y1103D01*
X5285Y1103D02*
X5340Y1103D01*
X4320Y1102D02*
X4361Y1102D01*
X5284Y1102D02*
X5341Y1102D01*
X4321Y1101D02*
X4360Y1101D01*
X5283Y1101D02*
X5342Y1101D01*
X4323Y1100D02*
X4358Y1100D01*
X5283Y1100D02*
X5342Y1100D01*
X4325Y1099D02*
X4356Y1099D01*
X5282Y1099D02*
X5343Y1099D01*
X4327Y1098D02*
X4354Y1098D01*
X5281Y1098D02*
X5343Y1098D01*
X4330Y1097D02*
X4351Y1097D01*
X5281Y1097D02*
X5344Y1097D01*
X4333Y1096D02*
X4348Y1096D01*
X5280Y1096D02*
X5344Y1096D01*
X5280Y1095D02*
X5345Y1095D01*
X5279Y1094D02*
X5309Y1094D01*
X5316Y1094D02*
X5345Y1094D01*
X5279Y1093D02*
X5306Y1093D01*
X5319Y1093D02*
X5346Y1093D01*
X5279Y1092D02*
X5304Y1092D01*
X5320Y1092D02*
X5346Y1092D01*
X5278Y1091D02*
X5303Y1091D01*
X5322Y1091D02*
X5346Y1091D01*
X5278Y1090D02*
X5302Y1090D01*
X5323Y1090D02*
X5346Y1090D01*
X5278Y1089D02*
X5301Y1089D01*
X5324Y1089D02*
X5347Y1089D01*
X5278Y1088D02*
X5300Y1088D01*
X5324Y1088D02*
X5347Y1088D01*
X5277Y1087D02*
X5300Y1087D01*
X5325Y1087D02*
X5347Y1087D01*
X5277Y1086D02*
X5299Y1086D01*
X5325Y1086D02*
X5347Y1086D01*
X5277Y1085D02*
X5299Y1085D01*
X5326Y1085D02*
X5347Y1085D01*
X5277Y1084D02*
X5299Y1084D01*
X5326Y1084D02*
X5348Y1084D01*
X5277Y1083D02*
X5298Y1083D01*
X5326Y1083D02*
X5348Y1083D01*
X5277Y1082D02*
X5298Y1082D01*
X5326Y1082D02*
X5348Y1082D01*
X5277Y1081D02*
X5298Y1081D01*
X5326Y1081D02*
X5348Y1081D01*
X5277Y1080D02*
X5298Y1080D01*
X5326Y1080D02*
X5348Y1080D01*
X5277Y1079D02*
X5298Y1079D01*
X5326Y1079D02*
X5348Y1079D01*
X5277Y1078D02*
X5299Y1078D01*
X5326Y1078D02*
X5348Y1078D01*
X5277Y1077D02*
X5299Y1077D01*
X5326Y1077D02*
X5348Y1077D01*
X5277Y1076D02*
X5299Y1076D01*
X5325Y1076D02*
X5347Y1076D01*
X5277Y1075D02*
X5300Y1075D01*
X5325Y1075D02*
X5347Y1075D01*
X5278Y1074D02*
X5300Y1074D01*
X5324Y1074D02*
X5347Y1074D01*
X5278Y1073D02*
X5301Y1073D01*
X5324Y1073D02*
X5347Y1073D01*
X5278Y1072D02*
X5302Y1072D01*
X5323Y1072D02*
X5347Y1072D01*
X5278Y1071D02*
X5303Y1071D01*
X5322Y1071D02*
X5346Y1071D01*
X5279Y1070D02*
X5304Y1070D01*
X5321Y1070D02*
X5346Y1070D01*
X5279Y1069D02*
X5305Y1069D01*
X5319Y1069D02*
X5346Y1069D01*
X5279Y1068D02*
X5308Y1068D01*
X5317Y1068D02*
X5345Y1068D01*
X5280Y1067D02*
X5345Y1067D01*
X4333Y1066D02*
X4348Y1066D01*
X5280Y1066D02*
X5344Y1066D01*
X4329Y1065D02*
X4351Y1065D01*
X5281Y1065D02*
X5344Y1065D01*
X4327Y1064D02*
X4354Y1064D01*
X5281Y1064D02*
X5343Y1064D01*
X4325Y1063D02*
X4356Y1063D01*
X5282Y1063D02*
X5343Y1063D01*
X4323Y1062D02*
X4358Y1062D01*
X5282Y1062D02*
X5342Y1062D01*
X4321Y1061D02*
X4360Y1061D01*
X5283Y1061D02*
X5342Y1061D01*
X4320Y1060D02*
X4361Y1060D01*
X5284Y1060D02*
X5341Y1060D01*
X4318Y1059D02*
X4362Y1059D01*
X5284Y1059D02*
X5340Y1059D01*
X4317Y1058D02*
X4364Y1058D01*
X5285Y1058D02*
X5340Y1058D01*
X4316Y1057D02*
X4365Y1057D01*
X5286Y1057D02*
X5339Y1057D01*
X4315Y1056D02*
X4366Y1056D01*
X5287Y1056D02*
X5338Y1056D01*
X4314Y1055D02*
X4367Y1055D01*
X5288Y1055D02*
X5337Y1055D01*
X4313Y1054D02*
X4368Y1054D01*
X5289Y1054D02*
X5336Y1054D01*
X4313Y1053D02*
X4368Y1053D01*
X5290Y1053D02*
X5335Y1053D01*
X4312Y1052D02*
X4369Y1052D01*
X5291Y1052D02*
X5333Y1052D01*
X4311Y1051D02*
X4370Y1051D01*
X5293Y1051D02*
X5332Y1051D01*
X4310Y1050D02*
X4370Y1050D01*
X5295Y1050D02*
X5330Y1050D01*
X4310Y1049D02*
X4371Y1049D01*
X5296Y1049D02*
X5328Y1049D01*
X4309Y1048D02*
X4372Y1048D01*
X5298Y1048D02*
X5326Y1048D01*
X4309Y1047D02*
X4372Y1047D01*
X5301Y1047D02*
X5324Y1047D01*
X4308Y1046D02*
X4373Y1046D01*
X5304Y1046D02*
X5320Y1046D01*
X4308Y1045D02*
X4373Y1045D01*
X5311Y1045D02*
X5314Y1045D01*
X4308Y1044D02*
X4336Y1044D01*
X4345Y1044D02*
X4373Y1044D01*
X4307Y1043D02*
X4334Y1043D01*
X4347Y1043D02*
X4374Y1043D01*
X4307Y1042D02*
X4332Y1042D01*
X4349Y1042D02*
X4374Y1042D01*
X4306Y1041D02*
X4331Y1041D01*
X4350Y1041D02*
X4374Y1041D01*
X4306Y1040D02*
X4330Y1040D01*
X4351Y1040D02*
X4375Y1040D01*
X4306Y1039D02*
X4329Y1039D01*
X4352Y1039D02*
X4375Y1039D01*
X4306Y1038D02*
X4328Y1038D01*
X4353Y1038D02*
X4375Y1038D01*
X4306Y1037D02*
X4328Y1037D01*
X4353Y1037D02*
X4375Y1037D01*
X4305Y1036D02*
X4327Y1036D01*
X4354Y1036D02*
X4375Y1036D01*
X4305Y1035D02*
X4327Y1035D01*
X4354Y1035D02*
X4376Y1035D01*
X4305Y1034D02*
X4327Y1034D01*
X4354Y1034D02*
X4376Y1034D01*
X4305Y1033D02*
X4327Y1033D01*
X4354Y1033D02*
X4376Y1033D01*
X4305Y1032D02*
X4327Y1032D01*
X4354Y1032D02*
X4376Y1032D01*
X4305Y1031D02*
X4326Y1031D01*
X4354Y1031D02*
X4376Y1031D01*
X4305Y1030D02*
X4327Y1030D01*
X4354Y1030D02*
X4376Y1030D01*
X4305Y1029D02*
X4327Y1029D01*
X4354Y1029D02*
X4376Y1029D01*
X4305Y1028D02*
X4327Y1028D01*
X4354Y1028D02*
X4376Y1028D01*
X4305Y1027D02*
X4327Y1027D01*
X4354Y1027D02*
X4376Y1027D01*
X4305Y1026D02*
X4327Y1026D01*
X4354Y1026D02*
X4375Y1026D01*
X4306Y1025D02*
X4328Y1025D01*
X4353Y1025D02*
X4375Y1025D01*
X4306Y1024D02*
X4328Y1024D01*
X4352Y1024D02*
X4375Y1024D01*
X4306Y1023D02*
X4329Y1023D01*
X4352Y1023D02*
X4375Y1023D01*
X4306Y1022D02*
X4330Y1022D01*
X4351Y1022D02*
X4375Y1022D01*
X4307Y1021D02*
X4331Y1021D01*
X4350Y1021D02*
X4374Y1021D01*
X4307Y1020D02*
X4332Y1020D01*
X4349Y1020D02*
X4374Y1020D01*
X4307Y1019D02*
X4334Y1019D01*
X4347Y1019D02*
X4374Y1019D01*
X4308Y1018D02*
X4336Y1018D01*
X4344Y1018D02*
X4373Y1018D01*
X4308Y1017D02*
X4373Y1017D01*
X4308Y1016D02*
X4372Y1016D01*
X5305Y1016D02*
X5319Y1016D01*
X4309Y1015D02*
X4372Y1015D01*
X5302Y1015D02*
X5323Y1015D01*
X4309Y1014D02*
X4371Y1014D01*
X5299Y1014D02*
X5325Y1014D01*
X4310Y1013D02*
X4371Y1013D01*
X5297Y1013D02*
X5328Y1013D01*
X4311Y1012D02*
X4370Y1012D01*
X5295Y1012D02*
X5330Y1012D01*
X4311Y1011D02*
X4370Y1011D01*
X5293Y1011D02*
X5331Y1011D01*
X4312Y1010D02*
X4369Y1010D01*
X5292Y1010D02*
X5333Y1010D01*
X4313Y1009D02*
X4368Y1009D01*
X5291Y1009D02*
X5334Y1009D01*
X4313Y1008D02*
X4367Y1008D01*
X5289Y1008D02*
X5335Y1008D01*
X4314Y1007D02*
X4367Y1007D01*
X5288Y1007D02*
X5336Y1007D01*
X4315Y1006D02*
X4366Y1006D01*
X5287Y1006D02*
X5337Y1006D01*
X4316Y1005D02*
X4365Y1005D01*
X5286Y1005D02*
X5338Y1005D01*
X4317Y1004D02*
X4364Y1004D01*
X5285Y1004D02*
X5339Y1004D01*
X4319Y1003D02*
X4362Y1003D01*
X5285Y1003D02*
X5340Y1003D01*
X4320Y1002D02*
X4361Y1002D01*
X5284Y1002D02*
X5341Y1002D01*
X4321Y1001D02*
X4359Y1001D01*
X5283Y1001D02*
X5342Y1001D01*
X4323Y1000D02*
X4358Y1000D01*
X5282Y1000D02*
X5342Y1000D01*
X4325Y999D02*
X4356Y999D01*
X5282Y999D02*
X5343Y999D01*
X4327Y998D02*
X4354Y998D01*
X5281Y998D02*
X5343Y998D01*
X4330Y997D02*
X4351Y997D01*
X5281Y997D02*
X5344Y997D01*
X4333Y996D02*
X4348Y996D01*
X5280Y996D02*
X5344Y996D01*
X5280Y995D02*
X5345Y995D01*
X5279Y994D02*
X5309Y994D01*
X5316Y994D02*
X5345Y994D01*
X5279Y993D02*
X5306Y993D01*
X5319Y993D02*
X5346Y993D01*
X5279Y992D02*
X5304Y992D01*
X5320Y992D02*
X5346Y992D01*
X5278Y991D02*
X5303Y991D01*
X5322Y991D02*
X5346Y991D01*
X5278Y990D02*
X5302Y990D01*
X5323Y990D02*
X5346Y990D01*
X5278Y989D02*
X5301Y989D01*
X5324Y989D02*
X5347Y989D01*
X5278Y988D02*
X5300Y988D01*
X5324Y988D02*
X5347Y988D01*
X5277Y987D02*
X5300Y987D01*
X5325Y987D02*
X5347Y987D01*
X5277Y986D02*
X5299Y986D01*
X5325Y986D02*
X5347Y986D01*
X5277Y985D02*
X5299Y985D01*
X5326Y985D02*
X5347Y985D01*
X5277Y984D02*
X5299Y984D01*
X5326Y984D02*
X5348Y984D01*
X5277Y983D02*
X5298Y983D01*
X5326Y983D02*
X5348Y983D01*
X5277Y982D02*
X5298Y982D01*
X5326Y982D02*
X5348Y982D01*
X5277Y981D02*
X5298Y981D01*
X5326Y981D02*
X5348Y981D01*
X5277Y980D02*
X5298Y980D01*
X5326Y980D02*
X5348Y980D01*
X5277Y979D02*
X5298Y979D01*
X5326Y979D02*
X5348Y979D01*
X5277Y978D02*
X5299Y978D01*
X5326Y978D02*
X5348Y978D01*
X5277Y977D02*
X5299Y977D01*
X5326Y977D02*
X5348Y977D01*
X5277Y976D02*
X5299Y976D01*
X5325Y976D02*
X5347Y976D01*
X5277Y975D02*
X5300Y975D01*
X5325Y975D02*
X5347Y975D01*
X5278Y974D02*
X5300Y974D01*
X5324Y974D02*
X5347Y974D01*
X5278Y973D02*
X5301Y973D01*
X5324Y973D02*
X5347Y973D01*
X5278Y972D02*
X5302Y972D01*
X5323Y972D02*
X5347Y972D01*
X5278Y971D02*
X5303Y971D01*
X5322Y971D02*
X5346Y971D01*
X5279Y970D02*
X5304Y970D01*
X5321Y970D02*
X5346Y970D01*
X5279Y969D02*
X5305Y969D01*
X5319Y969D02*
X5346Y969D01*
X5279Y968D02*
X5308Y968D01*
X5317Y968D02*
X5345Y968D01*
X4340Y967D02*
X4341Y967D01*
X5280Y967D02*
X5345Y967D01*
X4333Y966D02*
X4348Y966D01*
X5280Y966D02*
X5344Y966D01*
X4329Y965D02*
X4352Y965D01*
X5281Y965D02*
X5344Y965D01*
X4327Y964D02*
X4354Y964D01*
X5281Y964D02*
X5343Y964D01*
X4325Y963D02*
X4356Y963D01*
X5282Y963D02*
X5343Y963D01*
X4323Y962D02*
X4358Y962D01*
X5282Y962D02*
X5342Y962D01*
X4321Y961D02*
X4360Y961D01*
X5283Y961D02*
X5342Y961D01*
X4320Y960D02*
X4361Y960D01*
X5284Y960D02*
X5341Y960D01*
X4318Y959D02*
X4363Y959D01*
X5284Y959D02*
X5340Y959D01*
X4317Y958D02*
X4364Y958D01*
X5285Y958D02*
X5340Y958D01*
X4316Y957D02*
X4365Y957D01*
X5286Y957D02*
X5339Y957D01*
X4315Y956D02*
X4366Y956D01*
X5287Y956D02*
X5338Y956D01*
X4314Y955D02*
X4367Y955D01*
X5288Y955D02*
X5337Y955D01*
X4313Y954D02*
X4368Y954D01*
X5289Y954D02*
X5336Y954D01*
X4313Y953D02*
X4368Y953D01*
X5290Y953D02*
X5334Y953D01*
X4312Y952D02*
X4369Y952D01*
X5292Y952D02*
X5333Y952D01*
X4311Y951D02*
X4370Y951D01*
X5293Y951D02*
X5332Y951D01*
X4310Y950D02*
X4370Y950D01*
X5295Y950D02*
X5330Y950D01*
X4310Y949D02*
X4371Y949D01*
X5296Y949D02*
X5328Y949D01*
X4309Y948D02*
X4372Y948D01*
X5299Y948D02*
X5326Y948D01*
X4309Y947D02*
X4372Y947D01*
X5301Y947D02*
X5324Y947D01*
X4308Y946D02*
X4373Y946D01*
X5304Y946D02*
X5320Y946D01*
X4308Y945D02*
X4373Y945D01*
X5311Y945D02*
X5313Y945D01*
X4307Y944D02*
X4336Y944D01*
X4345Y944D02*
X4373Y944D01*
X4307Y943D02*
X4334Y943D01*
X4347Y943D02*
X4374Y943D01*
X4307Y942D02*
X4332Y942D01*
X4349Y942D02*
X4374Y942D01*
X4306Y941D02*
X4331Y941D01*
X4350Y941D02*
X4374Y941D01*
X4306Y940D02*
X4330Y940D01*
X4351Y940D02*
X4375Y940D01*
X4306Y939D02*
X4329Y939D01*
X4352Y939D02*
X4375Y939D01*
X4306Y938D02*
X4328Y938D01*
X4353Y938D02*
X4375Y938D01*
X4306Y937D02*
X4328Y937D01*
X4353Y937D02*
X4375Y937D01*
X4305Y936D02*
X4327Y936D01*
X4354Y936D02*
X4375Y936D01*
X4305Y935D02*
X4327Y935D01*
X4354Y935D02*
X4376Y935D01*
X4305Y934D02*
X4327Y934D01*
X4354Y934D02*
X4376Y934D01*
X4305Y933D02*
X4327Y933D01*
X4354Y933D02*
X4376Y933D01*
X4305Y932D02*
X4326Y932D01*
X4354Y932D02*
X4376Y932D01*
X4305Y931D02*
X4326Y931D01*
X4354Y931D02*
X4376Y931D01*
X4305Y930D02*
X4327Y930D01*
X4354Y930D02*
X4376Y930D01*
X4305Y929D02*
X4327Y929D01*
X4354Y929D02*
X4376Y929D01*
X4305Y928D02*
X4327Y928D01*
X4354Y928D02*
X4376Y928D01*
X4305Y927D02*
X4327Y927D01*
X4354Y927D02*
X4376Y927D01*
X4305Y926D02*
X4327Y926D01*
X4354Y926D02*
X4375Y926D01*
X4306Y925D02*
X4328Y925D01*
X4353Y925D02*
X4375Y925D01*
X4306Y924D02*
X4328Y924D01*
X4352Y924D02*
X4375Y924D01*
X4306Y923D02*
X4329Y923D01*
X4352Y923D02*
X4375Y923D01*
X4306Y922D02*
X4330Y922D01*
X4351Y922D02*
X4375Y922D01*
X4307Y921D02*
X4331Y921D01*
X4350Y921D02*
X4374Y921D01*
X4307Y920D02*
X4332Y920D01*
X4349Y920D02*
X4374Y920D01*
X4307Y919D02*
X4334Y919D01*
X4347Y919D02*
X4374Y919D01*
X4308Y918D02*
X4336Y918D01*
X4344Y918D02*
X4373Y918D01*
X4308Y917D02*
X4373Y917D01*
X4308Y916D02*
X4372Y916D01*
X5305Y916D02*
X5319Y916D01*
X4309Y915D02*
X4372Y915D01*
X5302Y915D02*
X5323Y915D01*
X4309Y914D02*
X4371Y914D01*
X5299Y914D02*
X5326Y914D01*
X4310Y913D02*
X4371Y913D01*
X5297Y913D02*
X5328Y913D01*
X4311Y912D02*
X4370Y912D01*
X5295Y912D02*
X5330Y912D01*
X4311Y911D02*
X4370Y911D01*
X5293Y911D02*
X5331Y911D01*
X4312Y910D02*
X4369Y910D01*
X5292Y910D02*
X5333Y910D01*
X4313Y909D02*
X4368Y909D01*
X5290Y909D02*
X5334Y909D01*
X4313Y908D02*
X4367Y908D01*
X5289Y908D02*
X5335Y908D01*
X4314Y907D02*
X4367Y907D01*
X5288Y907D02*
X5336Y907D01*
X4315Y906D02*
X4366Y906D01*
X5287Y906D02*
X5338Y906D01*
X4316Y905D02*
X4365Y905D01*
X5286Y905D02*
X5338Y905D01*
X4317Y904D02*
X4363Y904D01*
X5285Y904D02*
X5339Y904D01*
X4319Y903D02*
X4362Y903D01*
X5285Y903D02*
X5340Y903D01*
X4320Y902D02*
X4361Y902D01*
X5284Y902D02*
X5341Y902D01*
X4321Y901D02*
X4359Y901D01*
X5283Y901D02*
X5342Y901D01*
X4323Y900D02*
X4358Y900D01*
X5282Y900D02*
X5342Y900D01*
X4325Y899D02*
X4356Y899D01*
X5282Y899D02*
X5343Y899D01*
X4327Y898D02*
X4354Y898D01*
X5281Y898D02*
X5343Y898D01*
X4330Y897D02*
X4351Y897D01*
X5281Y897D02*
X5344Y897D01*
X4333Y896D02*
X4347Y896D01*
X5280Y896D02*
X5344Y896D01*
X5280Y895D02*
X5345Y895D01*
X5279Y894D02*
X5308Y894D01*
X5316Y894D02*
X5345Y894D01*
X5279Y893D02*
X5306Y893D01*
X5319Y893D02*
X5346Y893D01*
X5279Y892D02*
X5304Y892D01*
X5321Y892D02*
X5346Y892D01*
X5278Y891D02*
X5303Y891D01*
X5322Y891D02*
X5346Y891D01*
X5278Y890D02*
X5302Y890D01*
X5323Y890D02*
X5346Y890D01*
X5278Y889D02*
X5301Y889D01*
X5324Y889D02*
X5347Y889D01*
X5278Y888D02*
X5300Y888D01*
X5324Y888D02*
X5347Y888D01*
X5277Y887D02*
X5300Y887D01*
X5325Y887D02*
X5347Y887D01*
X5277Y886D02*
X5299Y886D01*
X5325Y886D02*
X5347Y886D01*
X5277Y885D02*
X5299Y885D01*
X5326Y885D02*
X5347Y885D01*
X5277Y884D02*
X5299Y884D01*
X5326Y884D02*
X5348Y884D01*
X5277Y883D02*
X5298Y883D01*
X5326Y883D02*
X5348Y883D01*
X5277Y882D02*
X5298Y882D01*
X5326Y882D02*
X5348Y882D01*
X5277Y881D02*
X5298Y881D01*
X5326Y881D02*
X5348Y881D01*
X5277Y880D02*
X5298Y880D01*
X5326Y880D02*
X5348Y880D01*
X5277Y879D02*
X5298Y879D01*
X5326Y879D02*
X5348Y879D01*
X5277Y878D02*
X5299Y878D01*
X5326Y878D02*
X5348Y878D01*
X5277Y877D02*
X5299Y877D01*
X5326Y877D02*
X5348Y877D01*
X5277Y876D02*
X5299Y876D01*
X5325Y876D02*
X5347Y876D01*
X5277Y875D02*
X5300Y875D01*
X5325Y875D02*
X5347Y875D01*
X5278Y874D02*
X5300Y874D01*
X5324Y874D02*
X5347Y874D01*
X5278Y873D02*
X5301Y873D01*
X5324Y873D02*
X5347Y873D01*
X5278Y872D02*
X5302Y872D01*
X5323Y872D02*
X5347Y872D01*
X5278Y871D02*
X5303Y871D01*
X5322Y871D02*
X5346Y871D01*
X5279Y870D02*
X5304Y870D01*
X5321Y870D02*
X5346Y870D01*
X5279Y869D02*
X5305Y869D01*
X5319Y869D02*
X5346Y869D01*
X5279Y868D02*
X5308Y868D01*
X5317Y868D02*
X5345Y868D01*
X4340Y867D02*
X4341Y867D01*
X5280Y867D02*
X5345Y867D01*
X4333Y866D02*
X4348Y866D01*
X5280Y866D02*
X5344Y866D01*
X4329Y865D02*
X4352Y865D01*
X5281Y865D02*
X5344Y865D01*
X4327Y864D02*
X4354Y864D01*
X5281Y864D02*
X5343Y864D01*
X4325Y863D02*
X4356Y863D01*
X5282Y863D02*
X5343Y863D01*
X4323Y862D02*
X4358Y862D01*
X5282Y862D02*
X5342Y862D01*
X4321Y861D02*
X4360Y861D01*
X5283Y861D02*
X5342Y861D01*
X4320Y860D02*
X4361Y860D01*
X5284Y860D02*
X5341Y860D01*
X4318Y859D02*
X4363Y859D01*
X5284Y859D02*
X5340Y859D01*
X4317Y858D02*
X4364Y858D01*
X5285Y858D02*
X5339Y858D01*
X4316Y857D02*
X4365Y857D01*
X5286Y857D02*
X5339Y857D01*
X4315Y856D02*
X4366Y856D01*
X5287Y856D02*
X5338Y856D01*
X4314Y855D02*
X4367Y855D01*
X5288Y855D02*
X5337Y855D01*
X4313Y854D02*
X4368Y854D01*
X5289Y854D02*
X5336Y854D01*
X4312Y853D02*
X4368Y853D01*
X5290Y853D02*
X5334Y853D01*
X4312Y852D02*
X4369Y852D01*
X5292Y852D02*
X5333Y852D01*
X4311Y851D02*
X4370Y851D01*
X5293Y851D02*
X5332Y851D01*
X4310Y850D02*
X4370Y850D01*
X5295Y850D02*
X5330Y850D01*
X4310Y849D02*
X4371Y849D01*
X5297Y849D02*
X5328Y849D01*
X4309Y848D02*
X4372Y848D01*
X5299Y848D02*
X5326Y848D01*
X4309Y847D02*
X4372Y847D01*
X5301Y847D02*
X5323Y847D01*
X4308Y846D02*
X4373Y846D01*
X5305Y846D02*
X5320Y846D01*
X4308Y845D02*
X4373Y845D01*
X5312Y845D02*
X5313Y845D01*
X4307Y844D02*
X4336Y844D01*
X4345Y844D02*
X4373Y844D01*
X4307Y843D02*
X4333Y843D01*
X4347Y843D02*
X4374Y843D01*
X4307Y842D02*
X4332Y842D01*
X4349Y842D02*
X4374Y842D01*
X4306Y841D02*
X4331Y841D01*
X4350Y841D02*
X4374Y841D01*
X4306Y840D02*
X4330Y840D01*
X4351Y840D02*
X4375Y840D01*
X4306Y839D02*
X4329Y839D01*
X4352Y839D02*
X4375Y839D01*
X4306Y838D02*
X4328Y838D01*
X4353Y838D02*
X4375Y838D01*
X4306Y837D02*
X4328Y837D01*
X4353Y837D02*
X4375Y837D01*
X4305Y836D02*
X4327Y836D01*
X4354Y836D02*
X4375Y836D01*
X4305Y835D02*
X4327Y835D01*
X4354Y835D02*
X4376Y835D01*
X4305Y834D02*
X4327Y834D01*
X4354Y834D02*
X4376Y834D01*
X4305Y833D02*
X4327Y833D01*
X4354Y833D02*
X4376Y833D01*
X4305Y832D02*
X4326Y832D01*
X4354Y832D02*
X4376Y832D01*
X4305Y831D02*
X4326Y831D01*
X4354Y831D02*
X4376Y831D01*
X4305Y830D02*
X4327Y830D01*
X4354Y830D02*
X4376Y830D01*
X4305Y829D02*
X4327Y829D01*
X4354Y829D02*
X4376Y829D01*
X4305Y828D02*
X4327Y828D01*
X4354Y828D02*
X4376Y828D01*
X4305Y827D02*
X4327Y827D01*
X4354Y827D02*
X4376Y827D01*
X4305Y826D02*
X4327Y826D01*
X4354Y826D02*
X4375Y826D01*
X4306Y825D02*
X4328Y825D01*
X4353Y825D02*
X4375Y825D01*
X4306Y824D02*
X4328Y824D01*
X4352Y824D02*
X4375Y824D01*
X4306Y823D02*
X4329Y823D01*
X4352Y823D02*
X4375Y823D01*
X4306Y822D02*
X4330Y822D01*
X4351Y822D02*
X4375Y822D01*
X4307Y821D02*
X4331Y821D01*
X4350Y821D02*
X4374Y821D01*
X4307Y820D02*
X4332Y820D01*
X4349Y820D02*
X4374Y820D01*
X4307Y819D02*
X4334Y819D01*
X4347Y819D02*
X4374Y819D01*
X4308Y818D02*
X4337Y818D01*
X4344Y818D02*
X4373Y818D01*
X4308Y817D02*
X4373Y817D01*
X4308Y816D02*
X4372Y816D01*
X5305Y816D02*
X5319Y816D01*
X4309Y815D02*
X4372Y815D01*
X5302Y815D02*
X5323Y815D01*
X4309Y814D02*
X4371Y814D01*
X5299Y814D02*
X5326Y814D01*
X4310Y813D02*
X4371Y813D01*
X5297Y813D02*
X5328Y813D01*
X4311Y812D02*
X4370Y812D01*
X5295Y812D02*
X5330Y812D01*
X4311Y811D02*
X4370Y811D01*
X5293Y811D02*
X5331Y811D01*
X4312Y810D02*
X4369Y810D01*
X5292Y810D02*
X5333Y810D01*
X4313Y809D02*
X4368Y809D01*
X5290Y809D02*
X5334Y809D01*
X4313Y808D02*
X4367Y808D01*
X5289Y808D02*
X5335Y808D01*
X4314Y807D02*
X4367Y807D01*
X5288Y807D02*
X5337Y807D01*
X4315Y806D02*
X4366Y806D01*
X5287Y806D02*
X5338Y806D01*
X4316Y805D02*
X4365Y805D01*
X5286Y805D02*
X5338Y805D01*
X4317Y804D02*
X4363Y804D01*
X5285Y804D02*
X5339Y804D01*
X4319Y803D02*
X4362Y803D01*
X5285Y803D02*
X5340Y803D01*
X4320Y802D02*
X4361Y802D01*
X5284Y802D02*
X5341Y802D01*
X4321Y801D02*
X4359Y801D01*
X5283Y801D02*
X5342Y801D01*
X4323Y800D02*
X4358Y800D01*
X5282Y800D02*
X5342Y800D01*
X4325Y799D02*
X4356Y799D01*
X5282Y799D02*
X5343Y799D01*
X4327Y798D02*
X4354Y798D01*
X5281Y798D02*
X5343Y798D01*
X4330Y797D02*
X4351Y797D01*
X5281Y797D02*
X5344Y797D01*
X4334Y796D02*
X4347Y796D01*
X5280Y796D02*
X5344Y796D01*
X5280Y795D02*
X5345Y795D01*
X5279Y794D02*
X5308Y794D01*
X5316Y794D02*
X5345Y794D01*
X5279Y793D02*
X5306Y793D01*
X5319Y793D02*
X5346Y793D01*
X5279Y792D02*
X5304Y792D01*
X5321Y792D02*
X5346Y792D01*
X5278Y791D02*
X5303Y791D01*
X5322Y791D02*
X5346Y791D01*
X5278Y790D02*
X5302Y790D01*
X5323Y790D02*
X5346Y790D01*
X5278Y789D02*
X5301Y789D01*
X5324Y789D02*
X5347Y789D01*
X5278Y788D02*
X5300Y788D01*
X5324Y788D02*
X5347Y788D01*
X5277Y787D02*
X5300Y787D01*
X5325Y787D02*
X5347Y787D01*
X5277Y786D02*
X5299Y786D01*
X5325Y786D02*
X5347Y786D01*
X5277Y785D02*
X5299Y785D01*
X5326Y785D02*
X5347Y785D01*
X5277Y784D02*
X5299Y784D01*
X5326Y784D02*
X5348Y784D01*
X5277Y783D02*
X5298Y783D01*
X5326Y783D02*
X5348Y783D01*
X5277Y782D02*
X5298Y782D01*
X5326Y782D02*
X5348Y782D01*
X5277Y781D02*
X5298Y781D01*
X5326Y781D02*
X5348Y781D01*
X5277Y780D02*
X5298Y780D01*
X5326Y780D02*
X5348Y780D01*
X5277Y779D02*
X5298Y779D01*
X5326Y779D02*
X5348Y779D01*
X5277Y778D02*
X5299Y778D01*
X5326Y778D02*
X5348Y778D01*
X5277Y777D02*
X5299Y777D01*
X5326Y777D02*
X5348Y777D01*
X5277Y776D02*
X5299Y776D01*
X5325Y776D02*
X5347Y776D01*
X5277Y775D02*
X5300Y775D01*
X5325Y775D02*
X5347Y775D01*
X5278Y774D02*
X5300Y774D01*
X5324Y774D02*
X5347Y774D01*
X5278Y773D02*
X5301Y773D01*
X5324Y773D02*
X5347Y773D01*
X5278Y772D02*
X5302Y772D01*
X5323Y772D02*
X5347Y772D01*
X5278Y771D02*
X5303Y771D01*
X5322Y771D02*
X5346Y771D01*
X5279Y770D02*
X5304Y770D01*
X5321Y770D02*
X5346Y770D01*
X5279Y769D02*
X5305Y769D01*
X5319Y769D02*
X5346Y769D01*
X5279Y768D02*
X5308Y768D01*
X5317Y768D02*
X5345Y768D01*
X4339Y767D02*
X4342Y767D01*
X5280Y767D02*
X5345Y767D01*
X4333Y766D02*
X4348Y766D01*
X5280Y766D02*
X5344Y766D01*
X4329Y765D02*
X4352Y765D01*
X5281Y765D02*
X5344Y765D01*
X4327Y764D02*
X4354Y764D01*
X5281Y764D02*
X5343Y764D01*
X4324Y763D02*
X4356Y763D01*
X5282Y763D02*
X5343Y763D01*
X4323Y762D02*
X4358Y762D01*
X5282Y762D02*
X5342Y762D01*
X4321Y761D02*
X4360Y761D01*
X5283Y761D02*
X5342Y761D01*
X4320Y760D02*
X4361Y760D01*
X5284Y760D02*
X5341Y760D01*
X4318Y759D02*
X4363Y759D01*
X5284Y759D02*
X5340Y759D01*
X4317Y758D02*
X4364Y758D01*
X5285Y758D02*
X5339Y758D01*
X4316Y757D02*
X4365Y757D01*
X5286Y757D02*
X5339Y757D01*
X4315Y756D02*
X4366Y756D01*
X5287Y756D02*
X5338Y756D01*
X4314Y755D02*
X4367Y755D01*
X5288Y755D02*
X5337Y755D01*
X4313Y754D02*
X4368Y754D01*
X5289Y754D02*
X5336Y754D01*
X4312Y753D02*
X4368Y753D01*
X5290Y753D02*
X5334Y753D01*
X4312Y752D02*
X4369Y752D01*
X5292Y752D02*
X5333Y752D01*
X4311Y751D02*
X4370Y751D01*
X5293Y751D02*
X5332Y751D01*
X4310Y750D02*
X4370Y750D01*
X5295Y750D02*
X5330Y750D01*
X4310Y749D02*
X4371Y749D01*
X5297Y749D02*
X5328Y749D01*
X4309Y748D02*
X4372Y748D01*
X5299Y748D02*
X5326Y748D01*
X4309Y747D02*
X4372Y747D01*
X5301Y747D02*
X5323Y747D01*
X4308Y746D02*
X4373Y746D01*
X5305Y746D02*
X5320Y746D01*
X4308Y745D02*
X4373Y745D01*
X5312Y745D02*
X5312Y745D01*
X4307Y744D02*
X4336Y744D01*
X4345Y744D02*
X4373Y744D01*
X4307Y743D02*
X4333Y743D01*
X4347Y743D02*
X4374Y743D01*
X4307Y742D02*
X4332Y742D01*
X4349Y742D02*
X4374Y742D01*
X4306Y741D02*
X4331Y741D01*
X4350Y741D02*
X4374Y741D01*
X4306Y740D02*
X4330Y740D01*
X4351Y740D02*
X4375Y740D01*
X4306Y739D02*
X4329Y739D01*
X4352Y739D02*
X4375Y739D01*
X4306Y738D02*
X4328Y738D01*
X4353Y738D02*
X4375Y738D01*
X4306Y737D02*
X4328Y737D01*
X4353Y737D02*
X4375Y737D01*
X4305Y736D02*
X4327Y736D01*
X4354Y736D02*
X4375Y736D01*
X4305Y735D02*
X4327Y735D01*
X4354Y735D02*
X4376Y735D01*
X4305Y734D02*
X4327Y734D01*
X4354Y734D02*
X4376Y734D01*
X4305Y733D02*
X4327Y733D01*
X4354Y733D02*
X4376Y733D01*
X4305Y732D02*
X4326Y732D01*
X4354Y732D02*
X4376Y732D01*
X4305Y731D02*
X4326Y731D01*
X4354Y731D02*
X4376Y731D01*
X4305Y730D02*
X4327Y730D01*
X4354Y730D02*
X4376Y730D01*
X4305Y729D02*
X4327Y729D01*
X4354Y729D02*
X4376Y729D01*
X4305Y728D02*
X4327Y728D01*
X4354Y728D02*
X4376Y728D01*
X4305Y727D02*
X4327Y727D01*
X4354Y727D02*
X4376Y727D01*
X4305Y726D02*
X4327Y726D01*
X4353Y726D02*
X4375Y726D01*
X4306Y725D02*
X4328Y725D01*
X4353Y725D02*
X4375Y725D01*
X4306Y724D02*
X4328Y724D01*
X4352Y724D02*
X4375Y724D01*
X4306Y723D02*
X4329Y723D01*
X4352Y723D02*
X4375Y723D01*
X4306Y722D02*
X4330Y722D01*
X4351Y722D02*
X4375Y722D01*
X4307Y721D02*
X4331Y721D01*
X4350Y721D02*
X4374Y721D01*
X4307Y720D02*
X4332Y720D01*
X4349Y720D02*
X4374Y720D01*
X4307Y719D02*
X4334Y719D01*
X4347Y719D02*
X4374Y719D01*
X4308Y718D02*
X4337Y718D01*
X4344Y718D02*
X4373Y718D01*
X4308Y717D02*
X4373Y717D01*
X4308Y716D02*
X4372Y716D01*
X4309Y715D02*
X4372Y715D01*
X5278Y715D02*
X5347Y715D01*
X4309Y714D02*
X4371Y714D01*
X5278Y714D02*
X5347Y714D01*
X4310Y713D02*
X4371Y713D01*
X5278Y713D02*
X5347Y713D01*
X4311Y712D02*
X4370Y712D01*
X5278Y712D02*
X5347Y712D01*
X4311Y711D02*
X4370Y711D01*
X5278Y711D02*
X5347Y711D01*
X4312Y710D02*
X4369Y710D01*
X5278Y710D02*
X5347Y710D01*
X4313Y709D02*
X4368Y709D01*
X5278Y709D02*
X5347Y709D01*
X4313Y708D02*
X4367Y708D01*
X5278Y708D02*
X5347Y708D01*
X4314Y707D02*
X4367Y707D01*
X5278Y707D02*
X5347Y707D01*
X4315Y706D02*
X4366Y706D01*
X5278Y706D02*
X5347Y706D01*
X4316Y705D02*
X4365Y705D01*
X5278Y705D02*
X5347Y705D01*
X4317Y704D02*
X4363Y704D01*
X5278Y704D02*
X5347Y704D01*
X4319Y703D02*
X4362Y703D01*
X5278Y703D02*
X5347Y703D01*
X4320Y702D02*
X4361Y702D01*
X5278Y702D02*
X5347Y702D01*
X4321Y701D02*
X4359Y701D01*
X5278Y701D02*
X5347Y701D01*
X4323Y700D02*
X4358Y700D01*
X5278Y700D02*
X5347Y700D01*
X4325Y699D02*
X4356Y699D01*
X5278Y699D02*
X5347Y699D01*
X4327Y698D02*
X4354Y698D01*
X5278Y698D02*
X5347Y698D01*
X4330Y697D02*
X4351Y697D01*
X5278Y697D02*
X5347Y697D01*
X4334Y696D02*
X4347Y696D01*
X5278Y696D02*
X5347Y696D01*
X5278Y695D02*
X5347Y695D01*
X5278Y694D02*
X5308Y694D01*
X5316Y694D02*
X5347Y694D01*
X5278Y693D02*
X5306Y693D01*
X5319Y693D02*
X5347Y693D01*
X5278Y692D02*
X5304Y692D01*
X5321Y692D02*
X5347Y692D01*
X5278Y691D02*
X5303Y691D01*
X5322Y691D02*
X5347Y691D01*
X5278Y690D02*
X5302Y690D01*
X5323Y690D02*
X5347Y690D01*
X5278Y689D02*
X5301Y689D01*
X5324Y689D02*
X5347Y689D01*
X5278Y688D02*
X5300Y688D01*
X5324Y688D02*
X5347Y688D01*
X5278Y687D02*
X5300Y687D01*
X5325Y687D02*
X5347Y687D01*
X5278Y686D02*
X5299Y686D01*
X5325Y686D02*
X5347Y686D01*
X5278Y685D02*
X5299Y685D01*
X5326Y685D02*
X5347Y685D01*
X5278Y684D02*
X5299Y684D01*
X5326Y684D02*
X5347Y684D01*
X5278Y683D02*
X5298Y683D01*
X5326Y683D02*
X5347Y683D01*
X5278Y682D02*
X5298Y682D01*
X5326Y682D02*
X5347Y682D01*
X5278Y681D02*
X5298Y681D01*
X5326Y681D02*
X5347Y681D01*
X5278Y680D02*
X5298Y680D01*
X5326Y680D02*
X5347Y680D01*
X5278Y679D02*
X5298Y679D01*
X5326Y679D02*
X5347Y679D01*
X5278Y678D02*
X5299Y678D01*
X5326Y678D02*
X5347Y678D01*
X5278Y677D02*
X5299Y677D01*
X5326Y677D02*
X5347Y677D01*
X5278Y676D02*
X5299Y676D01*
X5325Y676D02*
X5347Y676D01*
X5278Y675D02*
X5300Y675D01*
X5325Y675D02*
X5347Y675D01*
X5278Y674D02*
X5300Y674D01*
X5324Y674D02*
X5347Y674D01*
X5278Y673D02*
X5301Y673D01*
X5324Y673D02*
X5347Y673D01*
X5278Y672D02*
X5302Y672D01*
X5323Y672D02*
X5347Y672D01*
X5278Y671D02*
X5303Y671D01*
X5322Y671D02*
X5347Y671D01*
X5278Y670D02*
X5304Y670D01*
X5321Y670D02*
X5347Y670D01*
X5278Y669D02*
X5305Y669D01*
X5319Y669D02*
X5347Y669D01*
X5278Y668D02*
X5308Y668D01*
X5317Y668D02*
X5347Y668D01*
X5278Y667D02*
X5347Y667D01*
X5278Y666D02*
X5347Y666D01*
X4306Y665D02*
X4375Y665D01*
X5278Y665D02*
X5347Y665D01*
X4306Y664D02*
X4375Y664D01*
X5278Y664D02*
X5347Y664D01*
X4306Y663D02*
X4375Y663D01*
X5278Y663D02*
X5347Y663D01*
X4306Y662D02*
X4375Y662D01*
X5278Y662D02*
X5347Y662D01*
X4306Y661D02*
X4375Y661D01*
X5278Y661D02*
X5347Y661D01*
X4306Y660D02*
X4375Y660D01*
X5278Y660D02*
X5347Y660D01*
X4306Y659D02*
X4375Y659D01*
X5278Y659D02*
X5347Y659D01*
X4306Y658D02*
X4375Y658D01*
X5278Y658D02*
X5347Y658D01*
X4306Y657D02*
X4375Y657D01*
X5278Y657D02*
X5347Y657D01*
X4306Y656D02*
X4375Y656D01*
X5278Y656D02*
X5347Y656D01*
X4306Y655D02*
X4375Y655D01*
X5278Y655D02*
X5347Y655D01*
X4306Y654D02*
X4375Y654D01*
X5278Y654D02*
X5347Y654D01*
X4306Y653D02*
X4375Y653D01*
X5278Y653D02*
X5347Y653D01*
X4306Y652D02*
X4375Y652D01*
X5278Y652D02*
X5347Y652D01*
X4306Y651D02*
X4375Y651D01*
X5278Y651D02*
X5347Y651D01*
X4306Y650D02*
X4375Y650D01*
X5278Y650D02*
X5347Y650D01*
X4306Y649D02*
X4375Y649D01*
X5278Y649D02*
X5347Y649D01*
X4306Y648D02*
X4375Y648D01*
X5278Y648D02*
X5347Y648D01*
X4306Y647D02*
X4375Y647D01*
X5278Y647D02*
X5347Y647D01*
X4306Y646D02*
X4375Y646D01*
X4306Y645D02*
X4375Y645D01*
X4306Y644D02*
X4336Y644D01*
X4345Y644D02*
X4375Y644D01*
X4306Y643D02*
X4333Y643D01*
X4347Y643D02*
X4375Y643D01*
X4306Y642D02*
X4332Y642D01*
X4349Y642D02*
X4375Y642D01*
X4306Y641D02*
X4331Y641D01*
X4350Y641D02*
X4375Y641D01*
X4306Y640D02*
X4330Y640D01*
X4351Y640D02*
X4375Y640D01*
X4306Y639D02*
X4329Y639D01*
X4352Y639D02*
X4375Y639D01*
X4306Y638D02*
X4328Y638D01*
X4353Y638D02*
X4375Y638D01*
X4306Y637D02*
X4328Y637D01*
X4353Y637D02*
X4375Y637D01*
X4306Y636D02*
X4327Y636D01*
X4354Y636D02*
X4375Y636D01*
X4306Y635D02*
X4327Y635D01*
X4354Y635D02*
X4375Y635D01*
X4306Y634D02*
X4327Y634D01*
X4354Y634D02*
X4375Y634D01*
X4306Y633D02*
X4327Y633D01*
X4354Y633D02*
X4375Y633D01*
X4306Y632D02*
X4326Y632D01*
X4354Y632D02*
X4375Y632D01*
X4306Y631D02*
X4326Y631D01*
X4354Y631D02*
X4375Y631D01*
X4306Y630D02*
X4327Y630D01*
X4354Y630D02*
X4375Y630D01*
X4306Y629D02*
X4327Y629D01*
X4354Y629D02*
X4375Y629D01*
X4306Y628D02*
X4327Y628D01*
X4354Y628D02*
X4375Y628D01*
X4306Y627D02*
X4327Y627D01*
X4354Y627D02*
X4375Y627D01*
X4306Y626D02*
X4327Y626D01*
X4353Y626D02*
X4375Y626D01*
X4306Y625D02*
X4328Y625D01*
X4353Y625D02*
X4375Y625D01*
X4306Y624D02*
X4328Y624D01*
X4352Y624D02*
X4375Y624D01*
X4306Y623D02*
X4329Y623D01*
X4352Y623D02*
X4375Y623D01*
X4306Y622D02*
X4330Y622D01*
X4351Y622D02*
X4375Y622D01*
X4306Y621D02*
X4331Y621D01*
X4350Y621D02*
X4375Y621D01*
X4306Y620D02*
X4332Y620D01*
X4349Y620D02*
X4375Y620D01*
X4306Y619D02*
X4334Y619D01*
X4347Y619D02*
X4375Y619D01*
X4306Y618D02*
X4337Y618D01*
X4344Y618D02*
X4375Y618D01*
X4306Y617D02*
X4375Y617D01*
X4306Y616D02*
X4375Y616D01*
X4306Y615D02*
X4375Y615D01*
X4306Y614D02*
X4375Y614D01*
X4306Y613D02*
X4375Y613D01*
X4306Y612D02*
X4375Y612D01*
X4306Y611D02*
X4375Y611D01*
X4306Y610D02*
X4375Y610D01*
X4306Y609D02*
X4375Y609D01*
X4306Y608D02*
X4375Y608D01*
X4306Y607D02*
X4375Y607D01*
X4306Y606D02*
X4375Y606D01*
X4306Y605D02*
X4375Y605D01*
X4306Y604D02*
X4375Y604D01*
X4306Y603D02*
X4375Y603D01*
X4306Y602D02*
X4375Y602D01*
X4306Y601D02*
X4375Y601D01*
X4306Y600D02*
X4375Y600D01*
X4306Y599D02*
X4375Y599D01*
X4306Y598D02*
X4375Y598D01*
X4306Y597D02*
X4375Y597D01*
D02*
G04 End of Mask0*
M02*