G04 MADE WITH FRITZING*
G04 WWW.FRITZING.ORG*
G04 DOUBLE SIDED*
G04 HOLES PLATED*
G04 CONTOUR ON CENTER OF CONTOUR VECTOR*
%ASAXBY*%
%FSLAX23Y23*%
%MOIN*%
%OFA0B0*%
%SFA1.0B1.0*%
%ADD10C,0.077778*%
%ADD11C,0.073889*%
%ADD12C,0.065000*%
%ADD13C,0.075000*%
%ADD14C,0.078000*%
%ADD15C,0.060194*%
%ADD16C,0.060208*%
%ADD17C,0.075806*%
%ADD18C,0.073486*%
%ADD19C,0.075792*%
%ADD20C,0.074000*%
%ADD21C,0.062992*%
%ADD22R,0.074000X0.074000*%
%ADD23R,0.062992X0.062992*%
%ADD24C,0.024000*%
%ADD25R,0.001000X0.001000*%
%LNCOPPER0*%
G90*
G70*
G54D10*
X1413Y1080D03*
X1413Y980D03*
X1413Y880D03*
X1413Y780D03*
X1413Y680D03*
X1413Y580D03*
X1413Y480D03*
X1413Y380D03*
X2313Y380D03*
X2313Y480D03*
X2313Y580D03*
X2313Y680D03*
X2313Y780D03*
X2313Y880D03*
X2313Y980D03*
X2313Y1080D03*
G54D11*
X513Y1180D03*
X513Y1280D03*
X513Y1380D03*
X513Y1480D03*
G54D12*
X713Y580D03*
X713Y658D03*
X713Y737D03*
X713Y816D03*
G54D13*
X2413Y1180D03*
X2713Y1180D03*
X1113Y180D03*
X858Y180D03*
X1113Y357D03*
X858Y357D03*
G54D14*
X513Y480D03*
G54D13*
X913Y580D03*
X1313Y580D03*
X913Y680D03*
X1313Y680D03*
X913Y780D03*
X1313Y780D03*
X2413Y980D03*
X2813Y980D03*
G54D15*
X3413Y1380D03*
G54D16*
X3513Y1380D03*
G54D15*
X3613Y1380D03*
G54D16*
X3713Y1380D03*
G54D17*
X4341Y1230D03*
X4341Y1130D03*
X4341Y1030D03*
X4341Y930D03*
X4341Y830D03*
X4341Y730D03*
G54D18*
X4341Y630D03*
G54D17*
X5313Y1080D03*
X5313Y980D03*
G54D19*
X5313Y880D03*
G54D17*
X5313Y780D03*
G54D18*
X5313Y680D03*
G54D17*
X5230Y1387D03*
X5230Y1287D03*
X5230Y1187D03*
G54D14*
X513Y180D03*
G54D20*
X3213Y480D03*
X3313Y480D03*
X3413Y480D03*
X3513Y480D03*
X3613Y480D03*
X3713Y480D03*
X3813Y480D03*
X3913Y480D03*
G54D21*
X2612Y180D03*
X2513Y180D03*
G54D13*
X2913Y580D03*
X2913Y180D03*
G54D22*
X3213Y480D03*
G54D23*
X2612Y180D03*
G54D24*
X2012Y1180D02*
X1614Y1179D01*
D02*
X1614Y1179D02*
X1615Y681D01*
D02*
X1615Y681D02*
X1615Y382D01*
D02*
X1615Y382D02*
X1443Y380D01*
D02*
X2385Y1180D02*
X2012Y1180D01*
D02*
X2413Y1077D02*
X2714Y1080D01*
D02*
X2714Y1080D02*
X2713Y1151D01*
D02*
X2413Y1008D02*
X2413Y1077D01*
D02*
X1502Y880D02*
X1443Y880D01*
D02*
X1502Y1380D02*
X1502Y880D01*
D02*
X548Y1380D02*
X1502Y1380D01*
D02*
X829Y180D02*
X544Y180D01*
D02*
X544Y480D02*
X1384Y480D01*
D02*
X413Y280D02*
X413Y658D01*
D02*
X413Y658D02*
X690Y658D01*
D02*
X492Y201D02*
X413Y280D01*
D02*
X1550Y383D02*
X1550Y1480D01*
D02*
X1550Y1480D02*
X548Y1480D01*
D02*
X1443Y380D02*
X1550Y383D01*
D02*
X1213Y980D02*
X1213Y1280D01*
D02*
X1213Y1280D02*
X413Y1278D01*
D02*
X413Y1278D02*
X413Y1581D01*
D02*
X413Y1581D02*
X2713Y1580D01*
D02*
X2713Y1580D02*
X2713Y1208D01*
D02*
X1384Y980D02*
X1213Y980D01*
D02*
X413Y658D02*
X413Y1179D01*
D02*
X413Y1179D02*
X479Y1179D01*
D02*
X690Y658D02*
X413Y658D01*
D02*
X1811Y480D02*
X1811Y181D01*
D02*
X1811Y181D02*
X1142Y180D01*
D02*
X2284Y480D02*
X1811Y480D01*
D02*
X714Y882D02*
X714Y839D01*
D02*
X915Y882D02*
X714Y882D01*
D02*
X914Y808D02*
X915Y882D01*
D02*
X1384Y780D02*
X1342Y780D01*
D02*
X1342Y680D02*
X1384Y680D01*
D02*
X812Y737D02*
X812Y681D01*
D02*
X812Y681D02*
X885Y680D01*
D02*
X737Y737D02*
X812Y737D01*
D02*
X1342Y580D02*
X1384Y580D01*
D02*
X737Y580D02*
X885Y580D01*
D02*
X1714Y679D02*
X1713Y279D01*
D02*
X1713Y279D02*
X1214Y279D01*
D02*
X1214Y279D02*
X1214Y357D01*
D02*
X1214Y357D02*
X1142Y357D01*
D02*
X3613Y1359D02*
X3613Y1279D01*
D02*
X2980Y1271D02*
X2981Y883D01*
D02*
X5205Y139D02*
X2992Y139D01*
D02*
X1714Y679D02*
X2284Y680D01*
D02*
X2814Y1380D02*
X3393Y1380D01*
D02*
X2813Y1008D02*
X2814Y1380D01*
D02*
X346Y1092D02*
X352Y184D01*
D02*
X238Y1625D02*
X238Y1093D01*
D02*
X1913Y378D02*
X2284Y379D01*
D02*
X238Y1093D02*
X346Y1092D01*
D02*
X3513Y1400D02*
X3512Y1781D01*
D02*
X3512Y1781D02*
X387Y1781D01*
D02*
X352Y184D02*
X467Y76D01*
D02*
X387Y1781D02*
X238Y1625D01*
D02*
X314Y1178D02*
X308Y1609D01*
D02*
X381Y1682D02*
X3414Y1679D01*
D02*
X308Y1609D02*
X381Y1682D01*
D02*
X479Y1179D02*
X314Y1178D01*
D02*
X3414Y1679D02*
X3413Y1400D01*
D02*
X3715Y1581D02*
X3714Y1400D01*
D02*
X5115Y1680D02*
X3614Y1679D01*
D02*
X3614Y1679D02*
X3613Y1400D01*
D02*
X5214Y1778D02*
X3512Y1781D01*
D02*
X5414Y779D02*
X5414Y1581D01*
D02*
X3512Y1781D02*
X3513Y1400D01*
D02*
X2412Y79D02*
X5312Y79D01*
D02*
X2416Y483D02*
X2412Y79D01*
D02*
X2343Y481D02*
X2416Y483D01*
D02*
X1913Y81D02*
X1913Y378D01*
D02*
X5115Y979D02*
X5115Y1680D01*
D02*
X467Y76D02*
X1913Y81D01*
D02*
X5278Y980D02*
X5115Y979D01*
D02*
X3613Y1279D02*
X2980Y1271D01*
D02*
X5013Y881D02*
X5013Y1581D01*
D02*
X5214Y881D02*
X5205Y139D01*
D02*
X2992Y139D02*
X2990Y784D01*
D02*
X5011Y881D02*
X5013Y881D01*
D02*
X5013Y1581D02*
X3715Y1581D01*
D02*
X5011Y881D02*
X5214Y881D01*
D02*
X2990Y784D02*
X2343Y780D01*
D02*
X2981Y883D02*
X2343Y880D01*
D02*
X2343Y580D02*
X2885Y580D01*
D02*
X2515Y476D02*
X2514Y206D01*
D02*
X2416Y483D02*
X2515Y476D01*
D02*
X4136Y667D02*
X3219Y664D01*
D02*
X4136Y1382D02*
X4136Y667D01*
D02*
X4514Y1380D02*
X4136Y1382D01*
D02*
X4510Y730D02*
X4514Y1380D01*
D02*
X4218Y825D02*
X4214Y578D01*
D02*
X4214Y578D02*
X3314Y578D01*
D02*
X3219Y664D02*
X3214Y511D01*
D02*
X4377Y730D02*
X4510Y730D01*
D02*
X3314Y578D02*
X3314Y511D01*
D02*
X4306Y828D02*
X4218Y825D01*
D02*
X3113Y1078D02*
X3113Y381D01*
D02*
X3715Y1078D02*
X3113Y1078D01*
D02*
X3113Y381D02*
X3813Y381D01*
D02*
X3813Y381D02*
X3813Y449D01*
D02*
X3714Y1359D02*
X3715Y1078D01*
D02*
X3053Y1126D02*
X3056Y326D01*
D02*
X3610Y1126D02*
X3053Y1126D01*
D02*
X3613Y1279D02*
X3610Y1126D01*
D02*
X3056Y326D02*
X3914Y323D01*
D02*
X3914Y323D02*
X3914Y449D01*
D02*
X3613Y1359D02*
X3613Y1279D01*
D02*
X5414Y1581D02*
X5214Y1778D01*
D02*
X5414Y779D02*
X5349Y779D01*
D02*
X5312Y79D02*
X5313Y646D01*
D02*
X5214Y881D02*
X5278Y880D01*
D02*
X2714Y178D02*
X2885Y179D01*
D02*
X2639Y179D02*
X2714Y178D01*
G54D25*
X5225Y1419D02*
X5232Y1419D01*
X5221Y1418D02*
X5237Y1418D01*
X5218Y1417D02*
X5240Y1417D01*
X5215Y1416D02*
X5242Y1416D01*
X5214Y1415D02*
X5244Y1415D01*
X5212Y1414D02*
X5245Y1414D01*
X5211Y1413D02*
X5247Y1413D01*
X5209Y1412D02*
X5248Y1412D01*
X5208Y1411D02*
X5249Y1411D01*
X3406Y1410D02*
X3419Y1410D01*
X3506Y1410D02*
X3519Y1410D01*
X3606Y1410D02*
X3619Y1410D01*
X3706Y1410D02*
X3719Y1410D01*
X5207Y1410D02*
X5250Y1410D01*
X3403Y1409D02*
X3422Y1409D01*
X3503Y1409D02*
X3522Y1409D01*
X3603Y1409D02*
X3622Y1409D01*
X3703Y1409D02*
X3722Y1409D01*
X5206Y1409D02*
X5251Y1409D01*
X3401Y1408D02*
X3424Y1408D01*
X3501Y1408D02*
X3524Y1408D01*
X3601Y1408D02*
X3624Y1408D01*
X3701Y1408D02*
X3724Y1408D01*
X5205Y1408D02*
X5252Y1408D01*
X3399Y1407D02*
X3426Y1407D01*
X3499Y1407D02*
X3526Y1407D01*
X3599Y1407D02*
X3626Y1407D01*
X3699Y1407D02*
X3726Y1407D01*
X5204Y1407D02*
X5253Y1407D01*
X3397Y1406D02*
X3428Y1406D01*
X3497Y1406D02*
X3528Y1406D01*
X3597Y1406D02*
X3628Y1406D01*
X3697Y1406D02*
X3728Y1406D01*
X5204Y1406D02*
X5223Y1406D01*
X5234Y1406D02*
X5253Y1406D01*
X3395Y1405D02*
X3430Y1405D01*
X3495Y1405D02*
X3530Y1405D01*
X3595Y1405D02*
X3630Y1405D01*
X3695Y1405D02*
X3730Y1405D01*
X5203Y1405D02*
X5220Y1405D01*
X5237Y1405D02*
X5254Y1405D01*
X3394Y1404D02*
X3431Y1404D01*
X3494Y1404D02*
X3531Y1404D01*
X3594Y1404D02*
X3631Y1404D01*
X3694Y1404D02*
X3731Y1404D01*
X5202Y1404D02*
X5218Y1404D01*
X5239Y1404D02*
X5255Y1404D01*
X3393Y1403D02*
X3432Y1403D01*
X3493Y1403D02*
X3532Y1403D01*
X3593Y1403D02*
X3632Y1403D01*
X3693Y1403D02*
X3732Y1403D01*
X5202Y1403D02*
X5217Y1403D01*
X5240Y1403D02*
X5255Y1403D01*
X3392Y1402D02*
X3433Y1402D01*
X3492Y1402D02*
X3533Y1402D01*
X3592Y1402D02*
X3633Y1402D01*
X3692Y1402D02*
X3733Y1402D01*
X5201Y1402D02*
X5216Y1402D01*
X5241Y1402D02*
X5256Y1402D01*
X3391Y1401D02*
X3434Y1401D01*
X3491Y1401D02*
X3534Y1401D01*
X3591Y1401D02*
X3634Y1401D01*
X3691Y1401D02*
X3734Y1401D01*
X5201Y1401D02*
X5215Y1401D01*
X5242Y1401D02*
X5256Y1401D01*
X3390Y1400D02*
X3435Y1400D01*
X3490Y1400D02*
X3535Y1400D01*
X3590Y1400D02*
X3635Y1400D01*
X3690Y1400D02*
X3735Y1400D01*
X5200Y1400D02*
X5214Y1400D01*
X5243Y1400D02*
X5257Y1400D01*
X3389Y1399D02*
X3436Y1399D01*
X3489Y1399D02*
X3536Y1399D01*
X3589Y1399D02*
X3636Y1399D01*
X3689Y1399D02*
X3736Y1399D01*
X5200Y1399D02*
X5213Y1399D01*
X5244Y1399D02*
X5257Y1399D01*
X3388Y1398D02*
X3437Y1398D01*
X3488Y1398D02*
X3537Y1398D01*
X3588Y1398D02*
X3637Y1398D01*
X3688Y1398D02*
X3737Y1398D01*
X5200Y1398D02*
X5212Y1398D01*
X5245Y1398D02*
X5257Y1398D01*
X3388Y1397D02*
X3437Y1397D01*
X3488Y1397D02*
X3537Y1397D01*
X3588Y1397D02*
X3637Y1397D01*
X3688Y1397D02*
X3737Y1397D01*
X5199Y1397D02*
X5212Y1397D01*
X5245Y1397D02*
X5258Y1397D01*
X3387Y1396D02*
X3438Y1396D01*
X3487Y1396D02*
X3538Y1396D01*
X3587Y1396D02*
X3638Y1396D01*
X3687Y1396D02*
X3738Y1396D01*
X5199Y1396D02*
X5211Y1396D01*
X5246Y1396D02*
X5258Y1396D01*
X3387Y1395D02*
X3438Y1395D01*
X3487Y1395D02*
X3538Y1395D01*
X3587Y1395D02*
X3638Y1395D01*
X3687Y1395D02*
X3738Y1395D01*
X5199Y1395D02*
X5211Y1395D01*
X5246Y1395D02*
X5258Y1395D01*
X3386Y1394D02*
X3439Y1394D01*
X3486Y1394D02*
X3539Y1394D01*
X3586Y1394D02*
X3639Y1394D01*
X3686Y1394D02*
X3739Y1394D01*
X5199Y1394D02*
X5211Y1394D01*
X5247Y1394D02*
X5259Y1394D01*
X3386Y1393D02*
X3439Y1393D01*
X3486Y1393D02*
X3539Y1393D01*
X3586Y1393D02*
X3639Y1393D01*
X3686Y1393D02*
X3739Y1393D01*
X5199Y1393D02*
X5210Y1393D01*
X5247Y1393D02*
X5259Y1393D01*
X3385Y1392D02*
X3440Y1392D01*
X3485Y1392D02*
X3540Y1392D01*
X3585Y1392D02*
X3640Y1392D01*
X3685Y1392D02*
X3740Y1392D01*
X5198Y1392D02*
X5210Y1392D01*
X5247Y1392D02*
X5259Y1392D01*
X3385Y1391D02*
X3440Y1391D01*
X3485Y1391D02*
X3540Y1391D01*
X3585Y1391D02*
X3640Y1391D01*
X3685Y1391D02*
X3740Y1391D01*
X5198Y1391D02*
X5210Y1391D01*
X5247Y1391D02*
X5259Y1391D01*
X3385Y1390D02*
X3411Y1390D01*
X3414Y1390D02*
X3440Y1390D01*
X3485Y1390D02*
X3511Y1390D01*
X3514Y1390D02*
X3540Y1390D01*
X3585Y1390D02*
X3611Y1390D01*
X3614Y1390D02*
X3640Y1390D01*
X3685Y1390D02*
X3711Y1390D01*
X3714Y1390D02*
X3740Y1390D01*
X5198Y1390D02*
X5210Y1390D01*
X5247Y1390D02*
X5259Y1390D01*
X3384Y1389D02*
X3408Y1389D01*
X3418Y1389D02*
X3441Y1389D01*
X3484Y1389D02*
X3508Y1389D01*
X3518Y1389D02*
X3541Y1389D01*
X3584Y1389D02*
X3607Y1389D01*
X3618Y1389D02*
X3641Y1389D01*
X3684Y1389D02*
X3707Y1389D01*
X3718Y1389D02*
X3741Y1389D01*
X5198Y1389D02*
X5210Y1389D01*
X5248Y1389D02*
X5259Y1389D01*
X3384Y1388D02*
X3406Y1388D01*
X3419Y1388D02*
X3441Y1388D01*
X3484Y1388D02*
X3506Y1388D01*
X3519Y1388D02*
X3541Y1388D01*
X3584Y1388D02*
X3606Y1388D01*
X3619Y1388D02*
X3641Y1388D01*
X3684Y1388D02*
X3706Y1388D01*
X3719Y1388D02*
X3741Y1388D01*
X5198Y1388D02*
X5210Y1388D01*
X5248Y1388D02*
X5259Y1388D01*
X3384Y1387D02*
X3405Y1387D01*
X3420Y1387D02*
X3441Y1387D01*
X3484Y1387D02*
X3505Y1387D01*
X3520Y1387D02*
X3541Y1387D01*
X3584Y1387D02*
X3605Y1387D01*
X3620Y1387D02*
X3641Y1387D01*
X3684Y1387D02*
X3705Y1387D01*
X3720Y1387D02*
X3741Y1387D01*
X5198Y1387D02*
X5210Y1387D01*
X5247Y1387D02*
X5259Y1387D01*
X3384Y1386D02*
X3404Y1386D01*
X3421Y1386D02*
X3442Y1386D01*
X3483Y1386D02*
X3504Y1386D01*
X3521Y1386D02*
X3542Y1386D01*
X3583Y1386D02*
X3604Y1386D01*
X3621Y1386D02*
X3642Y1386D01*
X3683Y1386D02*
X3704Y1386D01*
X3721Y1386D02*
X3742Y1386D01*
X5198Y1386D02*
X5210Y1386D01*
X5247Y1386D02*
X5259Y1386D01*
X3383Y1385D02*
X3404Y1385D01*
X3421Y1385D02*
X3442Y1385D01*
X3483Y1385D02*
X3504Y1385D01*
X3521Y1385D02*
X3542Y1385D01*
X3583Y1385D02*
X3604Y1385D01*
X3621Y1385D02*
X3642Y1385D01*
X3683Y1385D02*
X3704Y1385D01*
X3721Y1385D02*
X3742Y1385D01*
X5198Y1385D02*
X5210Y1385D01*
X5247Y1385D02*
X5259Y1385D01*
X3383Y1384D02*
X3403Y1384D01*
X3422Y1384D02*
X3442Y1384D01*
X3483Y1384D02*
X3503Y1384D01*
X3522Y1384D02*
X3542Y1384D01*
X3583Y1384D02*
X3603Y1384D01*
X3622Y1384D02*
X3642Y1384D01*
X3683Y1384D02*
X3703Y1384D01*
X3722Y1384D02*
X3742Y1384D01*
X5198Y1384D02*
X5210Y1384D01*
X5247Y1384D02*
X5259Y1384D01*
X3383Y1383D02*
X3403Y1383D01*
X3422Y1383D02*
X3442Y1383D01*
X3483Y1383D02*
X3503Y1383D01*
X3522Y1383D02*
X3542Y1383D01*
X3583Y1383D02*
X3603Y1383D01*
X3622Y1383D02*
X3642Y1383D01*
X3683Y1383D02*
X3703Y1383D01*
X3722Y1383D02*
X3742Y1383D01*
X5199Y1383D02*
X5210Y1383D01*
X5247Y1383D02*
X5259Y1383D01*
X3383Y1382D02*
X3403Y1382D01*
X3422Y1382D02*
X3442Y1382D01*
X3483Y1382D02*
X3503Y1382D01*
X3522Y1382D02*
X3542Y1382D01*
X3583Y1382D02*
X3603Y1382D01*
X3622Y1382D02*
X3642Y1382D01*
X3683Y1382D02*
X3703Y1382D01*
X3722Y1382D02*
X3742Y1382D01*
X5199Y1382D02*
X5211Y1382D01*
X5246Y1382D02*
X5258Y1382D01*
X3383Y1381D02*
X3403Y1381D01*
X3422Y1381D02*
X3442Y1381D01*
X3483Y1381D02*
X3503Y1381D01*
X3522Y1381D02*
X3542Y1381D01*
X3583Y1381D02*
X3603Y1381D01*
X3622Y1381D02*
X3642Y1381D01*
X3683Y1381D02*
X3703Y1381D01*
X3722Y1381D02*
X3742Y1381D01*
X5199Y1381D02*
X5211Y1381D01*
X5246Y1381D02*
X5258Y1381D01*
X3383Y1380D02*
X3403Y1380D01*
X3422Y1380D02*
X3442Y1380D01*
X3483Y1380D02*
X3503Y1380D01*
X3522Y1380D02*
X3542Y1380D01*
X3583Y1380D02*
X3603Y1380D01*
X3622Y1380D02*
X3642Y1380D01*
X3683Y1380D02*
X3703Y1380D01*
X3722Y1380D02*
X3742Y1380D01*
X5199Y1380D02*
X5212Y1380D01*
X5246Y1380D02*
X5258Y1380D01*
X3383Y1379D02*
X3403Y1379D01*
X3422Y1379D02*
X3442Y1379D01*
X3483Y1379D02*
X3503Y1379D01*
X3522Y1379D02*
X3542Y1379D01*
X3583Y1379D02*
X3603Y1379D01*
X3622Y1379D02*
X3642Y1379D01*
X3683Y1379D02*
X3703Y1379D01*
X3722Y1379D02*
X3742Y1379D01*
X5200Y1379D02*
X5212Y1379D01*
X5245Y1379D02*
X5258Y1379D01*
X3383Y1378D02*
X3403Y1378D01*
X3422Y1378D02*
X3442Y1378D01*
X3483Y1378D02*
X3503Y1378D01*
X3522Y1378D02*
X3542Y1378D01*
X3583Y1378D02*
X3603Y1378D01*
X3622Y1378D02*
X3642Y1378D01*
X3683Y1378D02*
X3703Y1378D01*
X3722Y1378D02*
X3742Y1378D01*
X5200Y1378D02*
X5213Y1378D01*
X5244Y1378D02*
X5257Y1378D01*
X3383Y1377D02*
X3403Y1377D01*
X3422Y1377D02*
X3442Y1377D01*
X3483Y1377D02*
X3503Y1377D01*
X3522Y1377D02*
X3542Y1377D01*
X3583Y1377D02*
X3603Y1377D01*
X3622Y1377D02*
X3642Y1377D01*
X3683Y1377D02*
X3703Y1377D01*
X3722Y1377D02*
X3742Y1377D01*
X5200Y1377D02*
X5214Y1377D01*
X5244Y1377D02*
X5257Y1377D01*
X3383Y1376D02*
X3404Y1376D01*
X3421Y1376D02*
X3442Y1376D01*
X3483Y1376D02*
X3504Y1376D01*
X3521Y1376D02*
X3542Y1376D01*
X3583Y1376D02*
X3604Y1376D01*
X3621Y1376D02*
X3642Y1376D01*
X3683Y1376D02*
X3704Y1376D01*
X3721Y1376D02*
X3742Y1376D01*
X5201Y1376D02*
X5214Y1376D01*
X5243Y1376D02*
X5256Y1376D01*
X3384Y1375D02*
X3405Y1375D01*
X3420Y1375D02*
X3441Y1375D01*
X3484Y1375D02*
X3505Y1375D01*
X3520Y1375D02*
X3541Y1375D01*
X3584Y1375D02*
X3605Y1375D01*
X3620Y1375D02*
X3641Y1375D01*
X3684Y1375D02*
X3705Y1375D01*
X3720Y1375D02*
X3741Y1375D01*
X5201Y1375D02*
X5215Y1375D01*
X5242Y1375D02*
X5256Y1375D01*
X3384Y1374D02*
X3406Y1374D01*
X3419Y1374D02*
X3441Y1374D01*
X3484Y1374D02*
X3506Y1374D01*
X3519Y1374D02*
X3541Y1374D01*
X3584Y1374D02*
X3606Y1374D01*
X3619Y1374D02*
X3641Y1374D01*
X3684Y1374D02*
X3706Y1374D01*
X3719Y1374D02*
X3741Y1374D01*
X5202Y1374D02*
X5216Y1374D01*
X5241Y1374D02*
X5256Y1374D01*
X3384Y1373D02*
X3407Y1373D01*
X3418Y1373D02*
X3441Y1373D01*
X3484Y1373D02*
X3507Y1373D01*
X3518Y1373D02*
X3541Y1373D01*
X3584Y1373D02*
X3607Y1373D01*
X3618Y1373D02*
X3641Y1373D01*
X3684Y1373D02*
X3707Y1373D01*
X3718Y1373D02*
X3741Y1373D01*
X5202Y1373D02*
X5218Y1373D01*
X5239Y1373D02*
X5255Y1373D01*
X3384Y1372D02*
X3409Y1372D01*
X3416Y1372D02*
X3441Y1372D01*
X3484Y1372D02*
X3509Y1372D01*
X3516Y1372D02*
X3541Y1372D01*
X3584Y1372D02*
X3609Y1372D01*
X3616Y1372D02*
X3641Y1372D01*
X3684Y1372D02*
X3709Y1372D01*
X3716Y1372D02*
X3741Y1372D01*
X5203Y1372D02*
X5219Y1372D01*
X5238Y1372D02*
X5254Y1372D01*
X3385Y1371D02*
X3440Y1371D01*
X3485Y1371D02*
X3540Y1371D01*
X3585Y1371D02*
X3640Y1371D01*
X3685Y1371D02*
X3740Y1371D01*
X5203Y1371D02*
X5222Y1371D01*
X5236Y1371D02*
X5254Y1371D01*
X3385Y1370D02*
X3440Y1370D01*
X3485Y1370D02*
X3540Y1370D01*
X3585Y1370D02*
X3640Y1370D01*
X3685Y1370D02*
X3740Y1370D01*
X5204Y1370D02*
X5226Y1370D01*
X5231Y1370D02*
X5253Y1370D01*
X3386Y1369D02*
X3440Y1369D01*
X3486Y1369D02*
X3539Y1369D01*
X3586Y1369D02*
X3639Y1369D01*
X3686Y1369D02*
X3739Y1369D01*
X5205Y1369D02*
X5252Y1369D01*
X3386Y1368D02*
X3439Y1368D01*
X3486Y1368D02*
X3539Y1368D01*
X3586Y1368D02*
X3639Y1368D01*
X3686Y1368D02*
X3739Y1368D01*
X5206Y1368D02*
X5251Y1368D01*
X3386Y1367D02*
X3439Y1367D01*
X3486Y1367D02*
X3539Y1367D01*
X3586Y1367D02*
X3639Y1367D01*
X3686Y1367D02*
X3739Y1367D01*
X5207Y1367D02*
X5251Y1367D01*
X3387Y1366D02*
X3438Y1366D01*
X3487Y1366D02*
X3538Y1366D01*
X3587Y1366D02*
X3638Y1366D01*
X3687Y1366D02*
X3738Y1366D01*
X5208Y1366D02*
X5250Y1366D01*
X3388Y1365D02*
X3437Y1365D01*
X3488Y1365D02*
X3537Y1365D01*
X3588Y1365D02*
X3637Y1365D01*
X3688Y1365D02*
X3737Y1365D01*
X5209Y1365D02*
X5248Y1365D01*
X3388Y1364D02*
X3437Y1364D01*
X3488Y1364D02*
X3537Y1364D01*
X3588Y1364D02*
X3637Y1364D01*
X3688Y1364D02*
X3737Y1364D01*
X5210Y1364D02*
X5247Y1364D01*
X3389Y1363D02*
X3436Y1363D01*
X3489Y1363D02*
X3536Y1363D01*
X3589Y1363D02*
X3636Y1363D01*
X3689Y1363D02*
X3736Y1363D01*
X5211Y1363D02*
X5246Y1363D01*
X3390Y1362D02*
X3435Y1362D01*
X3490Y1362D02*
X3535Y1362D01*
X3590Y1362D02*
X3635Y1362D01*
X3690Y1362D02*
X3735Y1362D01*
X5213Y1362D02*
X5244Y1362D01*
X3390Y1361D02*
X3435Y1361D01*
X3490Y1361D02*
X3535Y1361D01*
X3590Y1361D02*
X3635Y1361D01*
X3690Y1361D02*
X3735Y1361D01*
X5214Y1361D02*
X5243Y1361D01*
X3391Y1360D02*
X3434Y1360D01*
X3491Y1360D02*
X3534Y1360D01*
X3591Y1360D02*
X3634Y1360D01*
X3691Y1360D02*
X3734Y1360D01*
X5217Y1360D02*
X5241Y1360D01*
X3392Y1359D02*
X3433Y1359D01*
X3492Y1359D02*
X3533Y1359D01*
X3592Y1359D02*
X3633Y1359D01*
X3692Y1359D02*
X3733Y1359D01*
X5219Y1359D02*
X5238Y1359D01*
X3393Y1358D02*
X3432Y1358D01*
X3493Y1358D02*
X3532Y1358D01*
X3593Y1358D02*
X3632Y1358D01*
X3693Y1358D02*
X3732Y1358D01*
X5223Y1358D02*
X5234Y1358D01*
X3395Y1357D02*
X3430Y1357D01*
X3495Y1357D02*
X3530Y1357D01*
X3595Y1357D02*
X3630Y1357D01*
X3695Y1357D02*
X3730Y1357D01*
X3396Y1356D02*
X3429Y1356D01*
X3496Y1356D02*
X3529Y1356D01*
X3596Y1356D02*
X3629Y1356D01*
X3696Y1356D02*
X3729Y1356D01*
X3398Y1355D02*
X3427Y1355D01*
X3498Y1355D02*
X3527Y1355D01*
X3598Y1355D02*
X3627Y1355D01*
X3698Y1355D02*
X3727Y1355D01*
X3400Y1354D02*
X3425Y1354D01*
X3500Y1354D02*
X3525Y1354D01*
X3600Y1354D02*
X3625Y1354D01*
X3700Y1354D02*
X3725Y1354D01*
X3402Y1353D02*
X3423Y1353D01*
X3502Y1353D02*
X3523Y1353D01*
X3602Y1353D02*
X3623Y1353D01*
X3702Y1353D02*
X3723Y1353D01*
X3405Y1352D02*
X3420Y1352D01*
X3505Y1352D02*
X3520Y1352D01*
X3605Y1352D02*
X3620Y1352D01*
X3705Y1352D02*
X3720Y1352D01*
X3409Y1351D02*
X3416Y1351D01*
X3509Y1351D02*
X3516Y1351D01*
X3609Y1351D02*
X3616Y1351D01*
X3709Y1351D02*
X3716Y1351D01*
X5225Y1319D02*
X5232Y1319D01*
X5220Y1318D02*
X5237Y1318D01*
X5218Y1317D02*
X5240Y1317D01*
X5215Y1316D02*
X5242Y1316D01*
X5213Y1315D02*
X5244Y1315D01*
X5212Y1314D02*
X5245Y1314D01*
X5210Y1313D02*
X5247Y1313D01*
X5209Y1312D02*
X5248Y1312D01*
X5208Y1311D02*
X5249Y1311D01*
X5207Y1310D02*
X5250Y1310D01*
X5206Y1309D02*
X5251Y1309D01*
X5205Y1308D02*
X5252Y1308D01*
X5204Y1307D02*
X5253Y1307D01*
X5204Y1306D02*
X5223Y1306D01*
X5234Y1306D02*
X5253Y1306D01*
X5203Y1305D02*
X5220Y1305D01*
X5237Y1305D02*
X5254Y1305D01*
X5202Y1304D02*
X5218Y1304D01*
X5239Y1304D02*
X5255Y1304D01*
X5202Y1303D02*
X5217Y1303D01*
X5240Y1303D02*
X5255Y1303D01*
X5201Y1302D02*
X5216Y1302D01*
X5241Y1302D02*
X5256Y1302D01*
X5201Y1301D02*
X5215Y1301D01*
X5242Y1301D02*
X5256Y1301D01*
X5200Y1300D02*
X5214Y1300D01*
X5243Y1300D02*
X5257Y1300D01*
X5200Y1299D02*
X5213Y1299D01*
X5244Y1299D02*
X5257Y1299D01*
X5200Y1298D02*
X5212Y1298D01*
X5245Y1298D02*
X5257Y1298D01*
X5199Y1297D02*
X5212Y1297D01*
X5245Y1297D02*
X5258Y1297D01*
X5199Y1296D02*
X5211Y1296D01*
X5246Y1296D02*
X5258Y1296D01*
X5199Y1295D02*
X5211Y1295D01*
X5246Y1295D02*
X5258Y1295D01*
X5199Y1294D02*
X5211Y1294D01*
X5247Y1294D02*
X5258Y1294D01*
X5199Y1293D02*
X5210Y1293D01*
X5247Y1293D02*
X5259Y1293D01*
X5198Y1292D02*
X5210Y1292D01*
X5247Y1292D02*
X5259Y1292D01*
X5198Y1291D02*
X5210Y1291D01*
X5247Y1291D02*
X5259Y1291D01*
X5198Y1290D02*
X5210Y1290D01*
X5247Y1290D02*
X5259Y1290D01*
X5198Y1289D02*
X5210Y1289D01*
X5248Y1289D02*
X5259Y1289D01*
X5198Y1288D02*
X5210Y1288D01*
X5248Y1288D02*
X5259Y1288D01*
X5198Y1287D02*
X5210Y1287D01*
X5247Y1287D02*
X5259Y1287D01*
X5198Y1286D02*
X5210Y1286D01*
X5247Y1286D02*
X5259Y1286D01*
X5198Y1285D02*
X5210Y1285D01*
X5247Y1285D02*
X5259Y1285D01*
X5198Y1284D02*
X5210Y1284D01*
X5247Y1284D02*
X5259Y1284D01*
X5199Y1283D02*
X5210Y1283D01*
X5247Y1283D02*
X5259Y1283D01*
X5199Y1282D02*
X5211Y1282D01*
X5246Y1282D02*
X5258Y1282D01*
X5199Y1281D02*
X5211Y1281D01*
X5246Y1281D02*
X5258Y1281D01*
X5199Y1280D02*
X5212Y1280D01*
X5246Y1280D02*
X5258Y1280D01*
X5200Y1279D02*
X5212Y1279D01*
X5245Y1279D02*
X5258Y1279D01*
X5200Y1278D02*
X5213Y1278D01*
X5244Y1278D02*
X5257Y1278D01*
X5200Y1277D02*
X5214Y1277D01*
X5244Y1277D02*
X5257Y1277D01*
X5201Y1276D02*
X5214Y1276D01*
X5243Y1276D02*
X5256Y1276D01*
X5201Y1275D02*
X5215Y1275D01*
X5242Y1275D02*
X5256Y1275D01*
X5202Y1274D02*
X5216Y1274D01*
X5241Y1274D02*
X5256Y1274D01*
X5202Y1273D02*
X5218Y1273D01*
X5239Y1273D02*
X5255Y1273D01*
X5203Y1272D02*
X5219Y1272D01*
X5238Y1272D02*
X5254Y1272D01*
X5203Y1271D02*
X5222Y1271D01*
X5235Y1271D02*
X5254Y1271D01*
X5204Y1270D02*
X5226Y1270D01*
X5231Y1270D02*
X5253Y1270D01*
X5205Y1269D02*
X5252Y1269D01*
X5206Y1268D02*
X5251Y1268D01*
X5207Y1267D02*
X5250Y1267D01*
X5208Y1266D02*
X5250Y1266D01*
X5209Y1265D02*
X5248Y1265D01*
X5210Y1264D02*
X5247Y1264D01*
X5211Y1263D02*
X5246Y1263D01*
X5213Y1262D02*
X5244Y1262D01*
X4333Y1261D02*
X4347Y1261D01*
X5215Y1261D02*
X5243Y1261D01*
X4330Y1260D02*
X4351Y1260D01*
X5217Y1260D02*
X5241Y1260D01*
X4328Y1259D02*
X4353Y1259D01*
X5219Y1259D02*
X5238Y1259D01*
X4326Y1258D02*
X4355Y1258D01*
X5223Y1258D02*
X5234Y1258D01*
X4324Y1257D02*
X4357Y1257D01*
X4323Y1256D02*
X4358Y1256D01*
X4321Y1255D02*
X4359Y1255D01*
X4320Y1254D02*
X4361Y1254D01*
X4319Y1253D02*
X4362Y1253D01*
X4318Y1252D02*
X4363Y1252D01*
X4317Y1251D02*
X4364Y1251D01*
X4317Y1250D02*
X4364Y1250D01*
X4316Y1249D02*
X4336Y1249D01*
X4345Y1249D02*
X4365Y1249D01*
X4315Y1248D02*
X4333Y1248D01*
X4348Y1248D02*
X4366Y1248D01*
X4314Y1247D02*
X4331Y1247D01*
X4350Y1247D02*
X4366Y1247D01*
X4314Y1246D02*
X4329Y1246D01*
X4352Y1246D02*
X4367Y1246D01*
X4313Y1245D02*
X4328Y1245D01*
X4353Y1245D02*
X4368Y1245D01*
X4313Y1244D02*
X4327Y1244D01*
X4354Y1244D02*
X4368Y1244D01*
X4312Y1243D02*
X4326Y1243D01*
X4355Y1243D02*
X4368Y1243D01*
X4312Y1242D02*
X4325Y1242D01*
X4356Y1242D02*
X4369Y1242D01*
X4312Y1241D02*
X4324Y1241D01*
X4356Y1241D02*
X4369Y1241D01*
X4311Y1240D02*
X4324Y1240D01*
X4357Y1240D02*
X4370Y1240D01*
X4311Y1239D02*
X4323Y1239D01*
X4358Y1239D02*
X4370Y1239D01*
X4311Y1238D02*
X4323Y1238D01*
X4358Y1238D02*
X4370Y1238D01*
X4311Y1237D02*
X4322Y1237D01*
X4358Y1237D02*
X4370Y1237D01*
X4310Y1236D02*
X4322Y1236D01*
X4359Y1236D02*
X4370Y1236D01*
X4310Y1235D02*
X4322Y1235D01*
X4359Y1235D02*
X4371Y1235D01*
X4310Y1234D02*
X4322Y1234D01*
X4359Y1234D02*
X4371Y1234D01*
X4310Y1233D02*
X4322Y1233D01*
X4359Y1233D02*
X4371Y1233D01*
X4310Y1232D02*
X4322Y1232D01*
X4359Y1232D02*
X4371Y1232D01*
X4310Y1231D02*
X4321Y1231D01*
X4359Y1231D02*
X4371Y1231D01*
X4310Y1230D02*
X4322Y1230D01*
X4359Y1230D02*
X4371Y1230D01*
X4310Y1229D02*
X4322Y1229D01*
X4359Y1229D02*
X4371Y1229D01*
X4310Y1228D02*
X4322Y1228D01*
X4359Y1228D02*
X4371Y1228D01*
X4310Y1227D02*
X4322Y1227D01*
X4359Y1227D02*
X4371Y1227D01*
X4310Y1226D02*
X4322Y1226D01*
X4359Y1226D02*
X4370Y1226D01*
X4311Y1225D02*
X4323Y1225D01*
X4358Y1225D02*
X4370Y1225D01*
X4311Y1224D02*
X4323Y1224D01*
X4358Y1224D02*
X4370Y1224D01*
X4311Y1223D02*
X4323Y1223D01*
X4358Y1223D02*
X4370Y1223D01*
X4311Y1222D02*
X4324Y1222D01*
X4357Y1222D02*
X4370Y1222D01*
X4312Y1221D02*
X4324Y1221D01*
X4356Y1221D02*
X4369Y1221D01*
X4312Y1220D02*
X4325Y1220D01*
X4356Y1220D02*
X4369Y1220D01*
X4312Y1219D02*
X4326Y1219D01*
X4355Y1219D02*
X4368Y1219D01*
X5225Y1219D02*
X5232Y1219D01*
X4313Y1218D02*
X4327Y1218D01*
X4354Y1218D02*
X4368Y1218D01*
X5220Y1218D02*
X5237Y1218D01*
X4313Y1217D02*
X4328Y1217D01*
X4353Y1217D02*
X4367Y1217D01*
X5217Y1217D02*
X5240Y1217D01*
X4314Y1216D02*
X4329Y1216D01*
X4352Y1216D02*
X4367Y1216D01*
X5215Y1216D02*
X5242Y1216D01*
X4314Y1215D02*
X4331Y1215D01*
X4350Y1215D02*
X4366Y1215D01*
X5213Y1215D02*
X5244Y1215D01*
X4315Y1214D02*
X4333Y1214D01*
X4348Y1214D02*
X4366Y1214D01*
X5212Y1214D02*
X5245Y1214D01*
X4316Y1213D02*
X4336Y1213D01*
X4345Y1213D02*
X4365Y1213D01*
X5210Y1213D02*
X5247Y1213D01*
X4317Y1212D02*
X4364Y1212D01*
X5209Y1212D02*
X5248Y1212D01*
X4317Y1211D02*
X4364Y1211D01*
X5208Y1211D02*
X5249Y1211D01*
X4318Y1210D02*
X4363Y1210D01*
X5207Y1210D02*
X5250Y1210D01*
X4319Y1209D02*
X4362Y1209D01*
X5206Y1209D02*
X5251Y1209D01*
X4320Y1208D02*
X4361Y1208D01*
X5205Y1208D02*
X5252Y1208D01*
X4321Y1207D02*
X4359Y1207D01*
X5204Y1207D02*
X5253Y1207D01*
X4323Y1206D02*
X4358Y1206D01*
X5204Y1206D02*
X5223Y1206D01*
X5234Y1206D02*
X5253Y1206D01*
X4324Y1205D02*
X4357Y1205D01*
X5203Y1205D02*
X5220Y1205D01*
X5237Y1205D02*
X5254Y1205D01*
X4326Y1204D02*
X4355Y1204D01*
X5202Y1204D02*
X5218Y1204D01*
X5239Y1204D02*
X5255Y1204D01*
X4328Y1203D02*
X4353Y1203D01*
X5202Y1203D02*
X5217Y1203D01*
X5240Y1203D02*
X5255Y1203D01*
X4330Y1202D02*
X4351Y1202D01*
X5201Y1202D02*
X5216Y1202D01*
X5241Y1202D02*
X5256Y1202D01*
X4333Y1201D02*
X4347Y1201D01*
X5201Y1201D02*
X5215Y1201D01*
X5243Y1201D02*
X5256Y1201D01*
X5200Y1200D02*
X5214Y1200D01*
X5243Y1200D02*
X5257Y1200D01*
X5200Y1199D02*
X5213Y1199D01*
X5244Y1199D02*
X5257Y1199D01*
X5200Y1198D02*
X5212Y1198D01*
X5245Y1198D02*
X5257Y1198D01*
X5199Y1197D02*
X5212Y1197D01*
X5245Y1197D02*
X5258Y1197D01*
X5199Y1196D02*
X5211Y1196D01*
X5246Y1196D02*
X5258Y1196D01*
X5199Y1195D02*
X5211Y1195D01*
X5246Y1195D02*
X5258Y1195D01*
X5199Y1194D02*
X5211Y1194D01*
X5247Y1194D02*
X5258Y1194D01*
X5199Y1193D02*
X5210Y1193D01*
X5247Y1193D02*
X5259Y1193D01*
X5198Y1192D02*
X5210Y1192D01*
X5247Y1192D02*
X5259Y1192D01*
X5198Y1191D02*
X5210Y1191D01*
X5247Y1191D02*
X5259Y1191D01*
X5198Y1190D02*
X5210Y1190D01*
X5247Y1190D02*
X5259Y1190D01*
X5198Y1189D02*
X5210Y1189D01*
X5248Y1189D02*
X5259Y1189D01*
X5198Y1188D02*
X5210Y1188D01*
X5248Y1188D02*
X5259Y1188D01*
X5198Y1187D02*
X5210Y1187D01*
X5247Y1187D02*
X5259Y1187D01*
X5198Y1186D02*
X5210Y1186D01*
X5247Y1186D02*
X5259Y1186D01*
X5198Y1185D02*
X5210Y1185D01*
X5247Y1185D02*
X5259Y1185D01*
X5198Y1184D02*
X5210Y1184D01*
X5247Y1184D02*
X5259Y1184D01*
X5199Y1183D02*
X5210Y1183D01*
X5247Y1183D02*
X5259Y1183D01*
X5199Y1182D02*
X5211Y1182D01*
X5246Y1182D02*
X5258Y1182D01*
X5199Y1181D02*
X5211Y1181D01*
X5246Y1181D02*
X5258Y1181D01*
X5199Y1180D02*
X5212Y1180D01*
X5246Y1180D02*
X5258Y1180D01*
X5200Y1179D02*
X5212Y1179D01*
X5245Y1179D02*
X5258Y1179D01*
X5200Y1178D02*
X5213Y1178D01*
X5244Y1178D02*
X5257Y1178D01*
X5200Y1177D02*
X5214Y1177D01*
X5244Y1177D02*
X5257Y1177D01*
X5201Y1176D02*
X5214Y1176D01*
X5243Y1176D02*
X5256Y1176D01*
X5201Y1175D02*
X5215Y1175D01*
X5242Y1175D02*
X5256Y1175D01*
X5202Y1174D02*
X5216Y1174D01*
X5241Y1174D02*
X5256Y1174D01*
X5202Y1173D02*
X5218Y1173D01*
X5239Y1173D02*
X5255Y1173D01*
X5203Y1172D02*
X5220Y1172D01*
X5238Y1172D02*
X5254Y1172D01*
X5203Y1171D02*
X5222Y1171D01*
X5235Y1171D02*
X5254Y1171D01*
X5204Y1170D02*
X5226Y1170D01*
X5231Y1170D02*
X5253Y1170D01*
X5205Y1169D02*
X5252Y1169D01*
X5206Y1168D02*
X5251Y1168D01*
X5207Y1167D02*
X5250Y1167D01*
X5208Y1166D02*
X5249Y1166D01*
X5209Y1165D02*
X5248Y1165D01*
X5210Y1164D02*
X5247Y1164D01*
X5211Y1163D02*
X5246Y1163D01*
X5213Y1162D02*
X5244Y1162D01*
X4333Y1161D02*
X4348Y1161D01*
X5215Y1161D02*
X5243Y1161D01*
X4330Y1160D02*
X4351Y1160D01*
X5217Y1160D02*
X5241Y1160D01*
X4328Y1159D02*
X4353Y1159D01*
X5219Y1159D02*
X5238Y1159D01*
X4326Y1158D02*
X4355Y1158D01*
X5223Y1158D02*
X5234Y1158D01*
X4324Y1157D02*
X4357Y1157D01*
X4323Y1156D02*
X4358Y1156D01*
X4321Y1155D02*
X4360Y1155D01*
X4320Y1154D02*
X4361Y1154D01*
X4319Y1153D02*
X4362Y1153D01*
X4318Y1152D02*
X4363Y1152D01*
X4317Y1151D02*
X4364Y1151D01*
X4316Y1150D02*
X4364Y1150D01*
X4316Y1149D02*
X4336Y1149D01*
X4345Y1149D02*
X4365Y1149D01*
X4315Y1148D02*
X4333Y1148D01*
X4348Y1148D02*
X4366Y1148D01*
X4314Y1147D02*
X4331Y1147D01*
X4350Y1147D02*
X4366Y1147D01*
X4314Y1146D02*
X4329Y1146D01*
X4352Y1146D02*
X4367Y1146D01*
X4313Y1145D02*
X4328Y1145D01*
X4353Y1145D02*
X4368Y1145D01*
X4313Y1144D02*
X4327Y1144D01*
X4354Y1144D02*
X4368Y1144D01*
X4312Y1143D02*
X4326Y1143D01*
X4355Y1143D02*
X4368Y1143D01*
X4312Y1142D02*
X4325Y1142D01*
X4356Y1142D02*
X4369Y1142D01*
X4312Y1141D02*
X4324Y1141D01*
X4356Y1141D02*
X4369Y1141D01*
X4311Y1140D02*
X4324Y1140D01*
X4357Y1140D02*
X4370Y1140D01*
X4311Y1139D02*
X4323Y1139D01*
X4358Y1139D02*
X4370Y1139D01*
X4311Y1138D02*
X4323Y1138D01*
X4358Y1138D02*
X4370Y1138D01*
X4311Y1137D02*
X4322Y1137D01*
X4358Y1137D02*
X4370Y1137D01*
X4310Y1136D02*
X4322Y1136D01*
X4359Y1136D02*
X4370Y1136D01*
X4310Y1135D02*
X4322Y1135D01*
X4359Y1135D02*
X4371Y1135D01*
X4310Y1134D02*
X4322Y1134D01*
X4359Y1134D02*
X4371Y1134D01*
X4310Y1133D02*
X4322Y1133D01*
X4359Y1133D02*
X4371Y1133D01*
X4310Y1132D02*
X4322Y1132D01*
X4359Y1132D02*
X4371Y1132D01*
X4310Y1131D02*
X4321Y1131D01*
X4359Y1131D02*
X4371Y1131D01*
X4310Y1130D02*
X4322Y1130D01*
X4359Y1130D02*
X4371Y1130D01*
X4310Y1129D02*
X4322Y1129D01*
X4359Y1129D02*
X4371Y1129D01*
X4310Y1128D02*
X4322Y1128D01*
X4359Y1128D02*
X4371Y1128D01*
X4310Y1127D02*
X4322Y1127D01*
X4359Y1127D02*
X4371Y1127D01*
X4310Y1126D02*
X4322Y1126D01*
X4359Y1126D02*
X4370Y1126D01*
X4311Y1125D02*
X4323Y1125D01*
X4358Y1125D02*
X4370Y1125D01*
X4311Y1124D02*
X4323Y1124D01*
X4358Y1124D02*
X4370Y1124D01*
X4311Y1123D02*
X4323Y1123D01*
X4358Y1123D02*
X4370Y1123D01*
X4311Y1122D02*
X4324Y1122D01*
X4357Y1122D02*
X4370Y1122D01*
X4312Y1121D02*
X4324Y1121D01*
X4356Y1121D02*
X4369Y1121D01*
X4312Y1120D02*
X4325Y1120D01*
X4356Y1120D02*
X4369Y1120D01*
X4312Y1119D02*
X4326Y1119D01*
X4355Y1119D02*
X4368Y1119D01*
X4313Y1118D02*
X4327Y1118D01*
X4354Y1118D02*
X4368Y1118D01*
X4313Y1117D02*
X4328Y1117D01*
X4353Y1117D02*
X4367Y1117D01*
X4314Y1116D02*
X4329Y1116D01*
X4352Y1116D02*
X4367Y1116D01*
X4314Y1115D02*
X4331Y1115D01*
X4350Y1115D02*
X4366Y1115D01*
X4315Y1114D02*
X4333Y1114D01*
X4348Y1114D02*
X4366Y1114D01*
X4316Y1113D02*
X4336Y1113D01*
X4345Y1113D02*
X4365Y1113D01*
X4317Y1112D02*
X4364Y1112D01*
X4317Y1111D02*
X4363Y1111D01*
X5306Y1111D02*
X5319Y1111D01*
X4318Y1110D02*
X4363Y1110D01*
X5302Y1110D02*
X5322Y1110D01*
X4319Y1109D02*
X4362Y1109D01*
X5300Y1109D02*
X5325Y1109D01*
X4320Y1108D02*
X4361Y1108D01*
X5298Y1108D02*
X5327Y1108D01*
X4321Y1107D02*
X4359Y1107D01*
X5296Y1107D02*
X5328Y1107D01*
X4323Y1106D02*
X4358Y1106D01*
X5295Y1106D02*
X5330Y1106D01*
X4324Y1105D02*
X4357Y1105D01*
X5293Y1105D02*
X5331Y1105D01*
X4326Y1104D02*
X4355Y1104D01*
X5292Y1104D02*
X5332Y1104D01*
X4328Y1103D02*
X4353Y1103D01*
X5291Y1103D02*
X5333Y1103D01*
X4330Y1102D02*
X4351Y1102D01*
X5290Y1102D02*
X5334Y1102D01*
X4334Y1101D02*
X4347Y1101D01*
X5289Y1101D02*
X5335Y1101D01*
X5289Y1100D02*
X5336Y1100D01*
X5288Y1099D02*
X5308Y1099D01*
X5316Y1099D02*
X5337Y1099D01*
X5287Y1098D02*
X5305Y1098D01*
X5320Y1098D02*
X5338Y1098D01*
X5286Y1097D02*
X5303Y1097D01*
X5322Y1097D02*
X5338Y1097D01*
X5286Y1096D02*
X5301Y1096D01*
X5323Y1096D02*
X5339Y1096D01*
X5285Y1095D02*
X5300Y1095D01*
X5325Y1095D02*
X5339Y1095D01*
X5285Y1094D02*
X5299Y1094D01*
X5326Y1094D02*
X5340Y1094D01*
X5284Y1093D02*
X5298Y1093D01*
X5327Y1093D02*
X5340Y1093D01*
X5284Y1092D02*
X5297Y1092D01*
X5327Y1092D02*
X5341Y1092D01*
X5284Y1091D02*
X5296Y1091D01*
X5328Y1091D02*
X5341Y1091D01*
X5283Y1090D02*
X5296Y1090D01*
X5329Y1090D02*
X5341Y1090D01*
X5283Y1089D02*
X5295Y1089D01*
X5329Y1089D02*
X5342Y1089D01*
X5283Y1088D02*
X5295Y1088D01*
X5330Y1088D02*
X5342Y1088D01*
X5282Y1087D02*
X5294Y1087D01*
X5330Y1087D02*
X5342Y1087D01*
X5282Y1086D02*
X5294Y1086D01*
X5331Y1086D02*
X5342Y1086D01*
X5282Y1085D02*
X5294Y1085D01*
X5331Y1085D02*
X5342Y1085D01*
X5282Y1084D02*
X5294Y1084D01*
X5331Y1084D02*
X5343Y1084D01*
X5282Y1083D02*
X5294Y1083D01*
X5331Y1083D02*
X5343Y1083D01*
X5282Y1082D02*
X5293Y1082D01*
X5331Y1082D02*
X5343Y1082D01*
X5282Y1081D02*
X5293Y1081D01*
X5331Y1081D02*
X5343Y1081D01*
X5282Y1080D02*
X5293Y1080D01*
X5331Y1080D02*
X5343Y1080D01*
X5282Y1079D02*
X5293Y1079D01*
X5331Y1079D02*
X5343Y1079D01*
X5282Y1078D02*
X5294Y1078D01*
X5331Y1078D02*
X5343Y1078D01*
X5282Y1077D02*
X5294Y1077D01*
X5331Y1077D02*
X5343Y1077D01*
X5282Y1076D02*
X5294Y1076D01*
X5331Y1076D02*
X5342Y1076D01*
X5282Y1075D02*
X5294Y1075D01*
X5330Y1075D02*
X5342Y1075D01*
X5283Y1074D02*
X5295Y1074D01*
X5330Y1074D02*
X5342Y1074D01*
X5283Y1073D02*
X5295Y1073D01*
X5330Y1073D02*
X5342Y1073D01*
X5283Y1072D02*
X5296Y1072D01*
X5329Y1072D02*
X5341Y1072D01*
X5283Y1071D02*
X5296Y1071D01*
X5328Y1071D02*
X5341Y1071D01*
X5284Y1070D02*
X5297Y1070D01*
X5328Y1070D02*
X5341Y1070D01*
X5284Y1069D02*
X5298Y1069D01*
X5327Y1069D02*
X5340Y1069D01*
X5285Y1068D02*
X5299Y1068D01*
X5326Y1068D02*
X5340Y1068D01*
X5285Y1067D02*
X5300Y1067D01*
X5325Y1067D02*
X5339Y1067D01*
X5286Y1066D02*
X5301Y1066D01*
X5324Y1066D02*
X5339Y1066D01*
X5286Y1065D02*
X5302Y1065D01*
X5322Y1065D02*
X5338Y1065D01*
X5287Y1064D02*
X5304Y1064D01*
X5320Y1064D02*
X5338Y1064D01*
X5288Y1063D02*
X5307Y1063D01*
X5317Y1063D02*
X5337Y1063D01*
X5288Y1062D02*
X5336Y1062D01*
X4333Y1061D02*
X4348Y1061D01*
X5289Y1061D02*
X5336Y1061D01*
X4330Y1060D02*
X4351Y1060D01*
X5290Y1060D02*
X5335Y1060D01*
X4328Y1059D02*
X4353Y1059D01*
X5291Y1059D02*
X5334Y1059D01*
X4326Y1058D02*
X4355Y1058D01*
X5292Y1058D02*
X5333Y1058D01*
X4324Y1057D02*
X4357Y1057D01*
X5293Y1057D02*
X5332Y1057D01*
X4323Y1056D02*
X4358Y1056D01*
X5294Y1056D02*
X5330Y1056D01*
X4321Y1055D02*
X4360Y1055D01*
X5296Y1055D02*
X5329Y1055D01*
X4320Y1054D02*
X4361Y1054D01*
X5297Y1054D02*
X5327Y1054D01*
X4319Y1053D02*
X4362Y1053D01*
X5299Y1053D02*
X5325Y1053D01*
X4318Y1052D02*
X4363Y1052D01*
X5302Y1052D02*
X5323Y1052D01*
X4317Y1051D02*
X4364Y1051D01*
X5305Y1051D02*
X5320Y1051D01*
X4316Y1050D02*
X4364Y1050D01*
X5311Y1050D02*
X5314Y1050D01*
X4316Y1049D02*
X4336Y1049D01*
X4345Y1049D02*
X4365Y1049D01*
X4315Y1048D02*
X4333Y1048D01*
X4348Y1048D02*
X4366Y1048D01*
X4314Y1047D02*
X4331Y1047D01*
X4350Y1047D02*
X4366Y1047D01*
X4314Y1046D02*
X4329Y1046D01*
X4352Y1046D02*
X4367Y1046D01*
X4313Y1045D02*
X4328Y1045D01*
X4353Y1045D02*
X4368Y1045D01*
X4313Y1044D02*
X4327Y1044D01*
X4354Y1044D02*
X4368Y1044D01*
X4312Y1043D02*
X4326Y1043D01*
X4355Y1043D02*
X4368Y1043D01*
X4312Y1042D02*
X4325Y1042D01*
X4356Y1042D02*
X4369Y1042D01*
X4312Y1041D02*
X4324Y1041D01*
X4356Y1041D02*
X4369Y1041D01*
X4311Y1040D02*
X4324Y1040D01*
X4357Y1040D02*
X4370Y1040D01*
X4311Y1039D02*
X4323Y1039D01*
X4358Y1039D02*
X4370Y1039D01*
X4311Y1038D02*
X4323Y1038D01*
X4358Y1038D02*
X4370Y1038D01*
X4311Y1037D02*
X4322Y1037D01*
X4358Y1037D02*
X4370Y1037D01*
X4310Y1036D02*
X4322Y1036D01*
X4359Y1036D02*
X4370Y1036D01*
X4310Y1035D02*
X4322Y1035D01*
X4359Y1035D02*
X4371Y1035D01*
X4310Y1034D02*
X4322Y1034D01*
X4359Y1034D02*
X4371Y1034D01*
X4310Y1033D02*
X4322Y1033D01*
X4359Y1033D02*
X4371Y1033D01*
X4310Y1032D02*
X4322Y1032D01*
X4359Y1032D02*
X4371Y1032D01*
X4310Y1031D02*
X4321Y1031D01*
X4359Y1031D02*
X4371Y1031D01*
X4310Y1030D02*
X4322Y1030D01*
X4359Y1030D02*
X4371Y1030D01*
X4310Y1029D02*
X4322Y1029D01*
X4359Y1029D02*
X4371Y1029D01*
X4310Y1028D02*
X4322Y1028D01*
X4359Y1028D02*
X4371Y1028D01*
X4310Y1027D02*
X4322Y1027D01*
X4359Y1027D02*
X4371Y1027D01*
X4310Y1026D02*
X4322Y1026D01*
X4359Y1026D02*
X4370Y1026D01*
X4311Y1025D02*
X4323Y1025D01*
X4358Y1025D02*
X4370Y1025D01*
X4311Y1024D02*
X4323Y1024D01*
X4358Y1024D02*
X4370Y1024D01*
X4311Y1023D02*
X4323Y1023D01*
X4358Y1023D02*
X4370Y1023D01*
X4311Y1022D02*
X4324Y1022D01*
X4357Y1022D02*
X4370Y1022D01*
X4312Y1021D02*
X4324Y1021D01*
X4356Y1021D02*
X4369Y1021D01*
X4312Y1020D02*
X4325Y1020D01*
X4356Y1020D02*
X4369Y1020D01*
X4312Y1019D02*
X4326Y1019D01*
X4355Y1019D02*
X4368Y1019D01*
X4313Y1018D02*
X4327Y1018D01*
X4354Y1018D02*
X4368Y1018D01*
X4313Y1017D02*
X4328Y1017D01*
X4353Y1017D02*
X4367Y1017D01*
X4314Y1016D02*
X4329Y1016D01*
X4352Y1016D02*
X4367Y1016D01*
X4314Y1015D02*
X4331Y1015D01*
X4350Y1015D02*
X4366Y1015D01*
X4315Y1014D02*
X4333Y1014D01*
X4348Y1014D02*
X4366Y1014D01*
X4316Y1013D02*
X4336Y1013D01*
X4345Y1013D02*
X4365Y1013D01*
X4317Y1012D02*
X4364Y1012D01*
X4317Y1011D02*
X4363Y1011D01*
X5306Y1011D02*
X5319Y1011D01*
X4318Y1010D02*
X4363Y1010D01*
X5302Y1010D02*
X5322Y1010D01*
X4319Y1009D02*
X4362Y1009D01*
X5300Y1009D02*
X5325Y1009D01*
X4320Y1008D02*
X4361Y1008D01*
X5298Y1008D02*
X5327Y1008D01*
X4321Y1007D02*
X4359Y1007D01*
X5296Y1007D02*
X5328Y1007D01*
X4323Y1006D02*
X4358Y1006D01*
X5295Y1006D02*
X5330Y1006D01*
X4324Y1005D02*
X4357Y1005D01*
X5293Y1005D02*
X5331Y1005D01*
X4326Y1004D02*
X4355Y1004D01*
X5292Y1004D02*
X5332Y1004D01*
X4328Y1003D02*
X4353Y1003D01*
X5291Y1003D02*
X5333Y1003D01*
X4330Y1002D02*
X4350Y1002D01*
X5290Y1002D02*
X5334Y1002D01*
X4334Y1001D02*
X4347Y1001D01*
X5289Y1001D02*
X5335Y1001D01*
X5289Y1000D02*
X5336Y1000D01*
X5288Y999D02*
X5308Y999D01*
X5316Y999D02*
X5337Y999D01*
X5287Y998D02*
X5305Y998D01*
X5320Y998D02*
X5338Y998D01*
X5286Y997D02*
X5303Y997D01*
X5322Y997D02*
X5338Y997D01*
X5286Y996D02*
X5301Y996D01*
X5323Y996D02*
X5339Y996D01*
X5285Y995D02*
X5300Y995D01*
X5325Y995D02*
X5339Y995D01*
X5285Y994D02*
X5299Y994D01*
X5326Y994D02*
X5340Y994D01*
X5284Y993D02*
X5298Y993D01*
X5327Y993D02*
X5340Y993D01*
X5284Y992D02*
X5297Y992D01*
X5328Y992D02*
X5341Y992D01*
X5284Y991D02*
X5296Y991D01*
X5328Y991D02*
X5341Y991D01*
X5283Y990D02*
X5296Y990D01*
X5329Y990D02*
X5341Y990D01*
X5283Y989D02*
X5295Y989D01*
X5329Y989D02*
X5342Y989D01*
X5283Y988D02*
X5295Y988D01*
X5330Y988D02*
X5342Y988D01*
X5282Y987D02*
X5294Y987D01*
X5330Y987D02*
X5342Y987D01*
X5282Y986D02*
X5294Y986D01*
X5331Y986D02*
X5342Y986D01*
X5282Y985D02*
X5294Y985D01*
X5331Y985D02*
X5342Y985D01*
X5282Y984D02*
X5294Y984D01*
X5331Y984D02*
X5343Y984D01*
X5282Y983D02*
X5294Y983D01*
X5331Y983D02*
X5343Y983D01*
X5282Y982D02*
X5293Y982D01*
X5331Y982D02*
X5343Y982D01*
X5282Y981D02*
X5293Y981D01*
X5331Y981D02*
X5343Y981D01*
X5282Y980D02*
X5293Y980D01*
X5331Y980D02*
X5343Y980D01*
X5282Y979D02*
X5294Y979D01*
X5331Y979D02*
X5343Y979D01*
X5282Y978D02*
X5294Y978D01*
X5331Y978D02*
X5343Y978D01*
X5282Y977D02*
X5294Y977D01*
X5331Y977D02*
X5343Y977D01*
X5282Y976D02*
X5294Y976D01*
X5331Y976D02*
X5342Y976D01*
X5282Y975D02*
X5294Y975D01*
X5330Y975D02*
X5342Y975D01*
X5283Y974D02*
X5295Y974D01*
X5330Y974D02*
X5342Y974D01*
X5283Y973D02*
X5295Y973D01*
X5330Y973D02*
X5342Y973D01*
X5283Y972D02*
X5296Y972D01*
X5329Y972D02*
X5341Y972D01*
X5283Y971D02*
X5296Y971D01*
X5328Y971D02*
X5341Y971D01*
X5284Y970D02*
X5297Y970D01*
X5328Y970D02*
X5341Y970D01*
X5284Y969D02*
X5298Y969D01*
X5327Y969D02*
X5340Y969D01*
X5285Y968D02*
X5299Y968D01*
X5326Y968D02*
X5340Y968D01*
X5285Y967D02*
X5300Y967D01*
X5325Y967D02*
X5339Y967D01*
X5286Y966D02*
X5301Y966D01*
X5324Y966D02*
X5339Y966D01*
X5286Y965D02*
X5302Y965D01*
X5322Y965D02*
X5338Y965D01*
X5287Y964D02*
X5304Y964D01*
X5320Y964D02*
X5338Y964D01*
X5288Y963D02*
X5307Y963D01*
X5317Y963D02*
X5337Y963D01*
X4340Y962D02*
X4341Y962D01*
X5288Y962D02*
X5336Y962D01*
X4333Y961D02*
X4348Y961D01*
X5289Y961D02*
X5336Y961D01*
X4330Y960D02*
X4351Y960D01*
X5290Y960D02*
X5335Y960D01*
X4328Y959D02*
X4353Y959D01*
X5291Y959D02*
X5334Y959D01*
X4326Y958D02*
X4355Y958D01*
X5292Y958D02*
X5333Y958D01*
X4324Y957D02*
X4357Y957D01*
X5293Y957D02*
X5331Y957D01*
X4323Y956D02*
X4358Y956D01*
X5294Y956D02*
X5330Y956D01*
X4321Y955D02*
X4360Y955D01*
X5296Y955D02*
X5329Y955D01*
X4320Y954D02*
X4361Y954D01*
X5297Y954D02*
X5327Y954D01*
X4319Y953D02*
X4362Y953D01*
X5299Y953D02*
X5325Y953D01*
X4318Y952D02*
X4363Y952D01*
X5302Y952D02*
X5323Y952D01*
X4317Y951D02*
X4364Y951D01*
X5305Y951D02*
X5320Y951D01*
X4316Y950D02*
X4364Y950D01*
X5311Y950D02*
X5313Y950D01*
X4316Y949D02*
X4336Y949D01*
X4345Y949D02*
X4365Y949D01*
X4315Y948D02*
X4333Y948D01*
X4348Y948D02*
X4366Y948D01*
X4314Y947D02*
X4331Y947D01*
X4350Y947D02*
X4366Y947D01*
X4314Y946D02*
X4329Y946D01*
X4352Y946D02*
X4367Y946D01*
X4313Y945D02*
X4328Y945D01*
X4353Y945D02*
X4368Y945D01*
X4313Y944D02*
X4327Y944D01*
X4354Y944D02*
X4368Y944D01*
X4312Y943D02*
X4326Y943D01*
X4355Y943D02*
X4368Y943D01*
X4312Y942D02*
X4325Y942D01*
X4356Y942D02*
X4369Y942D01*
X4312Y941D02*
X4324Y941D01*
X4357Y941D02*
X4369Y941D01*
X4311Y940D02*
X4324Y940D01*
X4357Y940D02*
X4370Y940D01*
X4311Y939D02*
X4323Y939D01*
X4358Y939D02*
X4370Y939D01*
X4311Y938D02*
X4323Y938D01*
X4358Y938D02*
X4370Y938D01*
X4311Y937D02*
X4322Y937D01*
X4358Y937D02*
X4370Y937D01*
X4310Y936D02*
X4322Y936D01*
X4359Y936D02*
X4370Y936D01*
X4310Y935D02*
X4322Y935D01*
X4359Y935D02*
X4371Y935D01*
X4310Y934D02*
X4322Y934D01*
X4359Y934D02*
X4371Y934D01*
X4310Y933D02*
X4322Y933D01*
X4359Y933D02*
X4371Y933D01*
X4310Y932D02*
X4322Y932D01*
X4359Y932D02*
X4371Y932D01*
X4310Y931D02*
X4321Y931D01*
X4359Y931D02*
X4371Y931D01*
X4310Y930D02*
X4322Y930D01*
X4359Y930D02*
X4371Y930D01*
X4310Y929D02*
X4322Y929D01*
X4359Y929D02*
X4371Y929D01*
X4310Y928D02*
X4322Y928D01*
X4359Y928D02*
X4371Y928D01*
X4310Y927D02*
X4322Y927D01*
X4359Y927D02*
X4371Y927D01*
X4310Y926D02*
X4322Y926D01*
X4359Y926D02*
X4370Y926D01*
X4311Y925D02*
X4323Y925D01*
X4358Y925D02*
X4370Y925D01*
X4311Y924D02*
X4323Y924D01*
X4358Y924D02*
X4370Y924D01*
X4311Y923D02*
X4323Y923D01*
X4358Y923D02*
X4370Y923D01*
X4311Y922D02*
X4324Y922D01*
X4357Y922D02*
X4370Y922D01*
X4312Y921D02*
X4324Y921D01*
X4356Y921D02*
X4369Y921D01*
X4312Y920D02*
X4325Y920D01*
X4356Y920D02*
X4369Y920D01*
X4312Y919D02*
X4326Y919D01*
X4355Y919D02*
X4368Y919D01*
X4313Y918D02*
X4327Y918D01*
X4354Y918D02*
X4368Y918D01*
X4313Y917D02*
X4328Y917D01*
X4353Y917D02*
X4367Y917D01*
X4314Y916D02*
X4329Y916D01*
X4352Y916D02*
X4367Y916D01*
X4315Y915D02*
X4331Y915D01*
X4350Y915D02*
X4366Y915D01*
X4315Y914D02*
X4333Y914D01*
X4348Y914D02*
X4366Y914D01*
X4316Y913D02*
X4336Y913D01*
X4345Y913D02*
X4365Y913D01*
X4317Y912D02*
X4364Y912D01*
X4317Y911D02*
X4363Y911D01*
X5306Y911D02*
X5319Y911D01*
X4318Y910D02*
X4363Y910D01*
X5302Y910D02*
X5322Y910D01*
X4319Y909D02*
X4362Y909D01*
X5300Y909D02*
X5325Y909D01*
X4320Y908D02*
X4360Y908D01*
X5298Y908D02*
X5327Y908D01*
X4322Y907D02*
X4359Y907D01*
X5296Y907D02*
X5328Y907D01*
X4323Y906D02*
X4358Y906D01*
X5295Y906D02*
X5330Y906D01*
X4324Y905D02*
X4357Y905D01*
X5293Y905D02*
X5331Y905D01*
X4326Y904D02*
X4355Y904D01*
X5292Y904D02*
X5332Y904D01*
X4328Y903D02*
X4353Y903D01*
X5291Y903D02*
X5333Y903D01*
X4330Y902D02*
X4350Y902D01*
X5290Y902D02*
X5334Y902D01*
X4334Y901D02*
X4347Y901D01*
X5289Y901D02*
X5335Y901D01*
X5288Y900D02*
X5336Y900D01*
X5288Y899D02*
X5308Y899D01*
X5317Y899D02*
X5337Y899D01*
X5287Y898D02*
X5305Y898D01*
X5320Y898D02*
X5338Y898D01*
X5286Y897D02*
X5303Y897D01*
X5322Y897D02*
X5338Y897D01*
X5286Y896D02*
X5301Y896D01*
X5323Y896D02*
X5339Y896D01*
X5285Y895D02*
X5300Y895D01*
X5325Y895D02*
X5339Y895D01*
X5285Y894D02*
X5299Y894D01*
X5326Y894D02*
X5340Y894D01*
X5284Y893D02*
X5298Y893D01*
X5327Y893D02*
X5340Y893D01*
X5284Y892D02*
X5297Y892D01*
X5328Y892D02*
X5341Y892D01*
X5284Y891D02*
X5296Y891D01*
X5328Y891D02*
X5341Y891D01*
X5283Y890D02*
X5296Y890D01*
X5329Y890D02*
X5341Y890D01*
X5283Y889D02*
X5295Y889D01*
X5329Y889D02*
X5342Y889D01*
X5283Y888D02*
X5295Y888D01*
X5330Y888D02*
X5342Y888D01*
X5282Y887D02*
X5294Y887D01*
X5330Y887D02*
X5342Y887D01*
X5282Y886D02*
X5294Y886D01*
X5331Y886D02*
X5342Y886D01*
X5282Y885D02*
X5294Y885D01*
X5331Y885D02*
X5342Y885D01*
X5282Y884D02*
X5294Y884D01*
X5331Y884D02*
X5343Y884D01*
X5282Y883D02*
X5294Y883D01*
X5331Y883D02*
X5343Y883D01*
X5282Y882D02*
X5293Y882D01*
X5331Y882D02*
X5343Y882D01*
X5282Y881D02*
X5293Y881D01*
X5331Y881D02*
X5343Y881D01*
X5282Y880D02*
X5293Y880D01*
X5331Y880D02*
X5343Y880D01*
X5282Y879D02*
X5293Y879D01*
X5331Y879D02*
X5343Y879D01*
X5282Y878D02*
X5294Y878D01*
X5331Y878D02*
X5343Y878D01*
X5282Y877D02*
X5294Y877D01*
X5331Y877D02*
X5342Y877D01*
X5282Y876D02*
X5294Y876D01*
X5331Y876D02*
X5342Y876D01*
X5282Y875D02*
X5294Y875D01*
X5330Y875D02*
X5342Y875D01*
X5283Y874D02*
X5295Y874D01*
X5330Y874D02*
X5342Y874D01*
X5283Y873D02*
X5295Y873D01*
X5329Y873D02*
X5342Y873D01*
X5283Y872D02*
X5296Y872D01*
X5329Y872D02*
X5341Y872D01*
X5283Y871D02*
X5296Y871D01*
X5328Y871D02*
X5341Y871D01*
X5284Y870D02*
X5297Y870D01*
X5328Y870D02*
X5341Y870D01*
X5284Y869D02*
X5298Y869D01*
X5327Y869D02*
X5340Y869D01*
X5285Y868D02*
X5299Y868D01*
X5326Y868D02*
X5340Y868D01*
X5285Y867D02*
X5300Y867D01*
X5325Y867D02*
X5339Y867D01*
X5286Y866D02*
X5301Y866D01*
X5324Y866D02*
X5339Y866D01*
X5286Y865D02*
X5302Y865D01*
X5322Y865D02*
X5338Y865D01*
X5287Y864D02*
X5304Y864D01*
X5320Y864D02*
X5338Y864D01*
X5288Y863D02*
X5307Y863D01*
X5317Y863D02*
X5337Y863D01*
X4340Y862D02*
X4341Y862D01*
X5288Y862D02*
X5336Y862D01*
X4333Y861D02*
X4348Y861D01*
X5289Y861D02*
X5336Y861D01*
X4330Y860D02*
X4351Y860D01*
X5290Y860D02*
X5335Y860D01*
X4328Y859D02*
X4353Y859D01*
X5291Y859D02*
X5334Y859D01*
X4326Y858D02*
X4355Y858D01*
X5292Y858D02*
X5333Y858D01*
X4324Y857D02*
X4357Y857D01*
X5293Y857D02*
X5331Y857D01*
X4323Y856D02*
X4358Y856D01*
X5294Y856D02*
X5330Y856D01*
X4321Y855D02*
X4360Y855D01*
X5296Y855D02*
X5329Y855D01*
X4320Y854D02*
X4361Y854D01*
X5298Y854D02*
X5327Y854D01*
X4319Y853D02*
X4362Y853D01*
X5299Y853D02*
X5325Y853D01*
X4318Y852D02*
X4363Y852D01*
X5302Y852D02*
X5323Y852D01*
X4317Y851D02*
X4364Y851D01*
X5305Y851D02*
X5320Y851D01*
X4316Y850D02*
X4364Y850D01*
X5312Y850D02*
X5313Y850D01*
X4316Y849D02*
X4335Y849D01*
X4346Y849D02*
X4365Y849D01*
X4315Y848D02*
X4332Y848D01*
X4348Y848D02*
X4366Y848D01*
X4314Y847D02*
X4331Y847D01*
X4350Y847D02*
X4366Y847D01*
X4314Y846D02*
X4329Y846D01*
X4352Y846D02*
X4367Y846D01*
X4313Y845D02*
X4328Y845D01*
X4353Y845D02*
X4368Y845D01*
X4313Y844D02*
X4327Y844D01*
X4354Y844D02*
X4368Y844D01*
X4312Y843D02*
X4326Y843D01*
X4355Y843D02*
X4369Y843D01*
X4312Y842D02*
X4325Y842D01*
X4356Y842D02*
X4369Y842D01*
X4312Y841D02*
X4324Y841D01*
X4357Y841D02*
X4369Y841D01*
X4311Y840D02*
X4324Y840D01*
X4357Y840D02*
X4370Y840D01*
X4311Y839D02*
X4323Y839D01*
X4358Y839D02*
X4370Y839D01*
X4311Y838D02*
X4323Y838D01*
X4358Y838D02*
X4370Y838D01*
X4311Y837D02*
X4322Y837D01*
X4358Y837D02*
X4370Y837D01*
X4310Y836D02*
X4322Y836D01*
X4359Y836D02*
X4370Y836D01*
X4310Y835D02*
X4322Y835D01*
X4359Y835D02*
X4371Y835D01*
X4310Y834D02*
X4322Y834D01*
X4359Y834D02*
X4371Y834D01*
X4310Y833D02*
X4322Y833D01*
X4359Y833D02*
X4371Y833D01*
X4310Y832D02*
X4322Y832D01*
X4359Y832D02*
X4371Y832D01*
X4310Y831D02*
X4321Y831D01*
X4359Y831D02*
X4371Y831D01*
X4310Y830D02*
X4322Y830D01*
X4359Y830D02*
X4371Y830D01*
X4310Y829D02*
X4322Y829D01*
X4359Y829D02*
X4371Y829D01*
X4310Y828D02*
X4322Y828D01*
X4359Y828D02*
X4371Y828D01*
X4310Y827D02*
X4322Y827D01*
X4359Y827D02*
X4371Y827D01*
X4310Y826D02*
X4322Y826D01*
X4359Y826D02*
X4370Y826D01*
X4311Y825D02*
X4323Y825D01*
X4358Y825D02*
X4370Y825D01*
X4311Y824D02*
X4323Y824D01*
X4358Y824D02*
X4370Y824D01*
X4311Y823D02*
X4323Y823D01*
X4357Y823D02*
X4370Y823D01*
X4311Y822D02*
X4324Y822D01*
X4357Y822D02*
X4370Y822D01*
X4312Y821D02*
X4324Y821D01*
X4356Y821D02*
X4369Y821D01*
X4312Y820D02*
X4325Y820D01*
X4356Y820D02*
X4369Y820D01*
X4312Y819D02*
X4326Y819D01*
X4355Y819D02*
X4368Y819D01*
X4313Y818D02*
X4327Y818D01*
X4354Y818D02*
X4368Y818D01*
X4313Y817D02*
X4328Y817D01*
X4353Y817D02*
X4367Y817D01*
X4314Y816D02*
X4329Y816D01*
X4352Y816D02*
X4367Y816D01*
X4315Y815D02*
X4331Y815D01*
X4350Y815D02*
X4366Y815D01*
X4315Y814D02*
X4333Y814D01*
X4348Y814D02*
X4366Y814D01*
X4316Y813D02*
X4336Y813D01*
X4345Y813D02*
X4365Y813D01*
X4317Y812D02*
X4364Y812D01*
X4317Y811D02*
X4363Y811D01*
X5306Y811D02*
X5319Y811D01*
X4318Y810D02*
X4363Y810D01*
X5302Y810D02*
X5322Y810D01*
X4319Y809D02*
X4362Y809D01*
X5300Y809D02*
X5325Y809D01*
X4320Y808D02*
X4360Y808D01*
X5298Y808D02*
X5327Y808D01*
X4322Y807D02*
X4359Y807D01*
X5296Y807D02*
X5328Y807D01*
X4323Y806D02*
X4358Y806D01*
X5295Y806D02*
X5330Y806D01*
X4324Y805D02*
X4356Y805D01*
X5293Y805D02*
X5331Y805D01*
X4326Y804D02*
X4355Y804D01*
X5292Y804D02*
X5332Y804D01*
X4328Y803D02*
X4353Y803D01*
X5291Y803D02*
X5333Y803D01*
X4331Y802D02*
X4350Y802D01*
X5290Y802D02*
X5334Y802D01*
X4334Y801D02*
X4347Y801D01*
X5289Y801D02*
X5335Y801D01*
X5288Y800D02*
X5336Y800D01*
X5288Y799D02*
X5308Y799D01*
X5317Y799D02*
X5337Y799D01*
X5287Y798D02*
X5305Y798D01*
X5320Y798D02*
X5338Y798D01*
X5286Y797D02*
X5303Y797D01*
X5322Y797D02*
X5338Y797D01*
X5286Y796D02*
X5301Y796D01*
X5324Y796D02*
X5339Y796D01*
X5285Y795D02*
X5300Y795D01*
X5325Y795D02*
X5339Y795D01*
X5285Y794D02*
X5299Y794D01*
X5326Y794D02*
X5340Y794D01*
X5284Y793D02*
X5298Y793D01*
X5327Y793D02*
X5340Y793D01*
X5284Y792D02*
X5297Y792D01*
X5328Y792D02*
X5341Y792D01*
X5284Y791D02*
X5296Y791D01*
X5328Y791D02*
X5341Y791D01*
X5283Y790D02*
X5296Y790D01*
X5329Y790D02*
X5341Y790D01*
X5283Y789D02*
X5295Y789D01*
X5329Y789D02*
X5342Y789D01*
X5283Y788D02*
X5295Y788D01*
X5330Y788D02*
X5342Y788D01*
X5282Y787D02*
X5294Y787D01*
X5330Y787D02*
X5342Y787D01*
X5282Y786D02*
X5294Y786D01*
X5331Y786D02*
X5342Y786D01*
X5282Y785D02*
X5294Y785D01*
X5331Y785D02*
X5342Y785D01*
X5282Y784D02*
X5294Y784D01*
X5331Y784D02*
X5343Y784D01*
X5282Y783D02*
X5294Y783D01*
X5331Y783D02*
X5343Y783D01*
X5282Y782D02*
X5293Y782D01*
X5331Y782D02*
X5343Y782D01*
X5282Y781D02*
X5293Y781D01*
X5331Y781D02*
X5343Y781D01*
X5282Y780D02*
X5293Y780D01*
X5331Y780D02*
X5343Y780D01*
X5282Y779D02*
X5294Y779D01*
X5331Y779D02*
X5343Y779D01*
X5282Y778D02*
X5294Y778D01*
X5331Y778D02*
X5343Y778D01*
X5282Y777D02*
X5294Y777D01*
X5331Y777D02*
X5342Y777D01*
X5282Y776D02*
X5294Y776D01*
X5331Y776D02*
X5342Y776D01*
X5282Y775D02*
X5294Y775D01*
X5330Y775D02*
X5342Y775D01*
X5283Y774D02*
X5295Y774D01*
X5330Y774D02*
X5342Y774D01*
X5283Y773D02*
X5295Y773D01*
X5329Y773D02*
X5342Y773D01*
X5283Y772D02*
X5296Y772D01*
X5329Y772D02*
X5341Y772D01*
X5284Y771D02*
X5296Y771D01*
X5328Y771D02*
X5341Y771D01*
X5284Y770D02*
X5297Y770D01*
X5328Y770D02*
X5341Y770D01*
X5284Y769D02*
X5298Y769D01*
X5327Y769D02*
X5340Y769D01*
X5285Y768D02*
X5299Y768D01*
X5326Y768D02*
X5340Y768D01*
X5285Y767D02*
X5300Y767D01*
X5325Y767D02*
X5339Y767D01*
X5286Y766D02*
X5301Y766D01*
X5324Y766D02*
X5339Y766D01*
X5286Y765D02*
X5303Y765D01*
X5322Y765D02*
X5338Y765D01*
X5287Y764D02*
X5304Y764D01*
X5320Y764D02*
X5338Y764D01*
X5288Y763D02*
X5307Y763D01*
X5317Y763D02*
X5337Y763D01*
X4339Y762D02*
X4342Y762D01*
X5288Y762D02*
X5336Y762D01*
X4333Y761D02*
X4348Y761D01*
X5289Y761D02*
X5335Y761D01*
X4330Y760D02*
X4351Y760D01*
X5290Y760D02*
X5335Y760D01*
X4327Y759D02*
X4353Y759D01*
X5291Y759D02*
X5334Y759D01*
X4326Y758D02*
X4355Y758D01*
X5292Y758D02*
X5333Y758D01*
X4324Y757D02*
X4357Y757D01*
X5293Y757D02*
X5331Y757D01*
X4323Y756D02*
X4358Y756D01*
X5295Y756D02*
X5330Y756D01*
X4321Y755D02*
X4360Y755D01*
X5296Y755D02*
X5329Y755D01*
X4320Y754D02*
X4361Y754D01*
X5298Y754D02*
X5327Y754D01*
X4319Y753D02*
X4362Y753D01*
X5300Y753D02*
X5325Y753D01*
X4318Y752D02*
X4363Y752D01*
X5302Y752D02*
X5323Y752D01*
X4317Y751D02*
X4364Y751D01*
X5305Y751D02*
X5320Y751D01*
X4316Y750D02*
X4364Y750D01*
X5312Y750D02*
X5312Y750D01*
X4316Y749D02*
X4335Y749D01*
X4346Y749D02*
X4365Y749D01*
X4315Y748D02*
X4332Y748D01*
X4348Y748D02*
X4366Y748D01*
X4314Y747D02*
X4331Y747D01*
X4350Y747D02*
X4366Y747D01*
X4314Y746D02*
X4329Y746D01*
X4352Y746D02*
X4367Y746D01*
X4313Y745D02*
X4328Y745D01*
X4353Y745D02*
X4368Y745D01*
X4313Y744D02*
X4327Y744D01*
X4354Y744D02*
X4368Y744D01*
X4312Y743D02*
X4326Y743D01*
X4355Y743D02*
X4369Y743D01*
X4312Y742D02*
X4325Y742D01*
X4356Y742D02*
X4369Y742D01*
X4312Y741D02*
X4324Y741D01*
X4357Y741D02*
X4369Y741D01*
X4311Y740D02*
X4324Y740D01*
X4357Y740D02*
X4370Y740D01*
X4311Y739D02*
X4323Y739D01*
X4358Y739D02*
X4370Y739D01*
X4311Y738D02*
X4323Y738D01*
X4358Y738D02*
X4370Y738D01*
X4311Y737D02*
X4322Y737D01*
X4358Y737D02*
X4370Y737D01*
X4310Y736D02*
X4322Y736D01*
X4359Y736D02*
X4370Y736D01*
X4310Y735D02*
X4322Y735D01*
X4359Y735D02*
X4371Y735D01*
X4310Y734D02*
X4322Y734D01*
X4359Y734D02*
X4371Y734D01*
X4310Y733D02*
X4322Y733D01*
X4359Y733D02*
X4371Y733D01*
X4310Y732D02*
X4322Y732D01*
X4359Y732D02*
X4371Y732D01*
X4310Y731D02*
X4321Y731D01*
X4359Y731D02*
X4371Y731D01*
X4310Y730D02*
X4322Y730D01*
X4359Y730D02*
X4371Y730D01*
X4310Y729D02*
X4322Y729D01*
X4359Y729D02*
X4371Y729D01*
X4310Y728D02*
X4322Y728D01*
X4359Y728D02*
X4371Y728D01*
X4310Y727D02*
X4322Y727D01*
X4359Y727D02*
X4371Y727D01*
X4310Y726D02*
X4322Y726D01*
X4359Y726D02*
X4370Y726D01*
X4311Y725D02*
X4323Y725D01*
X4358Y725D02*
X4370Y725D01*
X4311Y724D02*
X4323Y724D01*
X4358Y724D02*
X4370Y724D01*
X4311Y723D02*
X4323Y723D01*
X4357Y723D02*
X4370Y723D01*
X4311Y722D02*
X4324Y722D01*
X4357Y722D02*
X4369Y722D01*
X4312Y721D02*
X4324Y721D01*
X4356Y721D02*
X4369Y721D01*
X4312Y720D02*
X4325Y720D01*
X4356Y720D02*
X4369Y720D01*
X4312Y719D02*
X4326Y719D01*
X4355Y719D02*
X4368Y719D01*
X4313Y718D02*
X4327Y718D01*
X4354Y718D02*
X4368Y718D01*
X4313Y717D02*
X4328Y717D01*
X4353Y717D02*
X4367Y717D01*
X4314Y716D02*
X4329Y716D01*
X4352Y716D02*
X4367Y716D01*
X4315Y715D02*
X4331Y715D01*
X4350Y715D02*
X4366Y715D01*
X4315Y714D02*
X4333Y714D01*
X4348Y714D02*
X4366Y714D01*
X4316Y713D02*
X4336Y713D01*
X4344Y713D02*
X4365Y713D01*
X4317Y712D02*
X4364Y712D01*
X4317Y711D02*
X4363Y711D01*
X4318Y710D02*
X4362Y710D01*
X5283Y710D02*
X5342Y710D01*
X4319Y709D02*
X4362Y709D01*
X5283Y709D02*
X5342Y709D01*
X4320Y708D02*
X4360Y708D01*
X5283Y708D02*
X5342Y708D01*
X4322Y707D02*
X4359Y707D01*
X5283Y707D02*
X5342Y707D01*
X4323Y706D02*
X4358Y706D01*
X5283Y706D02*
X5342Y706D01*
X4324Y705D02*
X4356Y705D01*
X5283Y705D02*
X5342Y705D01*
X4326Y704D02*
X4355Y704D01*
X5283Y704D02*
X5342Y704D01*
X4328Y703D02*
X4353Y703D01*
X5283Y703D02*
X5342Y703D01*
X4331Y702D02*
X4350Y702D01*
X5283Y702D02*
X5342Y702D01*
X4334Y701D02*
X4347Y701D01*
X5283Y701D02*
X5342Y701D01*
X5283Y700D02*
X5342Y700D01*
X5283Y699D02*
X5308Y699D01*
X5317Y699D02*
X5342Y699D01*
X5283Y698D02*
X5305Y698D01*
X5320Y698D02*
X5342Y698D01*
X5283Y697D02*
X5303Y697D01*
X5322Y697D02*
X5342Y697D01*
X5283Y696D02*
X5301Y696D01*
X5324Y696D02*
X5342Y696D01*
X5283Y695D02*
X5300Y695D01*
X5325Y695D02*
X5342Y695D01*
X5283Y694D02*
X5299Y694D01*
X5326Y694D02*
X5342Y694D01*
X5283Y693D02*
X5298Y693D01*
X5327Y693D02*
X5342Y693D01*
X5283Y692D02*
X5297Y692D01*
X5328Y692D02*
X5342Y692D01*
X5283Y691D02*
X5296Y691D01*
X5328Y691D02*
X5342Y691D01*
X5283Y690D02*
X5296Y690D01*
X5329Y690D02*
X5342Y690D01*
X5283Y689D02*
X5295Y689D01*
X5329Y689D02*
X5342Y689D01*
X5283Y688D02*
X5295Y688D01*
X5330Y688D02*
X5342Y688D01*
X5283Y687D02*
X5294Y687D01*
X5330Y687D02*
X5342Y687D01*
X5283Y686D02*
X5294Y686D01*
X5331Y686D02*
X5342Y686D01*
X5283Y685D02*
X5294Y685D01*
X5331Y685D02*
X5342Y685D01*
X5283Y684D02*
X5294Y684D01*
X5331Y684D02*
X5342Y684D01*
X5283Y683D02*
X5294Y683D01*
X5331Y683D02*
X5342Y683D01*
X5283Y682D02*
X5293Y682D01*
X5331Y682D02*
X5342Y682D01*
X5283Y681D02*
X5293Y681D01*
X5331Y681D02*
X5342Y681D01*
X5283Y680D02*
X5293Y680D01*
X5331Y680D02*
X5342Y680D01*
X5283Y679D02*
X5294Y679D01*
X5331Y679D02*
X5342Y679D01*
X5283Y678D02*
X5294Y678D01*
X5331Y678D02*
X5342Y678D01*
X5283Y677D02*
X5294Y677D01*
X5331Y677D02*
X5342Y677D01*
X5283Y676D02*
X5294Y676D01*
X5331Y676D02*
X5342Y676D01*
X5283Y675D02*
X5294Y675D01*
X5330Y675D02*
X5342Y675D01*
X5283Y674D02*
X5295Y674D01*
X5330Y674D02*
X5342Y674D01*
X5283Y673D02*
X5295Y673D01*
X5329Y673D02*
X5342Y673D01*
X5283Y672D02*
X5296Y672D01*
X5329Y672D02*
X5342Y672D01*
X5283Y671D02*
X5296Y671D01*
X5328Y671D02*
X5342Y671D01*
X5283Y670D02*
X5297Y670D01*
X5328Y670D02*
X5342Y670D01*
X5283Y669D02*
X5298Y669D01*
X5327Y669D02*
X5342Y669D01*
X5283Y668D02*
X5299Y668D01*
X5326Y668D02*
X5342Y668D01*
X5283Y667D02*
X5300Y667D01*
X5325Y667D02*
X5342Y667D01*
X5283Y666D02*
X5301Y666D01*
X5324Y666D02*
X5342Y666D01*
X5283Y665D02*
X5303Y665D01*
X5322Y665D02*
X5342Y665D01*
X5283Y664D02*
X5304Y664D01*
X5320Y664D02*
X5342Y664D01*
X5283Y663D02*
X5308Y663D01*
X5317Y663D02*
X5342Y663D01*
X5283Y662D02*
X5342Y662D01*
X5283Y661D02*
X5342Y661D01*
X4311Y660D02*
X4370Y660D01*
X5283Y660D02*
X5342Y660D01*
X4311Y659D02*
X4370Y659D01*
X5283Y659D02*
X5342Y659D01*
X4311Y658D02*
X4370Y658D01*
X5283Y658D02*
X5342Y658D01*
X4311Y657D02*
X4370Y657D01*
X5283Y657D02*
X5342Y657D01*
X4311Y656D02*
X4370Y656D01*
X5283Y656D02*
X5342Y656D01*
X4311Y655D02*
X4370Y655D01*
X5283Y655D02*
X5342Y655D01*
X4311Y654D02*
X4370Y654D01*
X5283Y654D02*
X5342Y654D01*
X4311Y653D02*
X4370Y653D01*
X5283Y653D02*
X5342Y653D01*
X4311Y652D02*
X4370Y652D01*
X5283Y652D02*
X5342Y652D01*
X4311Y651D02*
X4370Y651D01*
X4311Y650D02*
X4370Y650D01*
X4311Y649D02*
X4335Y649D01*
X4346Y649D02*
X4370Y649D01*
X4311Y648D02*
X4332Y648D01*
X4349Y648D02*
X4370Y648D01*
X4311Y647D02*
X4330Y647D01*
X4350Y647D02*
X4370Y647D01*
X4311Y646D02*
X4329Y646D01*
X4352Y646D02*
X4370Y646D01*
X4311Y645D02*
X4328Y645D01*
X4353Y645D02*
X4370Y645D01*
X4311Y644D02*
X4327Y644D01*
X4354Y644D02*
X4370Y644D01*
X4311Y643D02*
X4326Y643D01*
X4355Y643D02*
X4370Y643D01*
X4311Y642D02*
X4325Y642D01*
X4356Y642D02*
X4370Y642D01*
X4311Y641D02*
X4324Y641D01*
X4357Y641D02*
X4370Y641D01*
X4311Y640D02*
X4324Y640D01*
X4357Y640D02*
X4370Y640D01*
X4311Y639D02*
X4323Y639D01*
X4358Y639D02*
X4370Y639D01*
X4311Y638D02*
X4323Y638D01*
X4358Y638D02*
X4370Y638D01*
X4311Y637D02*
X4322Y637D01*
X4358Y637D02*
X4370Y637D01*
X4311Y636D02*
X4322Y636D01*
X4359Y636D02*
X4370Y636D01*
X4311Y635D02*
X4322Y635D01*
X4359Y635D02*
X4370Y635D01*
X4311Y634D02*
X4322Y634D01*
X4359Y634D02*
X4370Y634D01*
X4311Y633D02*
X4322Y633D01*
X4359Y633D02*
X4370Y633D01*
X4311Y632D02*
X4322Y632D01*
X4359Y632D02*
X4370Y632D01*
X4311Y631D02*
X4321Y631D01*
X4359Y631D02*
X4370Y631D01*
X4311Y630D02*
X4322Y630D01*
X4359Y630D02*
X4370Y630D01*
X4311Y629D02*
X4322Y629D01*
X4359Y629D02*
X4370Y629D01*
X4311Y628D02*
X4322Y628D01*
X4359Y628D02*
X4370Y628D01*
X4311Y627D02*
X4322Y627D01*
X4359Y627D02*
X4370Y627D01*
X4311Y626D02*
X4322Y626D01*
X4359Y626D02*
X4370Y626D01*
X4311Y625D02*
X4323Y625D01*
X4358Y625D02*
X4370Y625D01*
X4311Y624D02*
X4323Y624D01*
X4358Y624D02*
X4370Y624D01*
X4311Y623D02*
X4323Y623D01*
X4357Y623D02*
X4370Y623D01*
X4311Y622D02*
X4324Y622D01*
X4357Y622D02*
X4370Y622D01*
X4311Y621D02*
X4324Y621D01*
X4356Y621D02*
X4370Y621D01*
X4311Y620D02*
X4325Y620D01*
X4356Y620D02*
X4370Y620D01*
X4311Y619D02*
X4326Y619D01*
X4355Y619D02*
X4370Y619D01*
X4311Y618D02*
X4327Y618D01*
X4354Y618D02*
X4370Y618D01*
X4311Y617D02*
X4328Y617D01*
X4353Y617D02*
X4370Y617D01*
X4311Y616D02*
X4329Y616D01*
X4351Y616D02*
X4370Y616D01*
X4311Y615D02*
X4331Y615D01*
X4350Y615D02*
X4370Y615D01*
X4311Y614D02*
X4333Y614D01*
X4348Y614D02*
X4370Y614D01*
X4311Y613D02*
X4336Y613D01*
X4344Y613D02*
X4370Y613D01*
X4311Y612D02*
X4370Y612D01*
X4311Y611D02*
X4370Y611D01*
X4311Y610D02*
X4370Y610D01*
X4311Y609D02*
X4370Y609D01*
X4311Y608D02*
X4370Y608D01*
X4311Y607D02*
X4370Y607D01*
X4311Y606D02*
X4370Y606D01*
X4311Y605D02*
X4370Y605D01*
X4311Y604D02*
X4370Y604D01*
X4311Y603D02*
X4370Y603D01*
X4311Y602D02*
X4370Y602D01*
D02*
G04 End of Copper0*
M02*