G04 MADE WITH FRITZING*
G04 WWW.FRITZING.ORG*
G04 DOUBLE SIDED*
G04 HOLES PLATED*
G04 CONTOUR ON CENTER OF CONTOUR VECTOR*
%ASAXBY*%
%FSLAX23Y23*%
%MOIN*%
%OFA0B0*%
%SFA1.0B1.0*%
%ADD10C,0.087778*%
%ADD11C,0.083889*%
%ADD12C,0.075000*%
%ADD13C,0.085000*%
%ADD14C,0.088000*%
%ADD15C,0.135984*%
%ADD16C,0.084000*%
%ADD17C,0.072992*%
%ADD18R,0.084000X0.084000*%
%ADD19R,0.072992X0.072992*%
%LNMASK1*%
G90*
G70*
G54D10*
X1413Y1080D03*
X1413Y980D03*
X1413Y880D03*
X1413Y780D03*
X1413Y680D03*
X1413Y580D03*
X1413Y480D03*
X1413Y380D03*
X2313Y380D03*
X2313Y480D03*
X2313Y580D03*
X2313Y680D03*
X2313Y780D03*
X2313Y880D03*
X2313Y980D03*
X2313Y1080D03*
G54D11*
X513Y1180D03*
X513Y1280D03*
X513Y1380D03*
X513Y1480D03*
G54D12*
X713Y580D03*
X713Y658D03*
X713Y737D03*
X713Y816D03*
G54D13*
X2413Y1180D03*
X2713Y1180D03*
X1113Y180D03*
X858Y180D03*
X1113Y357D03*
X858Y357D03*
G54D14*
X513Y480D03*
G54D13*
X913Y580D03*
X1313Y580D03*
X913Y680D03*
X1313Y680D03*
X913Y780D03*
X1313Y780D03*
X2413Y980D03*
X2813Y980D03*
G54D15*
X5513Y180D03*
X5513Y1780D03*
X213Y1780D03*
X213Y180D03*
G54D14*
X513Y180D03*
G54D16*
X3213Y480D03*
X3313Y480D03*
X3413Y480D03*
X3513Y480D03*
X3613Y480D03*
X3713Y480D03*
X3813Y480D03*
X3913Y480D03*
G54D17*
X2612Y180D03*
X2513Y180D03*
G54D13*
X2913Y580D03*
X2913Y180D03*
G54D18*
X3213Y480D03*
G54D19*
X2612Y180D03*
G04 End of Mask1*
M02*