G04 MADE WITH FRITZING*
G04 WWW.FRITZING.ORG*
G04 DOUBLE SIDED*
G04 HOLES PLATED*
G04 CONTOUR ON CENTER OF CONTOUR VECTOR*
%ASAXBY*%
%FSLAX23Y23*%
%MOIN*%
%OFA0B0*%
%SFA1.0B1.0*%
%ADD10C,0.077778*%
%ADD11C,0.073889*%
%ADD12C,0.065000*%
%ADD13C,0.075000*%
%ADD14C,0.062992*%
%ADD15C,0.078000*%
%ADD16R,0.062992X0.062992*%
%ADD17C,0.024000*%
%LNCOPPER0*%
G90*
G70*
G54D10*
X1153Y1075D03*
X1153Y975D03*
X1153Y875D03*
X1153Y775D03*
X1153Y675D03*
X1153Y575D03*
X1153Y475D03*
X1153Y375D03*
X2053Y375D03*
X2053Y475D03*
X2053Y575D03*
X2053Y675D03*
X2053Y775D03*
X2053Y875D03*
X2053Y975D03*
X2053Y1075D03*
G54D11*
X253Y1175D03*
X253Y1275D03*
X253Y1375D03*
X253Y1475D03*
G54D12*
X453Y575D03*
X453Y654D03*
X453Y732D03*
X453Y811D03*
G54D13*
X2153Y1175D03*
X2453Y1175D03*
X853Y175D03*
X597Y175D03*
X853Y352D03*
X597Y352D03*
G54D14*
X2853Y176D03*
X2853Y275D03*
X2853Y676D03*
X2853Y775D03*
X2853Y1176D03*
X2853Y1275D03*
G54D15*
X253Y175D03*
X253Y475D03*
G54D13*
X653Y575D03*
X1053Y575D03*
X653Y675D03*
X1053Y675D03*
X653Y775D03*
X1053Y775D03*
X2153Y975D03*
X2553Y975D03*
X2153Y575D03*
X2553Y575D03*
X2153Y775D03*
X2553Y775D03*
X2153Y675D03*
X2553Y675D03*
G54D16*
X2853Y176D03*
X2853Y676D03*
X2853Y1176D03*
G54D17*
X2954Y1274D02*
X2880Y1275D01*
D02*
X2957Y777D02*
X2880Y776D01*
D02*
X1751Y1175D02*
X1751Y676D01*
D02*
X1751Y676D02*
X1355Y676D01*
D02*
X1355Y676D02*
X1355Y378D01*
D02*
X1355Y378D02*
X1182Y375D01*
D02*
X2124Y1175D02*
X1751Y1175D01*
D02*
X2153Y1072D02*
X2451Y1072D01*
D02*
X2451Y1072D02*
X2453Y1146D01*
D02*
X2153Y1004D02*
X2153Y1072D01*
D02*
X1242Y875D02*
X1182Y875D01*
D02*
X1242Y1375D02*
X1242Y875D01*
D02*
X287Y1375D02*
X1242Y1375D01*
D02*
X569Y175D02*
X283Y175D01*
D02*
X283Y475D02*
X1124Y475D01*
D02*
X153Y175D02*
X153Y654D01*
D02*
X153Y654D02*
X429Y654D01*
D02*
X223Y175D02*
X153Y175D01*
D02*
X1290Y379D02*
X1290Y1475D01*
D02*
X1290Y1475D02*
X287Y1475D01*
D02*
X1182Y376D02*
X1290Y379D01*
D02*
X953Y975D02*
X953Y1275D01*
D02*
X953Y1275D02*
X152Y1274D01*
D02*
X152Y1274D02*
X152Y1576D01*
D02*
X152Y1576D02*
X2453Y1575D01*
D02*
X2453Y1575D02*
X2453Y1204D01*
D02*
X1124Y975D02*
X953Y975D01*
D02*
X153Y654D02*
X152Y1174D01*
D02*
X152Y1174D02*
X219Y1175D01*
D02*
X429Y654D02*
X153Y654D01*
D02*
X2553Y175D02*
X2553Y546D01*
D02*
X2826Y176D02*
X2553Y175D01*
D02*
X2826Y676D02*
X2582Y675D01*
D02*
X2553Y875D02*
X2553Y804D01*
D02*
X2854Y874D02*
X2553Y875D01*
D02*
X2853Y1150D02*
X2854Y874D01*
D02*
X2553Y1275D02*
X2553Y1004D01*
D02*
X2826Y1275D02*
X2553Y1275D01*
D02*
X2954Y1274D02*
X2957Y777D01*
D02*
X2957Y777D02*
X2954Y275D01*
D02*
X2954Y275D02*
X2880Y275D01*
D02*
X2453Y475D02*
X2082Y475D01*
D02*
X2457Y49D02*
X2453Y475D01*
D02*
X2954Y49D02*
X2457Y49D01*
D02*
X2954Y275D02*
X2954Y49D01*
D02*
X2880Y275D02*
X2954Y275D01*
D02*
X1550Y475D02*
X1550Y177D01*
D02*
X1550Y177D02*
X882Y175D01*
D02*
X2024Y475D02*
X1550Y475D01*
D02*
X454Y877D02*
X453Y835D01*
D02*
X655Y877D02*
X454Y877D01*
D02*
X654Y804D02*
X655Y877D01*
D02*
X1124Y775D02*
X1082Y775D01*
D02*
X1082Y675D02*
X1124Y675D01*
D02*
X552Y732D02*
X552Y676D01*
D02*
X552Y676D02*
X624Y675D01*
D02*
X477Y732D02*
X552Y732D01*
D02*
X1082Y575D02*
X1124Y575D01*
D02*
X477Y575D02*
X624Y575D01*
D02*
X2124Y575D02*
X2082Y575D01*
D02*
X2124Y675D02*
X2082Y675D01*
D02*
X2124Y775D02*
X2082Y775D01*
D02*
X1453Y573D02*
X1453Y274D01*
D02*
X1854Y573D02*
X1453Y573D01*
D02*
X1854Y877D02*
X1854Y573D01*
D02*
X1453Y274D02*
X953Y274D01*
D02*
X953Y274D02*
X953Y352D01*
D02*
X953Y352D02*
X882Y352D01*
D02*
X2024Y875D02*
X1854Y877D01*
G04 End of Copper0*
M02*