G04 MADE WITH FRITZING*
G04 WWW.FRITZING.ORG*
G04 DOUBLE SIDED*
G04 HOLES PLATED*
G04 CONTOUR ON CENTER OF CONTOUR VECTOR*
%ASAXBY*%
%FSLAX23Y23*%
%MOIN*%
%OFA0B0*%
%SFA1.0B1.0*%
%ADD10C,0.087778*%
%ADD11C,0.083889*%
%ADD12C,0.075000*%
%ADD13C,0.085000*%
%ADD14C,0.072992*%
%ADD15C,0.088000*%
%ADD16R,0.072992X0.072992*%
%LNMASK1*%
G90*
G70*
G54D10*
X1153Y1075D03*
X1153Y975D03*
X1153Y875D03*
X1153Y775D03*
X1153Y675D03*
X1153Y575D03*
X1153Y475D03*
X1153Y375D03*
X2053Y375D03*
X2053Y475D03*
X2053Y575D03*
X2053Y675D03*
X2053Y775D03*
X2053Y875D03*
X2053Y975D03*
X2053Y1075D03*
G54D11*
X253Y1175D03*
X253Y1275D03*
X253Y1375D03*
X253Y1475D03*
G54D12*
X453Y575D03*
X453Y654D03*
X453Y732D03*
X453Y811D03*
G54D13*
X2153Y1175D03*
X2453Y1175D03*
X853Y175D03*
X597Y175D03*
X853Y352D03*
X597Y352D03*
G54D14*
X2853Y176D03*
X2853Y275D03*
X2853Y676D03*
X2853Y775D03*
X2853Y1176D03*
X2853Y1275D03*
G54D15*
X253Y175D03*
X253Y475D03*
G54D13*
X653Y575D03*
X1053Y575D03*
X653Y675D03*
X1053Y675D03*
X653Y775D03*
X1053Y775D03*
X2153Y975D03*
X2553Y975D03*
X2153Y575D03*
X2553Y575D03*
X2153Y775D03*
X2553Y775D03*
X2153Y675D03*
X2553Y675D03*
G54D16*
X2853Y176D03*
X2853Y676D03*
X2853Y1176D03*
G04 End of Mask1*
M02*