; NON-PLATED HOLES START AT T1
; THROUGH (PLATED) HOLES START AT T100
M48
INCH
T100C0.025000
T101C0.038000
T102C0.046111
T103C0.031497
T104C0.036111
T105C0.035000
%
T100
X004530Y007323
X004530Y005749
X004530Y008111
X004530Y006537
T101
X002530Y001749
X002530Y004749
T102
X002530Y014749
X002530Y012749
X002530Y013749
X002530Y011749
T103
X028530Y001764
X028530Y006764
X028530Y002749
X028530Y007749
X028530Y011764
X028530Y012749
T104
X011530Y009749
X011530Y003749
X020530Y004749
X011530Y004749
X020530Y005749
X011530Y005749
X020530Y006749
X020530Y010749
X011530Y006749
X020530Y007749
X011530Y010749
X011530Y007749
X020530Y008749
X011530Y008749
X020530Y009749
X020530Y003749
T105
X006530Y006749
X025530Y006749
X021530Y009749
X010530Y007749
X021530Y006749
X008530Y001749
X005971Y003520
X006530Y005749
X025530Y005749
X010530Y006749
X021530Y005749
X006530Y007749
X025530Y007749
X005971Y001749
X008530Y003520
X024530Y011749
X021530Y007749
X010530Y005749
X021530Y011749
X025530Y009749
T00
M30
